<svg width="375" height="510" viewBox="0 0 375 510" fill="none" xmlns="http://www.w3.org/2000/svg">
<path d="M401.201 256.993C397.29 272.436 386.346 285.339 369.867 295.444C353.387 305.549 331.384 312.847 305.388 317.077C253.398 325.536 185.484 321.719 113.974 303.611C42.4641 285.502 -19.0812 256.535 -60.7789 224.351C-81.6281 208.258 -97.5065 191.368 -107.191 174.637C-116.874 157.907 -120.358 141.35 -116.447 125.907C-112.536 110.464 -101.592 97.5602 -85.1135 87.4556C-68.6334 77.3503 -46.6299 70.053 -20.6344 65.8231C31.3558 57.3635 99.2698 61.1803 170.78 79.289C242.29 97.3977 303.835 126.364 345.533 158.549C366.382 174.641 382.26 191.532 391.944 208.263C401.628 224.992 405.111 241.549 401.201 256.993Z" stroke="url(#paint0_linear_88_3710)" stroke-width="0.450212"/>
<path d="M518.529 286.704C512.838 309.175 496.916 327.943 472.958 342.633C448.999 357.325 417.015 367.93 379.237 374.077C303.682 386.371 204.994 380.824 101.084 354.511C-2.82468 328.197 -92.2593 286.106 -152.857 239.333C-183.156 215.947 -206.236 191.397 -220.316 167.073C-234.394 142.75 -239.465 118.667 -233.775 96.1956C-228.085 73.7243 -212.162 54.9572 -188.204 40.2666C-164.245 25.5752 -132.261 14.9694 -94.4835 8.82235C-18.9285 -3.47167 79.7603 2.07582 183.669 28.3891C287.579 54.7024 377.013 96.794 437.611 143.566C467.91 166.953 490.99 191.503 505.07 215.827C519.148 240.15 524.219 264.233 518.529 286.704Z" stroke="url(#paint1_linear_88_3710)" stroke-width="0.450212"/>
<path d="M661.295 322.858C653.439 353.88 631.458 379.783 598.399 400.054C565.339 420.326 521.212 434.957 469.097 443.437C364.868 460.397 228.732 452.743 85.3995 416.447C-57.9335 380.15 -181.304 322.088 -264.899 257.565C-306.697 225.303 -338.541 191.433 -357.969 157.869C-377.395 124.307 -384.398 91.0653 -376.542 60.0425C-368.686 29.0197 -346.706 3.11746 -313.647 -17.1536C-280.587 -37.4254 -236.46 -52.057 -184.345 -60.5369C-80.1161 -77.4967 56.0198 -69.8432 199.353 -33.5465C342.686 2.75021 466.057 60.8126 549.651 125.336C591.449 157.597 623.294 191.467 642.721 225.031C662.148 258.593 669.151 291.835 661.295 322.858Z" stroke="url(#paint2_linear_88_3710)" stroke-width="0.450212"/>
<defs>
<linearGradient id="paint0_linear_88_3710" x1="-98.5209" y1="116.963" x2="349.917" y2="303.004" gradientUnits="userSpaceOnUse">
<stop stop-color="white"/>
<stop offset="0.491388" stop-color="#484848" stop-opacity="0.36"/>
<stop offset="1" stop-color="#484848"/>
</linearGradient>
<linearGradient id="paint1_linear_88_3710" x1="-207.631" y1="83.2259" x2="443.918" y2="353.53" gradientUnits="userSpaceOnUse">
<stop stop-color="white"/>
<stop offset="0.491388" stop-color="#484848" stop-opacity="0.36"/>
<stop offset="1" stop-color="#484848"/>
</linearGradient>
<linearGradient id="paint2_linear_88_3710" x1="-340.398" y1="42.174" x2="558.3" y2="415.011" gradientUnits="userSpaceOnUse">
<stop stop-color="white"/>
<stop offset="0.491388" stop-color="#484848" stop-opacity="0.36"/>
<stop offset="1" stop-color="#484848"/>
</linearGradient>
</defs>
</svg>
