<svg width="1440" height="923" viewBox="0 0 1440 923" fill="none" xmlns="http://www.w3.org/2000/svg">
<g clip-path="url(#clip0_88_312)">
<path d="M1270.61 639.076C1260.76 678 1233.17 710.522 1191.64 735.99C1150.1 761.459 1094.65 779.851 1029.13 790.512C898.089 811.834 726.917 802.214 546.682 756.573C366.447 710.931 211.328 637.923 106.232 556.805C53.6831 516.245 13.6631 473.674 -10.7454 431.505C-35.1519 389.339 -43.9317 347.609 -34.0749 308.685C-24.218 269.761 3.36484 237.239 44.8985 211.772C86.4353 186.302 141.893 167.91 207.413 157.249C338.45 135.927 509.622 145.547 689.856 191.188C870.091 236.83 1025.21 309.838 1130.31 390.957C1182.86 431.516 1222.88 474.087 1247.28 516.256C1271.69 558.422 1280.47 600.152 1270.61 639.076Z" stroke="url(#paint0_linear_88_312)" stroke-width="1.13472"/>
<path d="M1566.33 713.961C1551.99 770.598 1511.86 817.899 1451.47 854.925C1391.08 891.954 1310.47 918.685 1215.26 934.178C1024.83 965.164 776.09 951.182 514.195 884.862C252.301 818.541 26.8884 712.453 -125.842 594.567C-202.209 535.623 -260.382 473.747 -295.868 412.44C-331.352 351.137 -344.133 290.437 -329.791 233.8C-315.448 177.163 -275.317 129.862 -214.933 92.8351C-154.545 55.8066 -73.9339 29.0757 21.2822 13.5825C211.712 -17.4036 460.45 -3.42163 722.344 62.8988C984.239 129.219 1209.65 235.308 1362.38 353.194C1438.75 412.138 1496.92 474.013 1532.41 535.32C1567.89 596.624 1580.67 657.324 1566.33 713.961Z" stroke="url(#paint1_linear_88_312)" stroke-width="1.13472"/>
<path d="M1926.16 805.083C1906.36 883.274 1850.96 948.558 1767.64 999.649C1684.31 1050.74 1573.09 1087.62 1441.74 1108.99C1179.04 1151.74 835.923 1132.45 474.664 1040.97C113.405 949.483 -197.541 803.142 -408.234 640.517C-513.582 559.204 -593.844 473.837 -642.809 389.243C-691.772 304.653 -709.423 220.87 -689.622 142.679C-669.822 64.4885 -614.422 -0.795896 -531.1 -51.8875C-447.774 -102.981 -336.556 -139.859 -205.205 -161.232C57.4958 -203.977 400.615 -184.687 761.874 -93.2044C1123.13 -1.72149 1434.08 144.62 1644.77 307.245C1750.12 388.558 1830.38 473.925 1879.35 558.519C1928.31 643.109 1945.96 726.893 1926.16 805.083Z" stroke="url(#paint2_linear_88_312)" stroke-width="1.13472"/>
</g>
<defs>
<linearGradient id="paint0_linear_88_312" x1="11.1064" y1="286.143" x2="1141.36" y2="755.043" gradientUnits="userSpaceOnUse">
<stop stop-color="white"/>
<stop offset="0.491388" stop-color="#484848" stop-opacity="0.36"/>
<stop offset="1" stop-color="#484848"/>
</linearGradient>
<linearGradient id="paint1_linear_88_312" x1="-263.896" y1="201.111" x2="1378.28" y2="882.39" gradientUnits="userSpaceOnUse">
<stop stop-color="white"/>
<stop offset="0.491388" stop-color="#484848" stop-opacity="0.36"/>
<stop offset="1" stop-color="#484848"/>
</linearGradient>
<linearGradient id="paint2_linear_88_312" x1="-598.524" y1="97.643" x2="1666.57" y2="1037.35" gradientUnits="userSpaceOnUse">
<stop stop-color="white"/>
<stop offset="0.491388" stop-color="#484848" stop-opacity="0.36"/>
<stop offset="1" stop-color="#484848"/>
</linearGradient>
<clipPath id="clip0_88_312">
<rect width="1634" height="931.607" fill="white" transform="translate(-85 -8.65234)"/>
</clipPath>
</defs>
</svg>
