<svg width="233" height="44" viewBox="0 0 233 44" fill="none" xmlns="http://www.w3.org/2000/svg">
<path d="M69.2422 28.2891C69.2422 29.7891 68.6797 30.9492 67.5547 31.7695C66.4297 32.5898 64.8672 33 62.8672 33H54.6055V16.4883H62.1641C64.1797 16.4883 65.7031 16.8398 66.7344 17.543C67.7734 18.2383 68.293 19.2695 68.293 20.6367C68.293 21.5742 68.0312 22.3672 67.5078 23.0156C66.9922 23.6562 66.2031 24.0898 65.1406 24.3164C66.4766 24.4727 67.4922 24.8945 68.1875 25.582C68.8906 26.2617 69.2422 27.1641 69.2422 28.2891ZM64.8125 21.1055C64.8125 20.3633 64.5742 19.8359 64.0977 19.5234C63.6289 19.2109 62.9297 19.0547 62 19.0547H58.0625V23.1445H62.0234C63 23.1445 63.707 22.9766 64.1445 22.6406C64.5898 22.2969 64.8125 21.7852 64.8125 21.1055ZM65.7734 28.0195C65.7734 26.4727 64.6641 25.6992 62.4453 25.6992H58.0625V30.4336H62.5742C63.6836 30.4336 64.4922 30.2344 65 29.8359C65.5156 29.4297 65.7734 28.8242 65.7734 28.0195ZM85.2256 30.3281V33H72.9092V16.4883H76.3662V30.3281H85.2256ZM104.596 24.668C104.596 26.3867 104.248 27.8906 103.553 29.1797C102.865 30.4609 101.893 31.457 100.635 32.168C99.3848 32.8789 97.9161 33.2344 96.2286 33.2344C94.502 33.2344 93.0177 32.8906 91.7755 32.2031C90.5333 31.5078 89.5802 30.5195 88.9161 29.2383C88.252 27.957 87.92 26.4336 87.92 24.668C87.92 22.9023 88.2481 21.3906 88.9044 20.1328C89.5684 18.875 90.5216 17.9141 91.7637 17.25C93.0137 16.5781 94.5098 16.2422 96.252 16.2422C98.002 16.2422 99.4981 16.582 100.74 17.2617C101.982 17.9336 102.936 18.8984 103.6 20.1562C104.264 21.4141 104.596 22.918 104.596 24.668ZM101.068 24.668C101.068 22.8867 100.647 21.4922 99.8028 20.4844C98.9591 19.4688 97.7755 18.9609 96.252 18.9609C94.7052 18.9609 93.5098 19.4648 92.6661 20.4727C91.8223 21.4727 91.4005 22.8711 91.4005 24.668C91.4005 25.8711 91.5958 26.9102 91.9864 27.7852C92.377 28.6602 92.9317 29.3359 93.6505 29.8125C94.377 30.2812 95.2364 30.5156 96.2286 30.5156C97.7755 30.5156 98.9669 30.0078 99.8028 28.9922C100.647 27.9766 101.068 26.5352 101.068 24.668ZM115.892 30.5156C117.985 30.5156 119.435 29.4688 120.239 27.375L123.251 28.5117C122.603 30.1055 121.65 31.293 120.392 32.0742C119.142 32.8477 117.642 33.2344 115.892 33.2344C114.126 33.2344 112.622 32.8984 111.38 32.2266C110.138 31.5469 109.189 30.5664 108.532 29.2852C107.884 28.0039 107.56 26.4648 107.56 24.668C107.56 22.8555 107.872 21.3242 108.497 20.0742C109.122 18.8242 110.044 17.875 111.263 17.2266C112.482 16.5703 113.974 16.2422 115.739 16.2422C117.677 16.2422 119.255 16.6328 120.474 17.4141C121.693 18.1875 122.548 19.3281 123.04 20.8359L119.993 21.668C119.735 20.8398 119.228 20.1836 118.47 19.6992C117.72 19.207 116.833 18.9609 115.81 18.9609C114.247 18.9609 113.06 19.4453 112.247 20.4141C111.443 21.3828 111.04 22.8008 111.04 24.668C111.04 25.9336 111.224 27 111.591 27.8672C111.966 28.7344 112.513 29.3945 113.232 29.8477C113.958 30.293 114.845 30.5156 115.892 30.5156ZM129.942 26.9766V33H126.485V16.4883H129.942V23.9766L137.383 16.4883H141.414L134.36 23.4727L141.988 33H137.91L131.981 25.418L129.942 26.9766Z" fill="white"/>
<path d="M159.425 28.2891C159.425 29.7891 158.863 30.9492 157.738 31.7695C156.613 32.5898 155.05 33 153.05 33H144.788V16.4883H152.347C154.363 16.4883 155.886 16.8398 156.917 17.543C157.956 18.2383 158.476 19.2695 158.476 20.6367C158.476 21.5742 158.214 22.3672 157.691 23.0156C157.175 23.6562 156.386 24.0898 155.323 24.3164C156.659 24.4727 157.675 24.8945 158.37 25.582C159.073 26.2617 159.425 27.1641 159.425 28.2891ZM154.995 21.1055C154.995 20.3633 154.757 19.8359 154.28 19.5234C153.812 19.2109 153.113 19.0547 152.183 19.0547H148.245V23.1445H152.206C153.183 23.1445 153.89 22.9766 154.327 22.6406C154.773 22.2969 154.995 21.7852 154.995 21.1055ZM155.956 28.0195C155.956 26.4727 154.847 25.6992 152.628 25.6992H148.245V30.4336H152.757C153.866 30.4336 154.675 30.2344 155.183 29.8359C155.698 29.4297 155.956 28.8242 155.956 28.0195ZM179.147 24.668C179.147 26.3867 178.799 27.8906 178.104 29.1797C177.416 30.4609 176.444 31.457 175.186 32.168C173.936 32.8789 172.467 33.2344 170.78 33.2344C169.053 33.2344 167.569 32.8906 166.326 32.2031C165.084 31.5078 164.131 30.5195 163.467 29.2383C162.803 27.957 162.471 26.4336 162.471 24.668C162.471 22.9023 162.799 21.3906 163.455 20.1328C164.119 18.875 165.073 17.9141 166.315 17.25C167.565 16.5781 169.061 16.2422 170.803 16.2422C172.553 16.2422 174.049 16.582 175.291 17.2617C176.533 17.9336 177.487 18.8984 178.151 20.1562C178.815 21.4141 179.147 22.918 179.147 24.668ZM175.619 24.668C175.619 22.8867 175.198 21.4922 174.354 20.4844C173.51 19.4688 172.326 18.9609 170.803 18.9609C169.256 18.9609 168.061 19.4648 167.217 20.4727C166.373 21.4727 165.951 22.8711 165.951 24.668C165.951 25.8711 166.147 26.9102 166.537 27.7852C166.928 28.6602 167.483 29.3359 168.201 29.8125C168.928 30.2812 169.787 30.5156 170.78 30.5156C172.326 30.5156 173.518 30.0078 174.354 28.9922C175.198 27.9766 175.619 26.5352 175.619 24.668ZM198.786 24.668C198.786 26.3867 198.439 27.8906 197.743 29.1797C197.056 30.4609 196.083 31.457 194.825 32.168C193.575 32.8789 192.107 33.2344 190.419 33.2344C188.693 33.2344 187.208 32.8906 185.966 32.2031C184.724 31.5078 183.771 30.5195 183.107 29.2383C182.443 27.957 182.111 26.4336 182.111 24.668C182.111 22.9023 182.439 21.3906 183.095 20.1328C183.759 18.875 184.712 17.9141 185.954 17.25C187.204 16.5781 188.7 16.2422 190.443 16.2422C192.193 16.2422 193.689 16.582 194.931 17.2617C196.173 17.9336 197.126 18.8984 197.79 20.1562C198.454 21.4141 198.786 22.918 198.786 24.668ZM195.259 24.668C195.259 22.8867 194.837 21.4922 193.993 20.4844C193.15 19.4688 191.966 18.9609 190.443 18.9609C188.896 18.9609 187.7 19.4648 186.857 20.4727C186.013 21.4727 185.591 22.8711 185.591 24.668C185.591 25.8711 185.786 26.9102 186.177 27.7852C186.568 28.6602 187.122 29.3359 187.841 29.8125C188.568 30.2812 189.427 30.5156 190.419 30.5156C191.966 30.5156 193.158 30.0078 193.993 28.9922C194.837 27.9766 195.259 26.5352 195.259 24.668ZM215.836 28.2422C215.836 29.8594 215.235 31.0977 214.032 31.957C212.836 32.8086 211.078 33.2344 208.758 33.2344C204.578 33.2344 202.145 31.7227 201.457 28.6992L204.797 28.1484C205.024 29.0234 205.465 29.6602 206.121 30.0586C206.778 30.4492 207.688 30.6445 208.852 30.6445C210.063 30.6445 210.969 30.4609 211.571 30.0938C212.172 29.7266 212.473 29.1758 212.473 28.4414C212.473 27.9727 212.336 27.5859 212.063 27.2812C211.789 26.9766 211.399 26.7227 210.891 26.5195C210.641 26.418 210.274 26.3086 209.789 26.1914C209.305 26.0664 208.703 25.9297 207.985 25.7812C207.157 25.5859 206.508 25.4219 206.039 25.2891C205.571 25.1484 205.196 25.0156 204.914 24.8906C204.633 24.7578 204.36 24.6133 204.094 24.457C203.508 24.1055 203.051 23.6367 202.723 23.0508C202.395 22.4648 202.231 21.7344 202.231 20.8594C202.231 19.3672 202.789 18.2266 203.907 17.4375C205.032 16.6406 206.664 16.2422 208.805 16.2422C210.852 16.2422 212.387 16.5625 213.41 17.2031C214.442 17.8438 215.106 18.9023 215.403 20.3789L212.051 20.8359C211.879 20.125 211.528 19.5898 210.996 19.2305C210.473 18.8711 209.719 18.6914 208.735 18.6914C207.688 18.6914 206.903 18.8555 206.379 19.1836C205.856 19.5117 205.594 20.0039 205.594 20.6602C205.594 21.0898 205.703 21.4414 205.922 21.7148C206.149 21.9883 206.481 22.2227 206.918 22.418C207.332 22.6055 208.219 22.8438 209.578 23.1328C210.367 23.3047 211.047 23.4688 211.617 23.625C212.188 23.7734 212.645 23.918 212.989 24.0586C213.332 24.207 213.637 24.3633 213.903 24.5273C214.176 24.6914 214.41 24.8672 214.606 25.0547C215.004 25.4375 215.309 25.8945 215.52 26.4258C215.731 26.9492 215.836 27.5547 215.836 28.2422ZM226.792 19.1602V33H223.335V19.1602H218.003V16.4883H232.136V19.1602H226.792Z" fill="#38DCC8"/>
<circle cx="22" cy="22" r="22" fill="white"/>
<g clip-path="url(#clip0_110_505)">
<path d="M44 21.9997C44 34.1502 34.1502 44 21.9997 44C21.8984 44 21.7976 43.9995 21.6963 43.9979C21.6219 43.9968 21.5475 43.9958 21.4731 43.9937C21.4594 43.9937 21.4457 43.9931 21.4319 43.9926C21.4008 43.9921 21.3692 43.991 21.338 43.99C21.2325 43.9873 21.1275 43.9831 21.0225 43.9784C20.9544 43.9757 20.8858 43.9726 20.8177 43.9683C20.6262 43.9588 20.4351 43.9462 20.2447 43.9309C20.2104 43.9282 20.1761 43.9256 20.1418 43.9224C20.0484 43.915 19.955 43.9066 19.8616 43.8971C19.8025 43.8918 19.7434 43.886 19.6843 43.8792C19.6821 43.8792 19.68 43.8792 19.6779 43.8786C19.6246 43.8734 19.5713 43.8675 19.5186 43.8612C19.3676 43.8449 19.2178 43.8264 19.0684 43.8063C19.0389 43.8026 19.0093 43.7984 18.9798 43.7942C18.9133 43.7852 18.8468 43.7757 18.7803 43.7657C18.7524 43.762 18.7254 43.7578 18.6975 43.7536C18.689 43.7525 18.6801 43.7515 18.6716 43.7499C18.6389 43.7451 18.6062 43.7398 18.574 43.7346C18.5049 43.724 18.4363 43.7129 18.3682 43.7013C18.3049 43.6913 18.2416 43.6802 18.1782 43.6691C18.0701 43.6501 17.9619 43.6306 17.8548 43.61C17.7867 43.5974 17.7186 43.5842 17.6511 43.5699C17.5334 43.5467 17.4163 43.5224 17.2996 43.4966C17.2099 43.4771 17.1208 43.457 17.0316 43.4364C17.0131 43.4322 16.9946 43.428 16.9762 43.4238C16.9482 43.4174 16.9202 43.4111 16.8928 43.4037C16.8785 43.4005 16.8648 43.3974 16.8506 43.3937C16.8052 43.3831 16.7598 43.3726 16.715 43.361C16.6348 43.3414 16.5556 43.3214 16.4759 43.3003C16.4675 43.2987 16.459 43.2966 16.4506 43.294C16.4247 43.2876 16.3989 43.2808 16.373 43.2734C16.363 43.2713 16.353 43.2686 16.3429 43.2655C16.2907 43.2523 16.2385 43.238 16.1868 43.2238C16.1572 43.2159 16.1282 43.2079 16.0992 43.1995C16.0343 43.1821 15.9699 43.1636 15.906 43.1451C15.8306 43.1235 15.7551 43.1013 15.6802 43.0787C15.6322 43.0644 15.5841 43.0502 15.5361 43.0349C15.4475 43.0079 15.3588 42.98 15.2707 42.9515C15.2074 42.9314 15.144 42.9109 15.0807 42.8897C14.9921 42.8607 14.9039 42.8306 14.8164 42.8006C14.791 42.7916 14.7657 42.7826 14.7409 42.7742C14.6433 42.7404 14.5467 42.7056 14.4501 42.6702C14.3309 42.627 14.2127 42.5821 14.0945 42.5362C14.0676 42.5267 14.0407 42.5161 14.0137 42.5056C13.9784 42.4919 13.9425 42.4776 13.9072 42.4634C13.8597 42.4449 13.8122 42.4259 13.7652 42.4069C13.7288 42.3921 13.6924 42.3774 13.656 42.3621C13.5103 42.303 13.3663 42.2417 13.2227 42.179C13.1557 42.1499 13.0887 42.1204 13.0222 42.0903C12.9552 42.0602 12.8887 42.0301 12.8222 41.9995C12.8148 41.9969 12.8075 41.9932 12.8001 41.9895C12.7647 41.9737 12.7299 41.9573 12.6951 41.941C12.6871 41.9378 12.6798 41.9341 12.6724 41.9304C12.6497 41.9199 12.6275 41.9093 12.6054 41.8988C12.4513 41.8259 12.2982 41.7515 12.1463 41.675C12.0808 41.6428 12.0165 41.6096 11.9515 41.5758C11.7843 41.4903 11.6186 41.4022 11.4539 41.312C11.4101 41.2882 11.3669 41.2645 11.3236 41.2402C11.255 41.2022 11.1864 41.1637 11.1178 41.1246C11.0719 41.0983 11.026 41.0719 10.9801 41.045C10.9727 41.0407 10.9648 41.0365 10.9574 41.0318C10.9241 41.0128 10.8909 40.9932 10.8577 40.9737C10.8154 40.9489 10.7732 40.9236 10.731 40.8983C10.692 40.875 10.6529 40.8518 10.6144 40.8281C10.607 40.8233 10.5996 40.8191 10.5922 40.8149C10.5685 40.8001 10.5447 40.7859 10.521 40.7711C10.4946 40.7547 10.4682 40.7389 10.4418 40.7225C10.4276 40.7136 10.4133 40.7046 10.3991 40.6962C10.3717 40.6787 10.3447 40.6619 10.3178 40.645C10.2614 40.6096 10.2054 40.5743 10.1495 40.5389C10.1173 40.5178 10.0857 40.4972 10.0535 40.4766C10.0392 40.4671 10.025 40.4582 10.0102 40.4487C9.99911 40.4418 9.98856 40.4344 9.978 40.4276C9.97589 40.426 9.97326 40.4244 9.97114 40.4228C9.96006 40.416 9.94898 40.4086 9.93843 40.4017C9.86983 40.3563 9.80176 40.3109 9.73369 40.2656C9.72366 40.2587 9.71311 40.2518 9.70308 40.245C9.69569 40.2397 9.68778 40.2344 9.68039 40.2297C9.64503 40.2059 9.61021 40.1822 9.57485 40.1574C9.53211 40.1284 9.48937 40.0988 9.44663 40.0693C9.41971 40.0503 9.3928 40.0318 9.36642 40.0123C9.31259 39.9748 9.25877 39.9368 9.20495 39.8983C9.20495 39.8983 9.20442 39.8983 9.20442 39.8978C9.19017 39.8883 9.17698 39.8782 9.16273 39.8682C9.16009 39.8661 9.15693 39.864 9.15429 39.8619C9.14637 39.8566 9.13846 39.8508 9.13054 39.8445C9.12738 39.8424 9.12421 39.8403 9.12104 39.8381C9.10996 39.8302 9.09941 39.8223 9.08833 39.8144L9.05825 39.7922C9.00337 39.7527 8.94849 39.712 8.89467 39.6719C8.89044 39.6688 8.88675 39.6661 8.88253 39.663C8.87989 39.6614 8.87778 39.6593 8.87514 39.6571C8.85298 39.6413 8.83134 39.625 8.80918 39.6081C8.80865 39.6081 8.80865 39.6081 8.80865 39.6081C8.78649 39.5912 8.76486 39.5748 8.74322 39.5585C8.69467 39.5221 8.64613 39.4851 8.59758 39.4477C8.56433 39.4218 8.53109 39.3965 8.49785 39.3701C8.48465 39.3601 8.47199 39.35 8.4588 39.34C8.4303 39.3178 8.40234 39.2957 8.37437 39.2735C8.3369 39.244 8.29996 39.2144 8.26303 39.1849C8.24086 39.1675 8.21817 39.1495 8.19601 39.131C8.15855 39.101 8.12108 39.0704 8.08414 39.0403C8.04245 39.0065 8.00077 38.9722 7.95961 38.9374C7.94008 38.9216 7.92109 38.9057 7.90156 38.8894C7.89365 38.883 7.88626 38.8767 7.87834 38.8698C7.8203 38.8213 7.76278 38.7727 7.70579 38.7237C7.69154 38.7115 7.67677 38.6994 7.66252 38.6867C7.61872 38.6493 7.57492 38.6113 7.53165 38.5733C7.5021 38.5474 7.47308 38.5221 7.44406 38.4962C7.38654 38.4456 7.32902 38.3944 7.27203 38.3432C7.26517 38.3363 7.25779 38.33 7.25093 38.3242C7.22243 38.2978 7.19341 38.272 7.16491 38.2456C7.13747 38.2208 7.11003 38.1955 7.08312 38.1707C7.07046 38.1585 7.05727 38.1469 7.0446 38.1348C6.99289 38.0868 6.94117 38.0387 6.88999 37.9902C6.8768 37.9781 6.86413 37.9654 6.85094 37.9533C6.84566 37.9485 6.84039 37.9432 6.83564 37.9385C6.83089 37.9343 6.82614 37.9295 6.82139 37.9253L6.81664 37.9205C6.80081 37.9058 6.78498 37.8905 6.76968 37.8752C6.76018 37.8662 6.75015 37.8572 6.74065 37.8472C6.70688 37.815 6.67311 37.7823 6.63987 37.7501C6.58974 37.701 6.53961 37.6519 6.49053 37.6029C6.48789 37.6002 6.48578 37.5981 6.48314 37.5955C6.44779 37.5607 6.41296 37.5253 6.37813 37.4899C6.3565 37.4683 6.33486 37.4467 6.31428 37.425C6.27471 37.3855 6.23566 37.3454 6.19714 37.3053C6.16495 37.2725 6.13382 37.2398 6.10215 37.2071C6.08632 37.1902 6.06997 37.1739 6.05414 37.157C6.0515 37.1543 6.04886 37.1517 6.04675 37.1491C6.03672 37.1385 6.02617 37.1279 6.01667 37.1169C6.00506 37.1053 5.99398 37.0931 5.9829 37.0815C5.9639 37.0615 5.9449 37.0414 5.92591 37.0208C5.92116 37.0161 5.91694 37.0113 5.91219 37.0061C5.90322 36.9966 5.89425 36.9871 5.8858 36.9776C5.85361 36.9433 5.82143 36.9084 5.78976 36.8736C5.75283 36.8335 5.71589 36.7934 5.67948 36.7528C5.67737 36.7501 5.67526 36.748 5.67262 36.7454L5.67209 36.7449C5.59294 36.6573 5.51484 36.5697 5.43727 36.4805C5.40244 36.4409 5.36762 36.4008 5.33332 36.3607C5.27791 36.2968 5.22303 36.2325 5.16868 36.1676C5.1196 36.11 5.07158 36.052 5.02357 35.994C4.96763 35.9264 4.9117 35.8578 4.85682 35.7892C4.80141 35.7206 4.74653 35.652 4.69218 35.5824C4.64944 35.5285 4.60722 35.4742 4.56501 35.4193C4.44522 35.2631 4.32702 35.1059 4.21093 34.9465C4.15974 34.8763 4.10909 34.8061 4.05896 34.7354C4.03046 34.6958 4.00302 34.6563 3.97505 34.6167C3.96608 34.604 3.95711 34.5914 3.94867 34.5787C3.91543 34.5312 3.88218 34.4837 3.84947 34.4357C3.77928 34.3339 3.71016 34.231 3.64208 34.1281C3.61465 34.0869 3.58773 34.0452 3.56082 34.0041C3.49644 33.9059 3.43365 33.8078 3.37138 33.7085C3.34236 33.6626 3.31386 33.6167 3.28537 33.5708C3.2516 33.5165 3.21783 33.4621 3.18511 33.4078C3.14078 33.3349 3.09646 33.2616 3.05372 33.1883C3.00886 33.1133 2.96454 33.0373 2.92127 32.9619C2.90333 32.9313 2.88591 32.9001 2.8685 32.8695C2.83948 32.8189 2.81098 32.7682 2.78301 32.7176C2.74291 32.6468 2.70386 32.5761 2.66534 32.5049C2.66059 32.4965 2.65637 32.4885 2.65267 32.4812C2.61099 32.4052 2.56983 32.3287 2.52972 32.2516C2.49279 32.182 2.45585 32.1118 2.41997 32.0411C2.41522 32.0321 2.41047 32.0231 2.40677 32.0147C2.37036 31.9445 2.33448 31.8738 2.29913 31.8025C2.25111 31.7065 2.20414 31.6099 2.15771 31.5134C2.12868 31.4527 2.09966 31.3915 2.07117 31.3303C2.0585 31.3044 2.04689 31.2791 2.03476 31.2532C2.00415 31.1867 1.97354 31.1203 1.94347 31.0538C1.90653 30.9725 1.87065 30.8912 1.83476 30.8094C1.80574 30.7435 1.77724 30.6775 1.74928 30.611C1.73767 30.5841 1.72659 30.5577 1.71551 30.5308C1.68543 30.4601 1.65588 30.3889 1.62633 30.3171C1.62211 30.3066 1.61788 30.296 1.61366 30.286C1.58411 30.2132 1.55456 30.1398 1.52607 30.0665C1.49282 29.9836 1.46063 29.8997 1.42897 29.8163C1.42581 29.809 1.42317 29.801 1.42 29.7931C1.39151 29.7171 1.36301 29.6406 1.33504 29.5641C1.31077 29.4987 1.28702 29.4327 1.26381 29.3668C1.23531 29.2865 1.20734 29.2063 1.1799 29.1261C1.16407 29.0797 1.14824 29.0333 1.13294 28.9868C1.09231 28.8655 1.05273 28.7441 1.01421 28.6217C0.998909 28.5742 0.984133 28.5267 0.969886 28.4792C0.949306 28.4132 0.929254 28.3478 0.90973 28.2818C0.888622 28.2101 0.867515 28.1378 0.846935 28.0655C0.837437 28.0328 0.827939 28 0.818968 27.9668C0.772004 27.8006 0.727151 27.6338 0.684408 27.4666C0.664884 27.389 0.645359 27.3114 0.626363 27.2338C0.604728 27.1452 0.58362 27.0571 0.563568 26.9684C0.544571 26.8872 0.526102 26.8054 0.508161 26.7236C0.50605 26.713 0.50394 26.7025 0.501301 26.6924C0.485471 26.6175 0.46964 26.5426 0.454337 26.4676C0.450116 26.4497 0.446422 26.4318 0.442728 26.4133C0.427953 26.3405 0.413705 26.2677 0.399458 26.1943C0.396292 26.1795 0.393653 26.1642 0.391015 26.1489C0.376767 26.0766 0.363048 26.0038 0.350383 25.9305C0.330859 25.8244 0.31239 25.7178 0.294976 25.6107C0.283367 25.5416 0.272286 25.4724 0.261732 25.4033C0.256455 25.3701 0.251178 25.3363 0.246429 25.3025C0.237458 25.2429 0.228488 25.1827 0.220045 25.1231C0.213185 25.0756 0.206853 25.0281 0.20052 24.9806C0.192078 24.921 0.184162 24.8614 0.176775 24.8017C0.167276 24.7284 0.158306 24.6545 0.149863 24.5806C0.146697 24.5543 0.14353 24.5279 0.140892 24.5015C0.132977 24.4318 0.125061 24.3622 0.118202 24.2925C0.108176 24.1986 0.0992049 24.1047 0.0907619 24.0102C0.0875958 23.9754 0.0844297 23.9406 0.0817912 23.9052C0.075459 23.8345 0.0696545 23.7638 0.0643776 23.6925C0.05699 23.5991 0.0506578 23.5063 0.0448533 23.4129C0.0406318 23.349 0.036938 23.2852 0.0337719 23.2213C0.0316611 23.186 0.0295504 23.1506 0.0279673 23.1158C0.026912 23.0942 0.0258566 23.073 0.0248012 23.0519C0.0216351 22.9849 0.018469 22.9174 0.0163582 22.8504C0.010026 22.6915 0.00580454 22.5327 0.00316611 22.3733C0.00263843 22.3601 0.00263843 22.3475 0.00263843 22.3348C0.00211074 22.3053 0.00158306 22.2757 0.00158306 22.2462C0.000527685 22.1644 0 22.0821 0 21.9997C0 18.5471 0.795222 15.2802 2.21311 12.3726H14.7557V12.3579H22.5306V12.3726H25.2682C25.5927 12.3726 25.8999 12.4623 26.1896 12.6418C26.4787 12.8217 26.731 13.056 26.9452 13.3457C27.1594 13.6354 27.3304 13.9599 27.4581 14.3187C27.5853 14.6781 27.6491 15.0375 27.6491 15.3963C27.6491 15.7672 27.5853 16.1234 27.4581 16.4654C27.3304 16.8068 27.1594 17.1139 26.9452 17.3862C26.731 17.6585 26.4787 17.8759 26.1896 18.0379C25.8999 18.2004 25.5927 18.2811 25.2682 18.2811H22.5306V18.3033H21.1322V23.043H25.5115C25.836 23.043 26.1458 23.1211 26.4413 23.2778C26.7368 23.434 26.9948 23.6488 27.2148 23.9205C27.4349 24.1928 27.6085 24.5115 27.7362 24.8767C27.8634 25.2413 27.9272 25.6381 27.9272 26.0666C27.9272 26.4724 27.8634 26.8634 27.7362 27.2402C27.6085 27.6164 27.4375 27.9468 27.2233 28.2306C27.0091 28.5145 26.7542 28.743 26.4587 28.9172C26.1632 29.0908 25.8476 29.1778 25.5115 29.1778H18.4384V18.3033L12.6687 20.9138V31.2954C12.6687 32.7561 13.8523 33.9397 15.3124 33.9397H25.8941C27.0175 33.9397 28.0665 33.7397 29.0396 33.3397C30.0126 32.9402 30.8559 32.3783 31.5683 31.6543C32.2806 30.9303 32.8426 30.0702 33.2537 29.0734C33.6647 28.0771 33.8711 26.9821 33.8711 25.789C33.8711 24.6186 33.6188 23.625 33.1149 22.8081C32.611 21.9918 31.9244 21.3053 31.0553 20.7491C31.878 20.2394 32.5123 19.5671 32.9587 18.7328C33.4041 17.8991 33.6273 16.8448 33.6273 15.5704C33.6273 14.4813 33.4278 13.4528 33.0278 12.4856C32.6284 11.5183 32.069 10.6724 31.3508 9.94793C30.6327 9.22447 29.7783 8.65088 28.7874 8.22767C27.7969 7.805 26.7046 7.59339 25.5115 7.59339L7.95169 7.57492L5.39083 7.57229C9.42446 2.93288 15.3694 0 21.9997 0C22.0821 0 22.1644 0.000527685 22.2462 0.00158306C22.2915 0.00158306 22.3364 0.00263843 22.3813 0.0036938C22.4409 0.00422148 22.5 0.00527685 22.5591 0.0073876C22.5628 0.00685991 22.5665 0.0073876 22.5707 0.0073876C22.6599 0.00949834 22.7485 0.0121368 22.8377 0.0158306C23.0345 0.0232182 23.2308 0.0332442 23.4261 0.0459086C23.5131 0.0511855 23.6002 0.05699 23.6873 0.0638499C23.6936 0.0643776 23.6999 0.0649053 23.7057 0.065433C23.7638 0.0696545 23.8218 0.0744037 23.8799 0.0796805C23.9237 0.0828466 23.9675 0.0865404 24.0107 0.0907619C24.0904 0.0981495 24.1696 0.105537 24.2493 0.113452C24.3337 0.122423 24.4181 0.131394 24.502 0.140892C24.6102 0.153029 24.7178 0.166221 24.8255 0.179941C24.9094 0.190494 24.9928 0.201576 25.0767 0.213713C25.1658 0.225849 25.2545 0.239042 25.3431 0.252234C25.3484 0.253289 25.3537 0.254344 25.3595 0.254872C25.4476 0.268592 25.5352 0.282312 25.6228 0.297087C25.7067 0.310807 25.7906 0.325054 25.8745 0.340357C25.8877 0.342468 25.9009 0.345106 25.9141 0.347217C25.998 0.361992 26.0814 0.377823 26.1642 0.393653C26.2545 0.411067 26.3442 0.428481 26.4333 0.44695C26.5157 0.463836 26.598 0.481249 26.6798 0.498663C26.6988 0.502884 26.7178 0.507106 26.7368 0.511327C26.8106 0.527685 26.884 0.544044 26.9573 0.56093C26.9653 0.562513 26.9732 0.564623 26.9811 0.566734C27.036 0.578871 27.0903 0.592063 27.1452 0.605255C27.189 0.615281 27.2323 0.625835 27.2755 0.636916C27.3499 0.654858 27.4238 0.673854 27.4982 0.692851C27.5784 0.713431 27.6581 0.734538 27.7383 0.756173C27.809 0.77517 27.8797 0.794694 27.951 0.814746C28 0.827938 28.0491 0.842186 28.0977 0.856434C28.2417 0.897593 28.3853 0.940863 28.5288 0.985189C28.5694 0.997853 28.6101 1.01052 28.6507 1.02371C28.6945 1.03743 28.7383 1.05115 28.7815 1.0654C28.799 1.07067 28.8164 1.07648 28.8343 1.08281C28.8887 1.10022 28.943 1.11817 28.9968 1.13663C29.0438 1.15194 29.0913 1.1683 29.1383 1.18465C29.142 1.18518 29.1457 1.18676 29.1499 1.18835C29.2153 1.21051 29.2813 1.23373 29.3467 1.25695C29.4142 1.28069 29.4818 1.30497 29.5488 1.32977C29.5915 1.34507 29.6348 1.3609 29.6776 1.37726C29.7092 1.38887 29.7414 1.401 29.7736 1.41314C29.8137 1.42844 29.8538 1.44375 29.8939 1.45905C29.9303 1.47277 29.9667 1.48702 30.0031 1.50127C30.0448 1.51762 30.086 1.53398 30.1271 1.55034C30.1472 1.55826 30.1672 1.56617 30.1868 1.57409C30.2411 1.59572 30.295 1.61736 30.3482 1.63952C30.4891 1.69704 30.629 1.75666 30.7683 1.81682C30.8073 1.83423 30.8464 1.85112 30.8849 1.86853C30.9155 1.88173 30.9461 1.89545 30.9767 1.90917C31.0258 1.93133 31.0754 1.95349 31.1245 1.97618C31.2121 2.01576 31.2997 2.05639 31.3867 2.09808C31.4775 2.14029 31.5683 2.18409 31.6585 2.22894C31.7107 2.25374 31.7624 2.27907 31.8136 2.30546C31.8574 2.32657 31.9018 2.34873 31.9456 2.37142C31.9941 2.39622 32.0421 2.42102 32.0901 2.44582C32.2796 2.54344 32.4669 2.6437 32.6532 2.74713C32.7144 2.78143 32.7761 2.81573 32.8368 2.85056C32.8986 2.88538 32.9598 2.92021 33.021 2.95609C33.0822 2.99145 33.1429 3.0268 33.2041 3.06321C33.3265 3.13551 33.4479 3.20938 33.5687 3.28431C33.6278 3.32072 33.6869 3.35766 33.7455 3.39513C33.8051 3.43259 33.8647 3.47059 33.9238 3.50911C33.9829 3.5471 34.042 3.58562 34.1011 3.62467C34.213 3.69855 34.3249 3.77348 34.4352 3.84947C34.4441 3.8558 34.4531 3.8616 34.4616 3.86741C34.5112 3.90171 34.5602 3.93601 34.6093 3.97031C34.66 4.00566 34.7106 4.04154 34.7608 4.0769C34.804 4.10803 34.8473 4.13864 34.89 4.1703C34.9164 4.18929 34.9423 4.20829 34.9687 4.22729C35.5861 4.67793 36.1786 5.16024 36.7443 5.67262C36.8836 5.79874 37.0214 5.92644 37.1575 6.05519C37.3617 6.24885 37.5617 6.44673 37.758 6.64831C37.8234 6.71585 37.8883 6.7834 37.9527 6.85094C38.0176 6.91901 38.0815 6.98761 38.1453 7.05621C38.4641 7.40079 38.7722 7.75487 39.0682 8.11897C39.1221 8.1844 39.1748 8.25036 39.2276 8.31685C39.4735 8.62607 39.7115 8.94216 39.941 9.26457C40.0434 9.4081 40.1437 9.55322 40.2429 9.69939C40.2434 9.70044 40.2439 9.70203 40.245 9.70308C40.2978 9.78118 40.3495 9.85927 40.4012 9.93843C40.6687 10.3447 40.9225 10.7606 41.1621 11.1853C41.1938 11.2408 41.2254 11.2967 41.256 11.3526C41.3647 11.5479 41.4697 11.7452 41.5716 11.9436C41.6064 12.0106 41.6407 12.0782 41.6745 12.1457C41.7109 12.2175 41.7468 12.2898 41.7816 12.3621C41.7879 12.3748 41.7943 12.3879 41.8006 12.4006C41.9251 12.6571 42.0449 12.9156 42.1589 13.1768C42.1969 13.2628 42.2338 13.3494 42.2708 13.4365C42.2713 13.437 42.2713 13.438 42.2718 13.4391C42.3088 13.5267 42.3457 13.6148 42.3816 13.7029C42.4175 13.7911 42.4528 13.8797 42.4877 13.9689C42.5204 14.0517 42.5526 14.1351 42.5837 14.2185C42.5879 14.2285 42.5916 14.238 42.5948 14.247C42.619 14.3114 42.6428 14.3763 42.6665 14.4406C42.6697 14.4486 42.6723 14.4565 42.675 14.4644C42.6892 14.5024 42.7029 14.5404 42.7161 14.5784C42.7499 14.6718 42.7826 14.7652 42.8143 14.8586C42.8328 14.9108 42.8507 14.963 42.8676 15.0158C42.8686 15.0174 42.8692 15.0185 42.8692 15.02C42.8766 15.0396 42.8829 15.0591 42.8882 15.0786C42.8934 15.0913 42.8977 15.1045 42.9008 15.1171C42.9188 15.1694 42.9357 15.2216 42.952 15.2739C42.9837 15.3699 43.0138 15.4665 43.0428 15.563C43.0507 15.5862 43.0575 15.61 43.0644 15.6337C43.0649 15.6343 43.0649 15.6348 43.0649 15.6353C43.0866 15.7055 43.1072 15.7762 43.1277 15.8475C43.1356 15.8723 43.1425 15.8976 43.1494 15.9229C43.1678 15.9857 43.1858 16.0485 43.2027 16.1118C43.2085 16.1313 43.2137 16.1509 43.219 16.1699C43.2407 16.2495 43.2623 16.3292 43.2829 16.4094C43.2882 16.4284 43.2934 16.4474 43.2976 16.4664C43.3114 16.5181 43.3246 16.5693 43.3372 16.621C43.3478 16.6606 43.3578 16.7007 43.3673 16.7403C43.3831 16.8052 43.3984 16.8701 43.4137 16.935C43.4211 16.9646 43.428 16.9936 43.4343 17.0231C43.4544 17.1091 43.4739 17.1952 43.4929 17.2817C43.4939 17.2875 43.495 17.2928 43.4966 17.2981C43.5156 17.3878 43.5346 17.4775 43.553 17.5677C43.5673 17.6368 43.5815 17.7065 43.5947 17.7761C43.6037 17.8226 43.6127 17.8695 43.6211 17.916C43.6232 17.9244 43.6248 17.9334 43.6259 17.9418C43.6391 18.0089 43.6512 18.0759 43.6628 18.1429C43.6765 18.2199 43.6897 18.2975 43.7024 18.3751C43.7029 18.3756 43.7029 18.3761 43.7029 18.3772C43.7129 18.4363 43.7224 18.4959 43.7314 18.5555C43.7414 18.6167 43.7509 18.678 43.7599 18.7397C43.7689 18.7983 43.7773 18.8574 43.7852 18.9165C43.8063 19.0642 43.8259 19.213 43.8433 19.3624C43.8522 19.4341 43.8602 19.5059 43.8681 19.5782C43.8707 19.6025 43.8734 19.6267 43.8755 19.6515C43.8839 19.7265 43.8918 19.8014 43.8987 19.8763C43.9071 19.9645 43.915 20.0531 43.9224 20.1418C43.9256 20.1761 43.9282 20.2104 43.9309 20.2447C43.9462 20.4362 43.9588 20.6288 43.9689 20.8219C43.9726 20.889 43.9757 20.9554 43.9784 21.0225C43.9831 21.1269 43.9873 21.232 43.99 21.337C43.991 21.3686 43.9921 21.4003 43.9926 21.4319C43.9931 21.4451 43.9937 21.4589 43.9937 21.4726C43.9958 21.547 43.9968 21.6219 43.9979 21.6963C43.9995 21.7976 44 21.8984 44 21.9997Z" fill="url(#paint0_linear_110_505)"/>
<path d="M43.9998 22C43.9998 34.1505 34.15 44.0002 21.9995 44.0002C15.5217 44.0002 9.69812 41.2003 5.67188 36.7451C9.57305 40.2706 14.7438 42.4172 20.4165 42.4172C32.5669 42.4172 42.4167 32.5674 42.4167 20.4169C42.4167 14.7453 40.2701 9.57403 36.7441 5.67285C41.1999 9.69804 43.9998 15.5221 43.9998 22Z" fill="url(#paint1_linear_110_505)"/>
<path d="M7.98863 38.5732C8.80285 39.3916 9.68092 40.1462 10.6144 40.8285C10.607 40.8237 10.5996 40.8195 10.5922 40.8153C10.5685 40.8005 10.5447 40.7863 10.521 40.7715C10.4946 40.7551 10.4682 40.7393 10.4418 40.7229C10.4276 40.714 10.4133 40.705 10.3991 40.6966C10.3717 40.6792 10.3447 40.6623 10.3178 40.6454C10.2614 40.61 10.2054 40.5747 10.1495 40.5393C10.1173 40.5182 10.0857 40.4976 10.0535 40.477C10.0392 40.4675 10.025 40.4586 10.0102 40.4491C9.997 40.4406 9.98434 40.4317 9.97114 40.4232C9.96006 40.4164 9.94898 40.409 9.93843 40.4021C9.86983 40.3567 9.80176 40.3114 9.73369 40.266C9.72366 40.2591 9.71311 40.2523 9.70308 40.2454C9.69569 40.2401 9.68778 40.2348 9.68039 40.2301C9.64503 40.2063 9.61021 40.1826 9.57485 40.1578C9.53211 40.1288 9.48937 40.0992 9.44663 40.0697C9.36589 40.0132 9.28515 39.9562 9.20495 39.8987C9.1907 39.8887 9.17698 39.8787 9.16273 39.8686C9.13793 39.8507 9.11313 39.8327 9.08833 39.8148C9.0192 39.7647 8.9506 39.714 8.88253 39.6634C8.87989 39.6618 8.87778 39.6597 8.87514 39.6576C8.83082 39.6254 8.78702 39.5921 8.74322 39.5589C8.69467 39.5225 8.64613 39.4855 8.59758 39.4481C8.56433 39.4222 8.53109 39.3969 8.49785 39.3705C8.48465 39.3605 8.47199 39.3504 8.4588 39.3404C8.4303 39.3183 8.40234 39.2961 8.37437 39.2739C8.3369 39.2444 8.29996 39.2148 8.26303 39.1853C8.24086 39.1679 8.21817 39.1499 8.19601 39.1314C8.15855 39.1014 8.12108 39.0708 8.08414 39.0407C8.04245 39.0069 8.00077 38.9726 7.95961 38.9378C7.94008 38.922 7.92109 38.9061 7.90156 38.8898C7.89365 38.8834 7.88626 38.8771 7.87834 38.8702C7.8203 38.8217 7.76278 38.7732 7.70579 38.7241C7.69154 38.7119 7.67677 38.6998 7.66252 38.6871C7.61872 38.6497 7.57492 38.6117 7.53165 38.5737C7.5021 38.5478 7.47308 38.5225 7.44406 38.4966C7.38654 38.446 7.32902 38.3948 7.27203 38.3436C7.26517 38.3368 7.25779 38.3304 7.25093 38.3246C7.22243 38.2982 7.19341 38.2724 7.16491 38.246C7.13747 38.2212 7.11003 38.1959 7.08312 38.1711C7.07046 38.1589 7.05727 38.1473 7.0446 38.1352C6.99289 38.0872 6.94117 38.0391 6.88999 37.9906C6.8768 37.9785 6.86413 37.9658 6.85094 37.9537C6.84039 37.9436 6.83036 37.9341 6.81981 37.9236C6.80292 37.9083 6.78603 37.8919 6.76968 37.8756C6.76018 37.8666 6.75015 37.8576 6.74065 37.8476C6.70688 37.8154 6.67311 37.7827 6.63987 37.7505C6.58974 37.7014 6.53961 37.6523 6.49053 37.6033C6.39185 37.5051 6.2937 37.4059 6.19714 37.3057C6.16495 37.2729 6.13382 37.2402 6.10215 37.2075C6.08632 37.1906 6.06997 37.1743 6.05414 37.1574C6.04622 37.1495 6.03883 37.141 6.03092 37.1331C5.99609 37.0962 5.96074 37.0587 5.92591 37.0212C5.92116 37.0165 5.91694 37.0117 5.91219 37.0065C5.90322 36.997 5.89425 36.9875 5.8858 36.978C5.85361 36.9437 5.82143 36.9088 5.78976 36.874C5.75283 36.8339 5.71589 36.7938 5.67948 36.7532C5.67737 36.7505 5.67526 36.7484 5.67262 36.7458C5.59347 36.6582 5.51484 36.5701 5.43727 36.4809C5.40244 36.4413 5.36762 36.4012 5.33332 36.3611C5.27791 36.2973 5.22303 36.2329 5.16868 36.168C5.1196 36.1105 5.07158 36.0524 5.02357 35.9944C4.96763 35.9268 4.9117 35.8582 4.85682 35.7896C4.80141 35.721 4.74653 35.6524 4.69218 35.5828C4.64944 35.5289 4.60722 35.4746 4.56501 35.4197C4.44522 35.2635 4.32702 35.1063 4.21093 34.9469C4.15974 34.8767 4.10909 34.8065 4.05896 34.7358C4.03046 34.6963 4.00302 34.6567 3.97505 34.6171C3.96608 34.6044 3.95711 34.5918 3.94867 34.5791C3.91543 34.5316 3.88218 34.4841 3.84947 34.4361C3.77928 34.3343 3.71016 34.2314 3.64208 34.1285C3.61465 34.0873 3.58773 34.0456 3.56082 34.0045C3.49644 33.9063 3.43365 33.8082 3.37138 33.709C3.34236 33.663 3.31386 33.6171 3.28537 33.5712C3.2516 33.5169 3.21783 33.4625 3.18511 33.4082C3.14078 33.3354 3.09646 33.262 3.05372 33.1887C3.00886 33.1137 2.96454 33.0377 2.92127 32.9623C2.90333 32.9317 2.88591 32.9005 2.8685 32.8699C2.83948 32.8193 2.81098 32.7686 2.78301 32.718C2.74291 32.6473 2.70386 32.5765 2.66534 32.5053C2.66059 32.4969 2.65637 32.4889 2.65267 32.4816C2.61099 32.4056 2.56983 32.3291 2.52972 32.252C2.49279 32.1824 2.45585 32.1122 2.41997 32.0415C2.41522 32.0325 2.41047 32.0235 2.40677 32.0151C2.37036 31.9449 2.33448 31.8742 2.29913 31.803C2.25111 31.7069 2.20414 31.6103 2.15771 31.5138C2.12868 31.4531 2.09966 31.3919 2.07117 31.3307C2.0585 31.3048 2.04689 31.2795 2.03476 31.2536C2.00415 31.1871 1.97354 31.1207 1.94347 31.0542C1.90653 30.9729 1.87065 30.8916 1.83476 30.8098C1.80574 30.7439 1.77724 30.6779 1.74928 30.6114C1.73767 30.5845 1.72659 30.5581 1.71551 30.5312C1.68543 30.4605 1.65588 30.3893 1.62633 30.3175C1.62211 30.307 1.61788 30.2964 1.61366 30.2864C1.58411 30.2136 1.55456 30.1402 1.52607 30.0669C1.49282 29.984 1.46063 29.9001 1.42897 29.8167C1.42581 29.8094 1.42317 29.8014 1.42 29.7935C1.39151 29.7175 1.36301 29.641 1.33504 29.5645C1.31077 29.4991 1.28702 29.4331 1.26381 29.3672C1.23531 29.287 1.20734 29.2067 1.1799 29.1265C1.16407 29.0801 1.14824 29.0337 1.13294 28.9872C1.09231 28.8659 1.05273 28.7445 1.01421 28.6221C0.998909 28.5746 0.984133 28.5271 0.969886 28.4796C0.949306 28.4136 0.929254 28.3482 0.90973 28.2822C0.888622 28.2105 0.867515 28.1382 0.846935 28.0659C0.837437 28.0332 0.827939 28.0005 0.818968 27.9672C0.772004 27.801 0.727151 27.6342 0.684408 27.467C0.664884 27.3894 0.645359 27.3118 0.626363 27.2343C0.604728 27.1456 0.58362 27.0575 0.563568 26.9688C0.544571 26.8876 0.526102 26.8058 0.508161 26.724C0.50605 26.7134 0.50394 26.7029 0.501301 26.6928C0.485471 26.6179 0.46964 26.543 0.454337 26.4681C0.450116 26.4501 0.446422 26.4322 0.442728 26.4137C0.427953 26.3409 0.413705 26.2681 0.399458 26.1947C0.396292 26.1799 0.393653 26.1646 0.391015 26.1493C0.376767 26.077 0.363048 26.0042 0.350383 25.9309C0.330859 25.8248 0.31239 25.7182 0.294976 25.6111C0.283367 25.542 0.272286 25.4728 0.261732 25.4037C0.256455 25.3705 0.251178 25.3367 0.246429 25.3029C0.237458 25.2433 0.228488 25.1831 0.220045 25.1235C0.213185 25.076 0.206853 25.0285 0.20052 24.981C0.192078 24.9214 0.184162 24.8618 0.176775 24.8022C0.167276 24.7288 0.158306 24.6549 0.149863 24.5811C0.146697 24.5547 0.14353 24.5283 0.140892 24.5019C0.132977 24.4322 0.125061 24.3626 0.118202 24.2929C0.108176 24.199 0.0992049 24.1051 0.0907619 24.0106C0.0875958 23.9758 0.0844297 23.941 0.0817912 23.9056C0.075459 23.8349 0.0696545 23.7642 0.0643776 23.693C0.05699 23.5996 0.0506578 23.5067 0.0448533 23.4133C0.0406318 23.3494 0.036938 23.2856 0.0337719 23.2217C0.0316611 23.1864 0.0295504 23.151 0.0279673 23.1162C0.026912 23.0946 0.0258566 23.0735 0.0248012 23.0523C0.0216351 22.9853 0.018469 22.9178 0.0163582 22.8508C0.010026 22.6919 0.00580454 22.5331 0.00316611 22.3737C0.00263843 22.3605 0.00263843 22.3479 0.00263843 22.3352C0.00211074 22.3057 0.00158306 22.2761 0.00158306 22.2466C0.000527685 22.1648 0 22.0825 0 22.0001C0 18.5475 0.795222 15.2806 2.21311 12.373H4.34655C2.58566 15.5365 1.58306 19.1791 1.58306 23.0555C1.58306 29.1112 4.02993 34.5955 7.98863 38.5732Z" fill="url(#paint2_linear_110_505)"/>
<path d="M34.9685 4.22729C31.6467 2.21417 27.7502 1.05537 23.5826 1.05537C17.4688 1.05537 11.9376 3.54921 7.95148 7.57493L5.39062 7.57229C9.42425 2.93288 15.3692 0 21.9995 0C22.0818 0 22.1642 0.000527686 22.246 0.00158306C22.2913 0.00158306 22.3362 0.00263843 22.381 0.0036938C22.4407 0.00422148 22.4998 0.00527686 22.5589 0.0073876C22.5626 0.00685991 22.5663 0.0073876 22.5705 0.0073876C22.6597 0.00949834 22.7483 0.0121368 22.8375 0.0158306C23.0343 0.0232182 23.2306 0.0332442 23.4259 0.0459086C23.5129 0.0511855 23.6 0.05699 23.6871 0.0638499C23.6934 0.0643776 23.6997 0.0649053 23.7055 0.065433C23.7636 0.0696545 23.8216 0.0744037 23.8797 0.0796805C23.9235 0.0828466 23.9673 0.0865404 24.0105 0.0907619C24.0902 0.0981495 24.1694 0.105537 24.249 0.113452C24.3335 0.122423 24.4179 0.131394 24.5018 0.140892C24.61 0.153029 24.7176 0.166221 24.8253 0.179941C24.9092 0.190494 24.9926 0.201576 25.0765 0.213713C25.1656 0.225849 25.2543 0.239042 25.3429 0.252234C25.3482 0.253289 25.3535 0.254344 25.3593 0.254872C25.4474 0.268592 25.535 0.282312 25.6226 0.297087C25.7065 0.310807 25.7904 0.325054 25.8743 0.340357C25.8875 0.342468 25.9007 0.345106 25.9139 0.347217C25.9978 0.361992 26.0812 0.377823 26.164 0.393653C26.2543 0.411067 26.344 0.428481 26.4331 0.44695C26.5155 0.463836 26.5978 0.481249 26.6796 0.498663C26.6986 0.502884 26.7176 0.507106 26.7366 0.511327C26.8104 0.527685 26.8838 0.544044 26.9571 0.56093C26.965 0.562513 26.973 0.564623 26.9809 0.566734C27.0358 0.578871 27.0901 0.592063 27.145 0.605255C27.1888 0.615281 27.2321 0.625835 27.2753 0.636916C27.3497 0.654858 27.4236 0.673854 27.498 0.692851C27.5782 0.713431 27.6579 0.734538 27.7381 0.756173C27.8088 0.77517 27.8795 0.794694 27.9508 0.814746C27.9998 0.827939 28.0489 0.842186 28.0975 0.856434C28.2415 0.897593 28.385 0.940863 28.5286 0.985189C28.5692 0.997853 28.6098 1.01052 28.6505 1.02371C28.6943 1.03743 28.7381 1.05115 28.7813 1.0654C28.7988 1.07067 28.8162 1.07648 28.8341 1.08281C28.8885 1.10022 28.9428 1.11817 28.9966 1.13663C29.0436 1.15194 29.0911 1.1683 29.1381 1.18465C29.1417 1.18518 29.1454 1.18676 29.1497 1.18835C29.2151 1.21051 29.2811 1.23373 29.3465 1.25695C29.414 1.28069 29.4816 1.30497 29.5486 1.32977C29.5913 1.34507 29.6346 1.3609 29.6773 1.37726C29.709 1.38887 29.7412 1.40101 29.7734 1.41314C29.8135 1.42844 29.8536 1.44375 29.8937 1.45905C29.9301 1.47277 29.9665 1.48702 30.0029 1.50127C30.0446 1.51762 30.0858 1.53398 30.1269 1.55034C30.147 1.55826 30.167 1.56617 30.1866 1.57409C30.2409 1.59572 30.2947 1.61736 30.348 1.63952C30.4889 1.69704 30.6288 1.75667 30.7681 1.81682C30.8071 1.83423 30.8462 1.85112 30.8847 1.86853C30.9153 1.88173 30.9459 1.89545 30.9765 1.90917C31.0256 1.93133 31.0752 1.95349 31.1243 1.97618C31.2119 2.01576 31.2995 2.05639 31.3865 2.09808C31.4773 2.14082 31.568 2.18409 31.6583 2.22894C31.7105 2.25374 31.7622 2.27907 31.8134 2.30546C31.8572 2.32657 31.9015 2.34873 31.9453 2.37142C31.9939 2.39622 32.0419 2.42102 32.0899 2.44582C32.2794 2.54344 32.4667 2.6437 32.653 2.74713C32.7142 2.78143 32.7759 2.81573 32.8366 2.85056C32.8983 2.88538 32.9596 2.92021 33.0208 2.95609C33.082 2.99145 33.1427 3.0268 33.2039 3.06321C33.3263 3.13551 33.4477 3.20938 33.5685 3.28431C33.6276 3.32072 33.6867 3.35766 33.7453 3.39513C33.8049 3.43259 33.8645 3.47059 33.9236 3.50911C33.9827 3.5471 34.0418 3.58562 34.1009 3.62467C34.2128 3.69855 34.3247 3.77348 34.435 3.84947C34.4439 3.8558 34.4529 3.8616 34.4613 3.86741C34.511 3.90171 34.56 3.93601 34.6091 3.97031C34.6598 4.00566 34.7104 4.04154 34.7605 4.0769C34.8038 4.10803 34.8471 4.13864 34.8898 4.1703C34.9162 4.1893 34.9421 4.20829 34.9685 4.22729Z" fill="url(#paint3_linear_110_505)"/>
</g>
<defs>
<linearGradient id="paint0_linear_110_505" x1="-1.07796" y1="2.33712" x2="34.2268" y2="32.4174" gradientUnits="userSpaceOnUse">
<stop stop-color="#38DCC8"/>
<stop offset="1" stop-color="#1AB5A2"/>
</linearGradient>
<linearGradient id="paint1_linear_110_505" x1="24.7276" y1="32.1208" x2="25.3609" y2="17.4511" gradientUnits="userSpaceOnUse">
<stop offset="0.00540541" stop-color="#38DCC8"/>
<stop offset="1" stop-color="#1AB5A2"/>
</linearGradient>
<linearGradient id="paint2_linear_110_505" x1="-11.668" y1="8.94968" x2="18.5398" y2="37.3155" gradientUnits="userSpaceOnUse">
<stop stop-color="#3FF5DF"/>
<stop offset="1" stop-color="#1AB5A2"/>
</linearGradient>
<linearGradient id="paint3_linear_110_505" x1="6.29906" y1="-7.13431" x2="29.0562" y2="14.2352" gradientUnits="userSpaceOnUse">
<stop stop-color="#52F4E0"/>
<stop offset="1" stop-color="#1AB5A2"/>
</linearGradient>
<clipPath id="clip0_110_505">
<rect width="44" height="44" fill="white"/>
</clipPath>
</defs>
</svg>
