<svg width="51" height="51" viewBox="0 0 51 51" fill="none" xmlns="http://www.w3.org/2000/svg">
<path d="M35.3722 30.6147C35.3643 29.9227 35.3014 29.2385 35.1913 28.5701C34.9868 27.2332 34.6093 25.9435 34.0903 24.7324C33.8701 24.2212 33.6263 23.7179 33.3511 23.2382C32.777 22.2002 32.085 21.225 31.2907 20.3443C30.9447 19.9511 30.5829 19.5814 30.1976 19.2197C29.3326 18.4176 28.3731 17.7098 27.3429 17.12C26.8711 16.8369 26.3835 16.5852 25.8802 16.365C24.6849 15.8224 23.4188 15.4214 22.0897 15.1933C21.437 15.0753 20.7765 14.9967 20.1001 14.9652C19.8249 14.9495 19.5497 14.9417 19.2666 14.9417C18.5509 14.9417 17.8432 14.9888 17.1511 15.0911H17.1275C16.9624 15.6258 16.8366 16.1763 16.7422 16.7425H16.7579C17.332 16.6324 17.9297 16.5616 18.5273 16.5381C18.7711 16.5223 19.0149 16.5145 19.2666 16.5145C19.7463 16.5145 20.226 16.5381 20.6978 16.5852C22.0897 16.7189 23.4266 17.0571 24.677 17.5682C25.1961 17.7727 25.6994 18.0086 26.1869 18.276C27.2328 18.8344 28.2001 19.5264 29.0809 20.3285C29.4662 20.6824 29.8359 21.0599 30.1819 21.4531C30.9683 22.3496 31.6446 23.3326 32.1872 24.4021C32.4546 24.8976 32.6826 25.4087 32.8792 25.9435C33.3668 27.2175 33.6735 28.5779 33.7679 29.9935C33.7993 30.3473 33.8151 30.7012 33.8151 31.063C33.8151 31.4562 33.7993 31.8415 33.7679 32.219C33.7286 32.6751 33.6735 33.1312 33.587 33.5795V33.5873C34.0038 33.5166 34.4206 33.4301 34.8217 33.3121C34.9632 33.2806 35.1048 33.2413 35.2385 33.202V33.1941C35.3407 32.4942 35.3879 31.7865 35.3879 31.063C35.3879 30.9136 35.3879 30.7641 35.3722 30.6147Z" fill="#38DCC8"/>
<path d="M34.9163 34.9165C33.1941 41.9469 26.8242 47.1844 19.2668 47.1844C10.3804 47.1844 3.14551 39.9494 3.14551 31.0631C3.14551 23.5057 8.38297 17.1358 15.4134 15.4136C15.3427 15.6652 15.2876 15.9247 15.2404 16.1764C15.2247 16.2629 15.209 16.3415 15.2011 16.4202C15.1539 16.6561 15.1146 16.892 15.091 17.1279C14.9888 17.8278 14.9416 18.5435 14.9416 19.267C14.9416 19.6366 14.9731 19.9983 14.9966 20.3601C14.9966 20.3994 14.9967 20.4308 15.0045 20.4702C15.1539 22.5384 15.7044 24.4966 16.5695 26.2738C16.5852 26.3368 16.6166 26.3918 16.6481 26.4469C17.4502 28.0433 18.4883 29.4902 19.7387 30.7249C19.7544 30.7406 19.7544 30.7485 19.7623 30.7642C19.778 30.78 19.8016 30.7878 19.8173 30.8035C21.0756 32.0225 22.5304 33.0291 24.119 33.7919C24.1897 33.8391 24.2605 33.8784 24.3392 33.902C26.14 34.7277 28.1139 35.231 30.1979 35.3411C30.2293 35.349 30.2687 35.3647 30.3001 35.3647C30.3237 35.3647 30.3394 35.3568 30.363 35.349C30.599 35.3647 30.827 35.3883 31.0629 35.3883C31.7864 35.3883 32.5021 35.3411 33.202 35.2389C33.4379 35.2153 33.6738 35.176 33.9097 35.1288C33.9884 35.1209 34.067 35.1052 34.1535 35.0895C34.4052 35.0423 34.6647 34.9872 34.9163 34.9165Z" fill="#38DCC8"/>
<path d="M47.1447 18.5669C47.1526 18.5119 47.1447 18.4568 47.1369 18.4018C47.0268 16.3178 46.5235 14.3439 45.6978 12.5431C45.6742 12.4644 45.6348 12.3936 45.5955 12.3307C44.8327 10.7422 43.8261 9.2952 42.615 8.04482C42.5914 8.02123 42.5836 7.98977 42.56 7.95831C42.5443 7.94259 42.5207 7.94259 42.5049 7.92686C41.2782 6.6922 39.8548 5.66201 38.2898 4.8756C38.2112 4.82055 38.1325 4.78123 38.046 4.75764C36.2687 3.90046 34.3263 3.35784 32.2659 3.20842C32.2266 3.20056 32.1952 3.20056 32.1558 3.20056C31.7941 3.17696 31.4323 3.14551 31.0627 3.14551C23.5054 3.14551 17.1355 8.38297 15.4133 15.4134C15.3503 15.6651 15.2953 15.9167 15.2402 16.1763C15.2245 16.2628 15.2088 16.3414 15.2009 16.42C15.1537 16.656 15.1223 16.8919 15.0908 17.1278C14.9886 17.8277 14.9414 18.5433 14.9414 19.2668C14.9414 19.6364 14.9729 19.9982 14.9965 20.3599C14.9965 20.3993 14.9965 20.4307 15.0043 20.47C15.1537 22.5383 15.7042 24.4964 16.5693 26.2737C16.585 26.3366 16.6165 26.3917 16.6479 26.4467C17.45 28.0431 18.4881 29.4901 19.7385 30.7248C19.7542 30.7405 19.7542 30.7484 19.7621 30.7641C19.7778 30.7798 19.8014 30.7877 19.8171 30.8034C21.0754 32.0223 22.5302 33.0289 24.1188 33.7918C24.1895 33.8389 24.2603 33.8783 24.339 33.9019C26.1398 34.7276 28.1137 35.2309 30.1977 35.341C30.2291 35.3488 30.3392 35.3567 30.3628 35.3488C30.5988 35.3646 30.8268 35.3882 31.0627 35.3882C31.7862 35.3882 32.5019 35.341 33.2018 35.2388C33.4377 35.2073 33.6736 35.1758 33.9095 35.1287C33.9882 35.1208 34.0668 35.1051 34.1533 35.0893C34.4128 35.0343 34.6645 34.9792 34.9161 34.9163C41.9466 33.1941 47.1841 26.8242 47.1841 19.2668C47.1841 19.0309 47.1605 18.8029 47.1447 18.5669ZM16.5535 18.5119C16.585 17.9142 16.6558 17.3244 16.758 16.7425C16.8524 16.1841 16.9861 15.6336 17.1512 15.091C18.8734 9.34239 24.0716 5.08007 30.3078 4.75764L16.5535 18.5119ZM16.585 20.6981L20.6979 16.5852L22.0898 15.1933L32.494 4.7891C33.8859 4.93065 35.215 5.2688 36.4653 5.7721L25.8803 16.365L24.6771 17.5682L17.568 24.6773C17.0647 23.4269 16.7265 22.09 16.585 20.6981ZM18.2679 26.1951L27.343 17.1199L37.9831 6.47201C39.029 7.03822 39.9884 7.74598 40.8614 8.54812L30.1977 19.2197L29.081 20.3285L20.344 29.0733C19.5497 28.2004 18.842 27.241 18.2679 26.1951ZM21.4686 30.1743L30.182 21.453L31.2908 20.3442L41.9623 9.66482C42.7487 10.5613 43.4329 11.5443 43.9834 12.6138L33.3512 23.2382L32.1873 24.4021L24.4019 32.1875C23.3402 31.637 22.3572 30.9607 21.4686 30.1743ZM35.2386 33.1941C35.097 33.2334 34.9633 33.2727 34.8218 33.3121C34.4128 33.4143 34.0039 33.5087 33.5871 33.5794C33.1388 33.6581 32.6906 33.7131 32.2345 33.7524L45.5483 20.4386C45.0686 26.486 40.8614 31.5033 35.2386 33.1941ZM35.1914 28.57L33.768 29.9934L30.0011 33.7603C28.5856 33.6581 27.2251 33.3514 25.9511 32.8717L44.6676 14.1552C45.1473 15.4292 45.454 16.7897 45.5562 18.2052L35.1914 28.57Z" fill="#38DCC8"/>
</svg>
