<svg width="42" height="42" viewBox="0 0 42 42" fill="none" xmlns="http://www.w3.org/2000/svg">
<g clip-path="url(#clip0_126_3560)">
<path fill-rule="evenodd" clip-rule="evenodd" d="M20.9975 39.1178C20.7908 39.1178 20.6195 39.0174 20.5191 38.8815L0.130422 11.3639C-0.00542365 11.1926 -0.0408617 10.9563 0.0595461 10.7496L3.67423 3.24857C3.77464 3.04185 3.98136 2.90601 4.21761 2.90601H37.7361C37.9783 2.90601 38.185 3.04185 38.2854 3.24857L41.9355 10.7496C42.0359 10.9563 42.0005 11.1926 41.8646 11.3639L21.5055 38.8815C21.3696 39.0174 21.1983 39.1178 20.9975 39.1178ZM1.3235 10.9209L20.9975 37.4817L40.6716 10.9209L37.364 4.09909H4.59562L1.3235 10.9209Z" fill="#38DCC8"/>
<path fill-rule="evenodd" clip-rule="evenodd" d="M41.3865 11.6001H0.638674C0.296106 11.6001 0.0244141 11.3284 0.0244141 10.9858C0.0244141 10.6492 0.296106 10.3716 0.638674 10.3716H41.3865C41.7291 10.3716 42.0008 10.6492 42.0008 10.9858C42.0008 11.3284 41.6937 11.6001 41.3865 11.6001Z" fill="#38DCC8"/>
<path fill-rule="evenodd" clip-rule="evenodd" d="M20.998 39.1178C20.7558 39.1178 20.5195 38.9465 20.4191 38.7103L10.969 11.1926C10.9395 11.0922 10.9395 10.9859 10.9395 10.85L12.6405 3.34899C12.7114 3.04186 13.0539 2.84105 13.3611 2.90602C13.6682 2.97689 13.869 3.31356 13.804 3.62069L12.1325 10.9564L20.9625 36.6667L29.763 10.9564L28.0915 3.62069C28.0206 3.31356 28.2273 2.97689 28.5344 2.90602C28.8416 2.84105 29.1782 3.04186 29.2491 3.34899L30.956 10.85C30.9856 10.9564 30.9856 11.0568 30.9206 11.1926L21.5059 38.7103C21.4764 38.9465 21.2696 39.1178 20.998 39.1178Z" fill="#38DCC8"/>
<path fill-rule="evenodd" clip-rule="evenodd" d="M30.4063 11.6001C30.2704 11.6001 30.1346 11.5706 30.0342 11.4642L20.9975 4.27031L11.9253 11.4642C11.6891 11.671 11.3465 11.6355 11.1398 11.4288L3.81 3.92775C3.57375 3.69149 3.57375 3.31349 3.81 3.07723C4.05216 2.84098 4.42426 2.84098 4.66052 3.07723L11.5827 10.1707L20.6195 3.00636C20.8262 2.84098 21.1333 2.84098 21.3696 3.00636L30.3708 10.1707L37.2931 3.07723C37.5352 2.84098 37.9073 2.84098 38.1495 3.07723C38.3857 3.31349 38.3857 3.69149 38.1495 3.92775L30.8197 11.4288C30.7488 11.5351 30.5775 11.6001 30.4063 11.6001Z" fill="#38DCC8"/>
</g>
<defs>
<clipPath id="clip0_126_3560">
<rect width="42" height="42" fill="white"/>
</clipPath>
</defs>
</svg>
