<svg width="51" height="51" viewBox="0 0 51 51" fill="none" xmlns="http://www.w3.org/2000/svg">
<path d="M25.1649 10.4854C17.0702 10.4854 10.4854 17.0702 10.4854 25.1649C10.4854 33.2597 17.0702 39.8445 25.1649 39.8445C33.2597 39.8445 39.8445 33.2597 39.8445 25.1649C39.8445 17.0702 33.2597 10.4854 25.1649 10.4854ZM25.1649 37.7474C18.2267 37.7474 12.5824 32.1031 12.5824 25.1649C12.5824 18.2267 18.2267 12.5824 25.1649 12.5824C32.1031 12.5824 37.7474 18.2267 37.7474 25.1649C37.7474 32.1031 32.1031 37.7474 25.1649 37.7474Z" fill="#38DCC8"/>
<path d="M30.7153 20.2294L23.0682 27.8764L19.6143 24.4235C19.2044 24.0135 18.5417 24.0135 18.1317 24.4235C17.7217 24.8335 17.7217 25.4972 18.1317 25.9062L22.3269 30.1003C22.5324 30.3048 22.8009 30.4076 23.0682 30.4076C23.3356 30.4076 23.6051 30.3048 23.8096 30.1003L32.1979 21.712C32.6079 21.302 32.6079 20.6393 32.1979 20.2294C31.7879 19.8194 31.1252 19.8194 30.7153 20.2294Z" fill="#38DCC8"/>
<path d="M45.9997 21.754C45.5677 21.4342 45.4335 20.8019 45.7197 20.3469C46.7441 18.7174 48.232 15.295 43.1088 14.0399C42.5867 13.912 42.1998 13.372 42.3109 12.8477C42.8027 10.5472 42.1138 7.20653 37.4834 8.0202C36.956 8.11247 36.395 7.74967 36.2912 7.22226C35.9442 5.45861 34.4489 1.88623 29.9853 4.61034C29.526 4.8903 28.7941 4.73826 28.5781 4.32933C27.8851 3.0197 24.8495 -9.91821e-05 21.7521 4.32933C21.4397 4.76657 20.7214 4.87877 20.345 4.60929C18.3129 3.15391 15.0299 2.79007 14.038 7.22016C13.9237 7.7287 13.3827 8.11876 12.8448 8.01705C11.0686 7.67942 7.17007 7.79057 8.02044 12.8445C8.10957 13.3741 7.75411 13.9581 7.22355 14.0378C5.15478 14.3471 1.96511 16.009 4.61058 20.3437C4.89054 20.8019 4.80981 21.5086 4.33062 21.7509C2.49463 22.6788 0.3923 25.9796 4.33062 28.58C4.77835 28.8757 4.89054 29.5122 4.61058 29.9704C1.96511 34.305 5.15478 35.9659 7.22355 36.2763C7.75516 36.356 8.10957 36.94 8.02044 37.4695C7.17007 42.5235 11.0686 42.6347 12.8469 42.296C13.3848 42.1932 13.9258 42.5843 14.0401 43.0929C15.032 47.524 18.315 47.1591 20.3471 45.7037C20.7235 45.4343 21.4418 45.5465 21.7542 45.9837C24.8516 50.3142 27.8872 47.2944 28.5802 45.9837C28.7962 45.5758 29.5281 45.4227 29.9874 45.7027C34.451 48.4268 35.9463 44.8544 36.2933 43.0908C36.3971 42.5634 36.9581 42.2006 37.4855 42.2928C42.1159 43.1065 42.8037 39.7658 42.313 37.4653C42.2008 36.9411 42.5888 36.4011 43.1109 36.2732C48.2352 35.0181 46.7473 31.5956 45.7218 29.9662C45.4356 29.5111 45.5593 28.8652 45.9997 28.5611C47.3691 27.6143 50.3302 24.9583 45.9997 21.754ZM44.5024 32.2017C44.8589 32.7752 44.6387 33.5637 43.8271 33.8311C42.3403 34.3218 39.6004 34.7255 40.3313 39.0654C40.4707 39.8906 40.0293 40.3845 39.0835 40.3121C37.6449 40.202 34.6828 39.6201 33.8513 43.809C33.6866 44.6363 32.8761 44.8156 32.2218 44.4853C29.3992 43.0604 28.2699 42.8779 26.0491 45.7132C25.6244 46.2553 24.7394 46.2322 24.2844 45.7132C23.0911 44.3532 21.7396 42.2624 18.1106 44.4864C17.4793 44.8733 16.76 44.5745 16.4811 43.8111C15.7566 41.8231 15.5427 39.704 11.2479 40.3153C10.5852 40.4097 9.88265 39.9609 10.0011 39.0686C10.2266 37.3615 10.4856 34.6207 6.5032 33.8342C5.88876 33.7126 5.40852 32.8927 5.82794 32.2048C7.41858 29.6034 7.19838 27.976 4.57703 26.0205C4.28134 25.8003 3.80006 24.8535 4.6001 24.281C7.1533 22.4544 7.41858 20.7107 5.82794 18.1082C5.40747 17.4204 5.88876 16.5994 6.5032 16.4788C10.4856 15.6924 10.2266 12.9515 10.0011 11.2445C9.88265 10.3522 10.5862 9.90338 11.2479 9.99775C15.5427 10.608 15.7566 8.48994 16.4811 6.50191C16.759 5.73752 17.4793 5.43974 18.1106 5.82665C21.7406 8.0506 23.0922 5.95981 24.2844 4.59985C24.7394 4.08083 25.6234 4.05776 26.0491 4.59985C28.2699 7.43511 29.3992 7.25266 32.2218 5.8277C32.8761 5.49741 33.6866 5.67671 33.8513 6.50401C34.6828 10.6929 37.6449 10.111 39.0835 10.0009C40.0303 9.92854 40.4707 10.4224 40.3313 11.2476C39.6004 15.5886 42.3403 15.9912 43.8271 16.4819C44.6387 16.7493 44.8589 17.5389 44.5024 18.1114C42.1704 21.8568 44.6345 23.3457 45.7302 24.2852C46.158 24.6522 46.4044 25.5193 45.8288 25.9681C44.5191 26.874 42.1704 28.4563 44.5024 32.2017Z" fill="#38DCC8"/>
</svg>
