<svg width="51" height="51" viewBox="0 0 51 51" fill="none" xmlns="http://www.w3.org/2000/svg">
<path d="M44.4774 9.62539C37.902 7.83952 31.2874 5.05773 25.3486 1.58172C25.0613 1.41319 24.7052 1.41319 24.4174 1.58172C21.1504 3.4938 17.7696 5.16752 14.3674 6.55656L14.3518 6.56292C14.3021 6.58349 14.2521 6.60376 14.2025 6.62418C13.73 6.81401 13.5015 7.35096 13.6915 7.8228C13.8819 8.29509 14.4184 8.52354 14.8903 8.33356C14.9441 8.3124 14.9975 8.2905 15.0505 8.2686L15.0648 8.26268C18.3855 6.90693 21.6857 5.28677 24.8833 3.4429C30.6333 6.75512 36.9806 9.43171 43.3143 11.216V20.6882C43.3143 30.4967 38.7555 36.9842 34.9311 40.6993C30.5846 44.9216 25.9215 46.7962 24.8827 46.7962C23.8443 46.7962 19.1814 44.9216 14.8348 40.6993C11.0103 36.9842 6.45153 30.4967 6.45153 20.6882V11.216C7.25554 10.9902 8.0566 10.7521 8.84063 10.5055C9.32609 10.3532 9.59582 9.83609 9.44342 9.35033C9.29073 8.86473 8.77361 8.59485 8.28801 8.7474C7.3057 9.0556 6.29677 9.35137 5.28857 9.62539C4.88715 9.73444 4.6084 10.0987 4.6084 10.5143V20.6882C4.6084 31.1408 9.47124 38.0583 13.5505 42.0211C17.9376 46.2827 23.0359 48.6397 24.8827 48.6397C26.7303 48.6397 31.8282 46.2827 36.2152 42.0211C40.2952 38.0583 45.1576 31.1408 45.1576 20.6882V10.5143C45.1576 10.0987 44.8789 9.73444 44.4774 9.62539Z" fill="#38DCC8"/>
<path d="M11.1325 9.69281C11.2312 9.69281 11.332 9.67668 11.4299 9.6431C11.4403 9.63984 11.4512 9.63614 11.4616 9.63185C11.9226 9.47043 12.1802 8.97239 12.0389 8.49878C11.8933 8.0114 11.3795 7.73397 10.8918 7.87957C10.8675 7.88682 10.8425 7.8954 10.8165 7.90546C10.3467 8.07665 10.0981 8.59332 10.2607 9.06886C10.3912 9.45149 10.7493 9.69281 11.1325 9.69281Z" fill="#38DCC8"/>
<path d="M35.5207 37.0922C35.689 37.2236 35.8887 37.2874 36.0868 37.2874C36.3612 37.2874 36.6321 37.1656 36.8141 36.9332L36.8363 36.9046C37.1446 36.4995 37.0666 35.9219 36.6614 35.6129C36.2566 35.3043 35.6782 35.3827 35.3697 35.7877L35.3611 35.7985C35.048 36.1997 35.1193 36.779 35.5207 37.0922Z" fill="#38DCC8"/>
<path d="M38.3478 34.7128C40.9091 30.5614 42.208 25.8428 42.208 20.6882V12.7358C42.208 12.3295 41.9422 11.9713 41.5536 11.8534C35.9412 10.1545 30.4837 7.83805 25.3316 4.96793C25.0527 4.81258 24.713 4.81272 24.4339 4.96867C19.2765 7.84989 13.8189 10.1666 8.2124 11.8552C7.82312 11.9725 7.55664 12.3308 7.55664 12.7374V20.6882C7.55664 24.3057 8.20589 27.7428 9.48574 30.9024C10.7788 34.0944 12.7164 37.004 15.2446 39.5493C17.0312 41.3487 19.0938 42.9341 21.2089 44.1336C21.5874 44.3487 23.5367 45.4318 24.706 45.6596C24.7645 45.6707 24.8235 45.6765 24.8826 45.6765C24.9416 45.6765 25.0005 45.6707 25.0585 45.6596C26.2285 45.4318 28.1772 44.3487 28.5557 44.1336C30.5913 42.979 32.5859 41.462 34.324 39.7454C34.6861 39.3878 34.6899 38.8044 34.3323 38.4423C33.9747 38.0801 33.3914 38.0764 33.0292 38.434C31.4042 40.0385 29.5431 41.4551 27.6464 42.5309C26.7365 43.0471 25.549 43.6206 24.8826 43.8078C24.2163 43.6206 23.0282 43.0464 22.1182 42.5309C20.147 41.4124 18.2223 39.9327 16.5523 38.2511C11.8732 33.5395 9.40022 27.4662 9.40022 20.6882V13.4195C14.7416 11.7616 19.9449 9.54595 24.8843 6.82675C29.8175 9.53559 35.0199 11.75 40.3652 13.4166V20.6882C40.3652 25.496 39.1586 29.8891 36.7797 33.745C36.5123 34.1783 36.6468 34.7463 37.0796 35.0135C37.5128 35.2804 38.0809 35.1458 38.3478 34.7128Z" fill="#38DCC8"/>
<path d="M24.8824 10.519C17.7684 10.519 11.9805 16.3065 11.9805 23.4211C11.9805 30.5349 17.7684 36.3226 24.8824 36.3226C31.9964 36.3226 37.7842 30.5349 37.7842 23.4211C37.7842 16.3065 31.9964 10.519 24.8824 10.519ZM17.8741 31.9695C17.925 29.4019 19.3668 27.0855 21.6209 25.9017C22.5313 26.5826 23.6605 26.9866 24.8824 26.9866C26.1039 26.9866 27.2335 26.5826 28.1434 25.9017C30.3974 27.0855 31.8399 29.4019 31.8905 31.9695C29.9814 33.5373 27.5399 34.4798 24.8824 34.4798C22.2246 34.4798 19.7834 33.5373 17.8741 31.9695ZM21.2711 20.5799C21.5227 20.6223 21.7775 20.6423 22.0336 20.6423C23.4346 20.6423 24.8646 20.0605 25.8913 19.4565C26.6459 20.0547 27.584 20.3773 28.4935 20.3687V21.5324C28.4935 22.5371 28.0807 23.4467 27.4164 24.1017C27.3826 24.1294 27.351 24.1596 27.3212 24.1927C26.6782 24.7822 25.8215 25.1438 24.8818 25.1438C23.9421 25.1438 23.0848 24.7821 22.4419 24.1915C22.4128 24.1596 22.3823 24.1304 22.3495 24.1031C21.6842 23.448 21.2711 22.5374 21.2711 21.532V20.5799ZM21.3161 18.6994C21.5885 16.9766 23.0837 15.6549 24.8824 15.6549C26.6169 15.6549 28.0691 16.8844 28.4149 18.5176C27.8403 18.5006 27.169 18.2399 26.706 17.6927C26.3959 17.3258 25.8558 17.2585 25.4655 17.5387C24.4798 18.2452 22.6123 19.0806 21.3161 18.6994ZM33.5457 30.2859C33.0428 27.8854 31.5616 25.7911 29.4427 24.5191C30.0073 23.6605 30.3366 22.6344 30.3366 21.5324V19.2768C30.3366 19.2741 30.3366 19.2711 30.3366 19.2683V19.2661C30.3366 16.259 27.8895 13.8119 24.8824 13.8119C21.8747 13.8119 19.4277 16.259 19.4277 19.2661V21.5324C19.4277 22.6344 19.7577 23.6605 20.3215 24.5191C18.2028 25.7911 16.7217 27.8852 16.2186 30.2859C14.7201 28.3986 13.8235 26.0123 13.8235 23.4211C13.8235 17.3236 18.7847 12.3622 24.8824 12.3622C30.9803 12.3622 35.941 17.3236 35.941 23.4211C35.941 26.0123 35.0447 28.3986 33.5457 30.2859Z" fill="#38DCC8"/>
</svg>
