<svg width="53" height="54" viewBox="0 0 53 54" fill="none" xmlns="http://www.w3.org/2000/svg">
<circle cx="26.4042" cy="27.2021" r="26.3896" fill="#38DCC8"/>
<g clip-path="url(#clip0_88_567)">
<path d="M32.8791 31.1788C32.8189 31.1342 32.7479 31.1064 32.6734 31.0982C32.5989 31.0901 32.5236 31.1017 32.4551 31.1321C32.3797 31.164 32.3152 31.217 32.2693 31.2847C32.2234 31.3525 32.1981 31.432 32.1964 31.5138V32.786H26.6836V33.6341H32.6205C32.7329 33.6341 32.8408 33.5894 32.9203 33.5099C32.9999 33.4304 33.0445 33.3225 33.0445 33.21V32.3619L35.7458 34.4822L33.0445 36.6025V35.7544C33.0445 35.6419 32.9999 35.5341 32.9203 35.4546C32.8408 35.375 32.7329 35.3304 32.6205 35.3304H27.9558V36.1785H32.1964V37.4507C32.1962 37.5301 32.2184 37.6081 32.2604 37.6755C32.3024 37.743 32.3625 37.7973 32.4339 37.8323C32.5024 37.8627 32.5777 37.8744 32.6522 37.8662C32.7267 37.858 32.7977 37.8302 32.8579 37.7857L36.6745 34.8172C36.7256 34.7776 36.7669 34.7268 36.7954 34.6687C36.8238 34.6107 36.8386 34.5469 36.8386 34.4822C36.8386 34.4176 36.8238 34.3538 36.7954 34.2957C36.7669 34.2376 36.7256 34.1869 36.6745 34.1472L32.8791 31.1788Z" fill="black"/>
<path d="M26.2588 35.3301H27.1069V36.1782H26.2588V35.3301Z" fill="black"/>
<path d="M20.3221 38.2986V39.1467L17.6208 37.0264L20.3221 34.9061V35.7542C20.3221 35.8667 20.3668 35.9746 20.4463 36.0541C20.5258 36.1336 20.6337 36.1783 20.7461 36.1783H25.4108V35.3302H21.1702V34.058C21.1704 33.9785 21.1482 33.9006 21.1062 33.8331C21.0642 33.7656 21.0041 33.7113 20.9327 33.6763C20.8615 33.6418 20.7821 33.6279 20.7034 33.6361C20.6248 33.6443 20.5499 33.6744 20.4875 33.723L16.6709 36.6914C16.6198 36.731 16.5785 36.7818 16.5501 36.8399C16.5216 36.898 16.5068 36.9618 16.5068 37.0264C16.5068 37.0911 16.5216 37.1549 16.5501 37.2129C16.5785 37.271 16.6198 37.3218 16.6709 37.3614L20.4875 40.3299C20.5499 40.3784 20.6248 40.4085 20.7034 40.4167C20.7821 40.425 20.8615 40.411 20.9327 40.3765C21.0041 40.3415 21.0642 40.2872 21.1062 40.2197C21.1482 40.1523 21.1704 40.0743 21.1702 39.9949V38.7227H26.683V37.8745H20.7461C20.6337 37.8745 20.5258 37.9192 20.4463 37.9987C20.3668 38.0783 20.3221 38.1861 20.3221 38.2986Z" fill="black"/>
<path d="M24.9577 24.0539C25.1227 24.17 25.2989 24.2694 25.4836 24.3507V24.444C25.4858 24.6334 25.5629 24.8141 25.6979 24.9468C25.833 25.0795 26.0151 25.1533 26.2045 25.1522H27.1628C27.3522 25.1533 27.5343 25.0795 27.6694 24.9468C27.8044 24.8141 27.8815 24.6334 27.8837 24.444V24.3507C28.0684 24.2694 28.2446 24.17 28.4096 24.0539L28.5198 24.1175C28.6842 24.2095 28.8778 24.2339 29.0599 24.1856C29.2419 24.1373 29.398 24.0201 29.4952 23.8588L29.9744 23.0658C30.024 22.9864 30.0565 22.8974 30.0696 22.8046C30.0828 22.7119 30.0763 22.6174 30.0507 22.5273C30.0246 22.4373 29.9807 22.3534 29.9217 22.2806C29.8627 22.2078 29.7898 22.1475 29.7072 22.1032L29.6182 22.0523C29.6182 21.9633 29.6182 21.87 29.6182 21.7767C29.6182 21.6834 29.6182 21.5901 29.6182 21.501L29.7072 21.4501C29.7898 21.4059 29.8627 21.3456 29.9217 21.2727C29.9807 21.1999 30.0246 21.1161 30.0507 21.0261C30.0763 20.936 30.0828 20.8415 30.0696 20.7487C30.0565 20.6559 30.024 20.567 29.9744 20.4875L29.4952 19.6945C29.3981 19.5331 29.2417 19.4161 29.0594 19.3685C28.8771 19.321 28.6834 19.3466 28.5198 19.4401L28.4096 19.4994C28.2446 19.3833 28.0684 19.2839 27.8837 19.2026V19.1093C27.8872 19.0127 27.871 18.9164 27.8363 18.8262C27.8016 18.736 27.7489 18.6538 27.6816 18.5845C27.6142 18.5152 27.5336 18.4602 27.4444 18.4228C27.3553 18.3855 27.2595 18.3666 27.1628 18.3672H26.2045C26.0151 18.3661 25.833 18.4399 25.6979 18.5726C25.5629 18.7053 25.4858 18.8861 25.4836 19.0754V19.1687C25.2989 19.25 25.1227 19.3494 24.9577 19.4655L24.8475 19.4019C24.6829 19.311 24.4896 19.2872 24.3078 19.3354C24.1261 19.3836 23.97 19.5001 23.8721 19.6606L23.3929 20.4536C23.3433 20.533 23.3108 20.622 23.2976 20.7148C23.2845 20.8075 23.291 20.902 23.3166 20.9921C23.3427 21.0821 23.3866 21.166 23.4456 21.2388C23.5046 21.3116 23.5775 21.3719 23.6601 21.4162L23.7491 21.4671V21.7427C23.7491 21.7427 23.7491 21.9293 23.7491 22.0184L23.6601 22.0693C23.5775 22.1135 23.5046 22.1738 23.4456 22.2467C23.3866 22.3195 23.3427 22.4033 23.3166 22.4933C23.291 22.5834 23.2845 22.6779 23.2976 22.7707C23.3108 22.8635 23.3433 22.9524 23.3929 23.0319L23.8721 23.88C23.9692 24.0415 24.1256 24.1585 24.3079 24.206C24.4902 24.2536 24.6839 24.2279 24.8475 24.1345L24.9577 24.0539ZM24.5337 23.3203L24.1986 22.7605L24.241 22.735C24.3666 22.6681 24.4688 22.5645 24.534 22.4379C24.5992 22.3114 24.6242 22.168 24.6057 22.0269C24.5924 21.9384 24.5853 21.8491 24.5845 21.7597C24.5845 21.6706 24.5845 21.5816 24.5845 21.4925C24.6046 21.3518 24.5808 21.2082 24.5162 21.0815C24.4517 20.9547 24.3497 20.851 24.2241 20.7844L24.1817 20.7589L24.5167 20.1992L24.593 20.2416C24.7196 20.3144 24.8649 20.348 25.0106 20.3382C25.1563 20.3284 25.2958 20.2756 25.4115 20.1864C25.5543 20.0815 25.7095 19.9946 25.8737 19.9278C26.0083 19.8767 26.1243 19.7862 26.2068 19.6682C26.2892 19.5502 26.3342 19.4101 26.3359 19.2662V19.2153H27.0399V19.2662C27.0416 19.4101 27.0866 19.5502 27.169 19.6682C27.2515 19.7862 27.3675 19.8767 27.5021 19.9278C27.6662 19.9946 27.8215 20.0815 27.9643 20.1864C28.0783 20.2702 28.2138 20.3199 28.3549 20.3297C28.4961 20.3394 28.6371 20.3089 28.7616 20.2416L28.8379 20.1992L29.1729 20.7589L29.1305 20.7844C29.0049 20.8513 28.9027 20.955 28.8375 21.0815C28.7724 21.208 28.7473 21.3514 28.7658 21.4925C28.7849 21.5806 28.7976 21.6699 28.804 21.7597V22.0269C28.7839 22.1676 28.8077 22.3112 28.8722 22.4379C28.9368 22.5647 29.0388 22.6684 29.1644 22.735L29.2068 22.7605L28.8718 23.3203L28.7955 23.2778C28.671 23.2105 28.53 23.18 28.3889 23.1897C28.2477 23.1995 28.1122 23.2492 27.9982 23.333C27.8554 23.4379 27.7002 23.5248 27.536 23.5917C27.4014 23.6427 27.2854 23.7332 27.2029 23.8512C27.1205 23.9692 27.0755 24.1093 27.0738 24.2532V24.3041H26.3317V24.2532C26.33 24.1093 26.285 23.9692 26.2025 23.8512C26.1201 23.7332 26.004 23.6427 25.8694 23.5917C25.7044 23.5239 25.5478 23.4371 25.403 23.333C25.2898 23.2491 25.1551 23.1993 25.0145 23.1895C24.874 23.1797 24.7336 23.2104 24.61 23.2778L24.5337 23.3203Z" fill="black"/>
<path d="M26.6829 23.1382C26.9555 23.1382 27.2219 23.0574 27.4486 22.906C27.6752 22.7545 27.8519 22.5393 27.9562 22.2875C28.0605 22.0356 28.0878 21.7585 28.0346 21.4912C27.9814 21.2238 27.8502 20.9782 27.6574 20.7855C27.4647 20.5928 27.2191 20.4615 26.9518 20.4083C26.6844 20.3551 26.4073 20.3824 26.1555 20.4867C25.9036 20.5911 25.6884 20.7677 25.537 20.9944C25.3855 21.221 25.3047 21.4875 25.3047 21.76C25.3058 22.1252 25.4514 22.4751 25.7096 22.7333C25.9678 22.9916 26.3177 23.1371 26.6829 23.1382ZM26.6829 21.23C26.7877 21.23 26.8902 21.2611 26.9774 21.3193C27.0646 21.3775 27.1325 21.4603 27.1726 21.5572C27.2127 21.654 27.2232 21.7606 27.2028 21.8635C27.1823 21.9663 27.1318 22.0607 27.0577 22.1349C26.9836 22.209 26.8891 22.2595 26.7863 22.2799C26.6835 22.3004 26.5769 22.2899 26.48 22.2498C26.3832 22.2096 26.3004 22.1417 26.2421 22.0545C26.1839 21.9674 26.1528 21.8649 26.1528 21.76C26.1528 21.6195 26.2087 21.4846 26.3081 21.3852C26.4075 21.2858 26.5423 21.23 26.6829 21.23Z" fill="black"/>
<path d="M33.0439 21.3359H34.3161V22.1841H33.0439V21.3359Z" fill="black"/>
<path d="M19.0498 21.3359H20.322V22.1841H19.0498V21.3359Z" fill="black"/>
<path d="M26.2588 14.127H27.1069V15.3991H26.2588V14.127Z" fill="black"/>
<path d="M26.6837 31.0897C27.3585 31.0897 28.0057 30.8216 28.4829 30.3445C28.96 29.8673 29.2281 29.2201 29.2281 28.5453V26.6455C30.323 26.0759 31.1951 25.1552 31.7047 24.0311C32.2143 22.9069 32.3319 21.6443 32.0387 20.4453C31.7455 19.2464 31.0584 18.1805 30.0875 17.4185C29.1166 16.6564 27.918 16.2422 26.6837 16.2422C25.4494 16.2422 24.2509 16.6564 23.28 17.4185C22.309 18.1805 21.622 19.2464 21.3287 20.4453C21.0355 21.6443 21.1531 22.9069 21.6627 24.0311C22.1723 25.1552 23.0444 26.0759 24.1393 26.6455V28.5453C24.1393 29.2201 24.4074 29.8673 24.8846 30.3445C25.3617 30.8216 26.0089 31.0897 26.6837 31.0897ZM26.6837 30.2416C26.3877 30.2398 26.0973 30.1606 25.8414 30.0118C25.5855 29.863 25.3729 29.6498 25.2249 29.3935H28.1425C27.9945 29.6498 27.782 29.863 27.526 30.0118C27.2701 30.1606 26.9797 30.2398 26.6837 30.2416ZM28.38 28.5453H24.9875V27.6972H28.38V28.5453ZM22.019 21.7603C22.0189 20.9229 22.2443 20.1008 22.6715 19.3805C23.0987 18.6601 23.7119 18.0681 24.4468 17.6665C25.1817 17.2649 26.0111 17.0685 26.8481 17.098C27.685 17.1275 28.4986 17.3818 29.2034 17.8342C29.9082 18.2866 30.4782 18.9203 30.8536 19.6689C31.2289 20.4176 31.3959 21.2535 31.3368 22.0888C31.2777 22.9242 30.9948 23.7283 30.5178 24.4167C30.0409 25.105 29.3873 25.6523 28.6259 26.001C28.5523 26.035 28.49 26.0895 28.4464 26.1579C28.4028 26.2263 28.3798 26.3057 28.38 26.3868V26.8491H24.9875V26.3826C24.9877 26.3015 24.9646 26.222 24.921 26.1536C24.8774 26.0852 24.8151 26.0308 24.7415 25.9967C23.93 25.6251 23.2421 25.0284 22.7595 24.2775C22.2769 23.5265 22.0199 22.6529 22.019 21.7603Z" fill="black"/>
<path d="M30.877 16.9648L31.7765 16.0653L32.3762 16.665L31.4767 17.5646L30.877 16.9648Z" fill="black"/>
<path d="M20.9834 26.8594L21.883 25.9598L22.4827 26.5595L21.5831 27.4591L20.9834 26.8594Z" fill="black"/>
<path d="M30.8779 26.5586L31.4776 25.9589L32.3772 26.8585L31.7775 27.4582L30.8779 26.5586Z" fill="black"/>
<path d="M20.9834 16.666L21.5831 16.0663L22.4827 16.9659L21.883 17.5656L20.9834 16.666Z" fill="black"/>
</g>
<defs>
<clipPath id="clip0_88_567">
<rect width="27.14" height="27.14" fill="white" transform="translate(13.1133 13.7031)"/>
</clipPath>
</defs>
</svg>
