<svg width="53" height="54" viewBox="0 0 53 54" fill="none" xmlns="http://www.w3.org/2000/svg">
<circle cx="26.5458" cy="27.2021" r="26.3896" fill="#38DCC8"/>
<g clip-path="url(#clip0_88_591)">
<path fill-rule="evenodd" clip-rule="evenodd" d="M16.1707 33.5638C16.2886 33.7662 16.2201 34.0258 16.0177 34.1437C15.9506 34.1828 15.8772 34.2014 15.8046 34.2014C15.6587 34.2014 15.5166 34.126 15.4378 33.9907C14.2736 31.9926 13.6582 29.7074 13.6582 27.3823C13.6582 23.8709 15.0256 20.5696 17.5086 18.0867C19.9915 15.6038 23.2927 14.2363 26.8041 14.2363C29.5994 14.2363 32.3251 15.1324 34.5682 16.7745L34.2941 15.8137C34.2299 15.5885 34.3604 15.3538 34.5856 15.2895C34.8108 15.2253 35.0455 15.3558 35.1098 15.581L35.7537 17.8379C35.7895 17.9633 35.7656 18.0982 35.6889 18.2036C35.6123 18.309 35.4914 18.3734 35.3611 18.3781L33.0156 18.4624C33.0104 18.4625 33.0053 18.4626 33.0001 18.4626C32.7729 18.4626 32.5848 18.2827 32.5766 18.0538C32.5682 17.8198 32.7511 17.6232 32.9852 17.6148L34.2168 17.5706C32.0906 15.9636 29.4817 15.0845 26.8041 15.0845C20.0231 15.0845 14.5063 20.6012 14.5063 27.3823C14.5063 29.5575 15.0818 31.6951 16.1707 33.5638ZM38.1704 20.7746C38.0525 20.5723 37.7929 20.5038 37.5905 20.6217C37.3882 20.7396 37.3197 20.9992 37.4376 21.2016C38.5264 23.0702 39.1019 25.2074 39.1019 27.3823C39.1019 34.1633 33.5851 39.6801 26.8041 39.6801C24.126 39.6801 21.5168 38.8009 19.3906 37.1939L20.6231 37.1497C20.8571 37.1413 21.0401 36.9447 21.0317 36.7107C21.0235 36.4819 20.8354 36.3018 20.6082 36.3018C20.603 36.3018 20.5979 36.3019 20.5927 36.3021L18.2471 36.3863C18.1168 36.391 17.996 36.4554 17.9193 36.5608C17.8427 36.6663 17.8188 36.8011 17.8545 36.9265L18.4985 39.1834C18.5517 39.3698 18.7215 39.4913 18.906 39.4913C18.9446 39.4913 18.9837 39.486 19.0226 39.4749C19.2478 39.4106 19.3783 39.1759 19.314 38.9507L19.0401 37.9908C21.2833 39.6324 24.0088 40.5282 26.8041 40.5282C30.3155 40.5282 33.6168 39.1608 36.0997 36.6778C38.5826 34.1949 39.9501 30.8937 39.9501 27.3823C39.9501 25.0576 39.3347 22.7727 38.1704 20.7746ZM35.0977 26.4293C36.7141 25.8411 37.3825 26.6639 37.5665 26.9712C38.0138 27.7179 37.7939 28.784 37.1054 29.2079L29.898 33.6459C29.3962 33.9548 28.8473 34.1112 28.2792 34.1112C27.9983 34.1112 27.7127 34.073 27.4258 33.9961L22.3678 32.6409L21.7814 32.9793L22.0842 33.5143C22.2166 33.7483 22.2499 34.0204 22.1778 34.2804C22.1057 34.5405 21.9371 34.7567 21.7032 34.8891L20.5889 35.5197C20.4358 35.6064 20.2665 35.6505 20.0948 35.6505C20.0041 35.6505 19.9127 35.6382 19.8228 35.6133C19.5627 35.5412 19.3465 35.3726 19.2142 35.1387L15.9381 29.3502C15.8057 29.1163 15.7724 28.8442 15.8445 28.5841C15.9166 28.324 16.0852 28.1078 16.3191 27.9755L17.4334 27.3448C17.6673 27.2124 17.9394 27.1792 18.1995 27.2513C18.4597 27.3234 18.6758 27.4919 18.8081 27.7259L19.0511 28.1552L21.9432 26.4807C22.4801 26.1698 23.0922 25.8759 23.7625 25.8343C23.623 25.3235 23.5522 24.7958 23.5522 24.2585C23.5522 20.9632 26.233 18.2823 29.5283 18.2823C32.8236 18.2823 35.5046 20.9631 35.5046 24.2584C35.5046 25.0093 35.3656 25.7428 35.0977 26.4293ZM24.4004 24.2584C24.4004 24.8393 24.4968 25.4066 24.6859 25.9481C24.6914 25.9498 24.6968 25.9513 24.7023 25.9531C24.8729 26.0084 25.0636 26.0753 25.266 26.1477C25.0042 25.5565 24.8648 24.9125 24.8648 24.2584C24.8648 21.6868 26.957 19.5947 29.5285 19.5947C32.1 19.5947 34.1922 21.6869 34.1922 24.2584C34.1922 25.6917 33.542 26.9759 32.5214 27.832L33.808 27.0827C34.3629 26.2438 34.6565 25.2696 34.6565 24.2585C34.6565 21.4308 32.3561 19.1304 29.5285 19.1304C26.7008 19.1304 24.4004 21.4308 24.4004 24.2584ZM28.7301 27.1941C28.7489 27.1975 28.7675 27.2021 28.7857 27.208C29.237 27.3543 29.5825 27.6744 29.7649 28.0659C31.759 27.9433 33.3441 26.2828 33.3441 24.2584C33.3441 22.1545 31.6324 20.4429 29.5285 20.4429C27.4246 20.4429 25.713 22.1545 25.713 24.2584C25.713 25.1018 25.9952 25.9247 26.5087 26.5895C27.2007 26.8252 27.9625 27.0556 28.7301 27.1941ZM29.7514 29.3879C29.8988 29.3406 30.0423 29.276 30.1839 29.1935L31.1483 28.6318C30.753 28.7787 30.3326 28.8735 29.8953 28.9077C29.8869 28.9705 29.8748 29.0332 29.8581 29.0958C29.8302 29.1996 29.7945 29.2971 29.7514 29.3879ZM21.3462 33.9321L18.0701 28.1436C18.0701 28.1436 18.0701 28.1435 18.0701 28.1435C18.0421 28.0939 17.9973 28.0752 17.973 28.0686C17.9623 28.0655 17.9468 28.0625 17.9286 28.0625C17.9058 28.0625 17.8787 28.0673 17.8512 28.0829L16.7369 28.7135C16.6611 28.7564 16.6333 28.8567 16.6761 28.9325L19.9522 34.721C19.9951 34.7968 20.0953 34.8245 20.1712 34.7817L21.2854 34.1511C21.3351 34.123 21.3538 34.0782 21.3605 34.054C21.3672 34.0297 21.3742 33.9817 21.3462 33.9321ZM34.5823 27.6132L30.6108 29.9264C29.9865 30.29 29.3157 30.408 28.56 30.2871C28.56 30.2871 28.0518 30.2042 28.049 30.2037C27.4296 30.077 26.8557 29.9131 26.248 29.7396C25.9722 29.6608 25.687 29.5794 25.3968 29.5016C25.1705 29.441 25.0363 29.2085 25.0969 28.9823C25.1576 28.756 25.3901 28.622 25.6163 28.6824C25.9132 28.762 26.2018 28.8444 26.481 28.9241C27.0662 29.0912 27.6194 29.2491 28.2 29.3687C28.6551 29.4207 28.9374 29.2555 29.0388 28.8764C29.1345 28.5197 28.9243 28.1572 28.5484 28.0231C27.3538 27.8041 26.205 27.3888 25.2805 27.0546C24.9589 26.9383 24.681 26.8378 24.4406 26.7599C23.7158 26.5247 23.0162 26.8395 22.3683 27.2147L19.4689 28.8933L21.3637 32.2413L22.0959 31.8186C22.1933 31.7623 22.3091 31.7471 22.4176 31.7762L27.6453 33.1769C28.2911 33.35 28.8993 33.2648 29.4534 32.9237L36.6607 28.4857C36.959 28.3021 37.0489 27.7577 36.8389 27.407C36.5309 26.8926 35.6872 26.9697 34.5823 27.6132ZM29.1045 26.9412C29.1045 27.1754 29.2943 27.3653 29.5285 27.3653C29.7627 27.3653 29.9526 27.1754 29.9526 26.9412V26.7303C30.39 26.6539 30.7718 26.4587 31.0129 26.1799C31.2471 25.9091 31.3471 25.5702 31.3021 25.1998C31.2121 24.4578 30.6397 23.9951 29.6011 23.8247C28.755 23.6857 28.7392 23.3624 28.7334 23.2406C28.7111 22.7828 29.2022 22.648 29.3009 22.6256C29.6969 22.536 30.1857 22.6584 30.3857 23.1346C30.4764 23.3506 30.7252 23.4522 30.9409 23.3615C31.1568 23.2708 31.2584 23.0223 31.1677 22.8063C30.9212 22.2191 30.4485 21.9057 29.9526 21.7967V21.5755C29.9526 21.3413 29.7627 21.1515 29.5285 21.1515C29.2943 21.1515 29.1045 21.3413 29.1045 21.5755V21.8005C28.341 21.9774 27.8517 22.5716 27.8863 23.2816C27.9113 23.797 28.2053 24.4548 29.4637 24.6615C30.2946 24.7979 30.4327 25.0754 30.4602 25.3019C30.4763 25.4338 30.4481 25.5365 30.3715 25.625C30.227 25.792 29.9065 25.9096 29.5738 25.9176C29.1902 25.9277 28.698 25.7695 28.5799 25.2962C28.5233 25.069 28.2932 24.931 28.0658 24.9873C27.8386 25.044 27.7003 25.2741 27.757 25.5014C27.9145 26.1331 28.4312 26.5869 29.1045 26.7234V26.9412H29.1045ZM17.688 28.8024C17.4706 28.8342 17.3201 29.0362 17.3519 29.2536C17.3837 29.471 17.5857 29.6215 17.8031 29.5897C18.0205 29.5579 18.171 29.3559 18.1392 29.1385C18.1075 28.9211 17.9054 28.7706 17.688 28.8024Z" fill="black"/>
</g>
<defs>
<clipPath id="clip0_88_591">
<rect width="27.14" height="27.14" fill="white" transform="translate(13.2549 13.8125)"/>
</clipPath>
</defs>
</svg>
