<svg width="54" height="54" viewBox="0 0 54 54" fill="none" xmlns="http://www.w3.org/2000/svg">
<circle cx="27.2626" cy="27.2021" r="26.3896" fill="#38DCC8"/>
<g clip-path="url(#clip0_88_555)">
<path d="M40.0387 34.0724H39.0819C38.8158 31.9168 37.4895 30.7798 36.4923 29.9262C35.6316 29.1894 35.1446 28.7383 35.1446 28.0378C35.1446 28.0367 35.1445 28.0355 35.1445 28.0344L35.1446 19.4237C35.1446 18.3401 34.7282 16.9628 34.0578 15.8294C33.2189 14.411 32.1391 13.6299 31.0173 13.6299C29.8951 13.6299 28.8151 14.4109 27.9761 15.8293C27.4401 16.7354 27.0671 17.7972 26.9388 18.7405H21.0871V14.4251C21.0871 13.9859 20.7311 13.6299 20.2919 13.6299H14.4857C14.0465 13.6299 13.6904 13.9859 13.6904 14.4251V39.9782C13.6904 40.4174 14.0465 40.7735 14.4857 40.7735H20.2919H40.0387C40.4779 40.7735 40.8339 40.4174 40.8339 39.9782V34.8676C40.8339 34.4284 40.4779 34.0724 40.0387 34.0724ZM35.458 31.1344C36.371 31.9158 37.2407 32.6605 37.4772 34.0724H35.1444L35.1444 30.8635C35.2494 30.9556 35.3545 31.0457 35.458 31.1344ZM21.0871 34.0724V20.331H26.8892L26.8894 28.0333C26.8893 28.0348 26.8891 28.0363 26.8891 28.0378C26.8891 28.7384 26.4022 29.1894 25.5415 29.9262C24.5444 30.7798 23.2182 31.9168 22.9521 34.0724H21.0871ZM19.4967 28.9617H15.2809V25.4416H19.4967V28.9617ZM19.4967 23.8511H15.2809V20.331H19.4967V23.8511ZM15.2809 30.5522H19.4967V34.0723H15.2809V30.5522ZM26.5759 31.1343C26.6794 31.0457 26.7846 30.9556 26.8895 30.8635L26.8895 34.0724H24.557C24.7934 32.6604 25.6631 31.9158 26.5759 31.1343ZM28.48 32.2557H33.554L33.5539 34.0724H28.48L28.48 32.2557ZM31.0173 15.2203C32.1935 15.2203 33.5542 17.764 33.5542 19.4237L33.554 30.6653H28.4799L28.4796 19.4237C28.4796 17.764 29.8407 15.2203 31.0173 15.2203ZM19.4967 15.2203V18.7405H15.2809V15.2203H19.4967ZM15.2809 35.6628H19.4967V39.183H15.2809V35.6628ZM39.2435 39.183H21.0871V35.6628H23.6989H27.6848H34.3491H38.3352H39.2435V39.183H39.2435Z" fill="black"/>
</g>
<defs>
<clipPath id="clip0_88_555">
<rect width="27.1436" height="27.1436" fill="white" transform="translate(13.6904 13.6299)"/>
</clipPath>
</defs>
</svg>
