<svg width="141" height="141" viewBox="0 0 141 141" fill="none" xmlns="http://www.w3.org/2000/svg">
<path d="M19.9642 36.1253C19.9642 35.0221 20.8585 34.1279 21.9616 34.1279H27.6402C28.7434 34.1279 29.6376 35.0221 29.6376 36.1253C29.6376 37.2284 28.7434 38.1227 27.6402 38.1227H21.9616C20.8585 38.1227 19.9642 37.2284 19.9642 36.1253ZM107.82 55.2144L112.738 58.0536C113.69 58.6009 114.906 58.2724 115.453 57.3203C116 56.3681 115.672 55.1522 114.72 54.6049L109.802 51.7658C108.85 51.2185 107.634 51.5469 107.087 52.4991C106.539 53.4513 106.868 54.6671 107.82 55.2144ZM26.3844 17.6456L31.302 20.4848C32.2542 21.0321 33.4701 20.7037 34.0173 19.7515C34.5646 18.7993 34.2362 17.5834 33.284 17.0361L28.3664 14.197C27.4142 13.6497 26.1984 13.9781 25.6511 14.9303C25.1038 15.8825 25.4322 17.0983 26.3844 17.6456ZM31.302 51.7661L26.3844 54.6052C25.4322 55.1525 25.1038 56.3681 25.6511 57.3205C26.1984 58.2727 27.4139 58.6012 28.3664 58.0539L33.284 55.2147C34.2362 54.6674 34.5646 53.4519 34.0173 52.4994C33.4701 51.5469 32.2545 51.2188 31.302 51.7661ZM109.802 20.4848L114.72 17.6456C115.672 17.0983 116 15.8828 115.453 14.9303C114.906 13.9781 113.69 13.6497 112.738 14.197L107.82 17.0361C106.868 17.5834 106.539 18.799 107.087 19.7515C107.634 20.7037 108.85 21.0321 109.802 20.4848ZM111.467 36.1253C111.467 37.2284 112.361 38.1227 113.464 38.1227H119.143C120.246 38.1227 121.14 37.2284 121.14 36.1253C121.14 35.0221 120.246 34.1279 119.143 34.1279H113.464C112.361 34.1279 111.467 35.0221 111.467 36.1253ZM89.5704 67.8351C88.5943 67.8488 87.589 67.7655 86.5555 67.5903C84.5438 67.2493 82.7054 68.0115 81.5241 69.6747C80.0052 71.8134 78.2047 73.4236 76.0763 74.4197L82.1846 91.4493L88.2205 84.1665L97.7047 85.0088L89.5707 67.8351H89.5704ZM59.5806 69.6747C58.399 68.0112 56.56 67.2499 54.5483 67.5906C53.5065 67.7669 52.4936 67.8503 51.5103 67.8349L43.3997 84.9586L52.8839 84.1162L58.9198 91.3993L65.0127 74.4129C62.8912 73.4159 61.0958 71.8085 59.5804 69.675L59.5806 69.6747ZM70.5524 71.596C67.1331 71.596 64.767 70.0782 62.8375 67.3615C60.7622 64.4396 57.4149 63.0531 53.8815 63.652C50.5958 64.2081 47.8502 63.6092 45.4322 61.1909C43.0148 58.7738 42.4144 56.0268 42.9714 52.7419C43.5701 49.2085 42.1836 45.8612 39.2617 43.7859C36.5449 41.8561 35.0272 39.4903 35.0272 36.0711C35.0272 32.6518 36.5449 30.286 39.2617 28.3563C42.1836 26.281 43.5701 22.9336 42.9714 19.4002C42.4153 16.1145 43.0142 13.3689 45.4325 10.9509C47.8499 8.5335 50.5969 7.93314 53.8818 8.49013C57.4152 9.08877 60.7625 7.70229 62.8378 4.78039C64.7673 2.06364 67.1334 0.545898 70.5526 0.545898C73.9719 0.545898 76.3377 2.06364 78.2674 4.78039C80.3427 7.70229 83.6901 9.08877 87.2235 8.48984C90.5092 7.93371 93.2548 8.53264 95.6728 10.9509C98.0902 13.3681 98.6906 16.1151 98.1336 19.3999C97.5349 22.9333 98.9214 26.2807 101.843 28.356C104.56 30.2855 106.078 32.6515 106.078 36.0708C106.078 39.49 104.56 41.8558 101.843 43.7856C98.9214 45.8606 97.5349 49.2083 98.1339 52.7417C98.69 56.0274 98.0911 58.7729 95.6728 61.1909C93.2554 63.6084 90.5084 64.2087 87.2235 63.6517C83.6901 63.0531 80.3427 64.4396 78.2674 67.3615C76.3377 70.0782 73.9719 71.596 70.5526 71.596H70.5524ZM70.5524 58.4385C82.872 58.4385 92.9201 48.3905 92.9201 36.0708C92.9201 23.7511 82.872 13.7031 70.5524 13.7031C58.2327 13.7031 48.1846 23.7511 48.1846 36.0708C48.1846 48.3905 58.2327 58.4385 70.5524 58.4385ZM83.7994 30.8131L75.2388 29.737L71.5699 21.9281C71.3801 21.5243 70.9983 21.2818 70.5521 21.2818C70.1058 21.2818 69.7243 21.5243 69.5342 21.9281L65.8656 29.737L57.305 30.8131C56.8625 30.8687 56.5138 31.1569 56.376 31.5812C56.2381 32.0055 56.3508 32.4435 56.6761 32.7488L62.9694 38.6511L61.3475 47.1252C61.2636 47.5635 61.4299 47.9841 61.7909 48.2464C62.1519 48.5086 62.6033 48.5368 62.9942 48.3217L70.5524 44.1605L78.1105 48.3217C78.5014 48.5368 78.9528 48.5086 79.3138 48.2464C79.6748 47.9841 79.8411 47.5635 79.7572 47.1252L78.1353 38.6511L84.4283 32.7488C84.7539 32.4438 84.8663 32.0055 84.7285 31.5812C84.5906 31.1569 84.242 30.8687 83.7994 30.8131ZM119.248 121.476L94.1468 128.202C92.0743 128.757 90.8328 130.907 91.3881 132.98L93.4154 140.546L126.054 131.8L124.027 124.235C123.471 122.162 121.321 120.92 119.248 121.476V121.476ZM138.8 34.9054C136.547 29.5287 130.484 31.2899 130.483 37.5066C130.483 48.3993 132.492 66.7708 126.579 77.789C123.516 83.408 118.395 89.1217 115.496 90.9693C114.245 91.7671 113.024 91.3154 112.461 90.4311C111.897 89.5472 112.226 88.226 113.11 87.6622C115.619 86.0631 120.135 80.9632 122.912 75.8681C123.976 73.9172 124.772 72.0168 125.053 70.4275C125.887 65.6993 119.628 63.6206 117.094 68.4198C101.15 96.0359 79.0327 85.3441 93.0308 124.33C93.0551 124.323 93.0793 124.316 93.1036 124.309L118.205 117.583C118.306 117.556 118.407 117.532 118.508 117.509C119.047 111.097 122.227 105.48 126.042 99.6997C128.977 95.2529 132.815 90.1404 135.615 85.033C139.527 77.8972 140.108 72.4745 140.403 64.3948C140.738 55.1962 140.375 38.6623 138.8 34.9054ZM24.0101 68.4201C21.476 63.6209 15.217 65.6999 16.0513 70.4278C16.3318 72.0174 17.1279 73.9178 18.1917 75.8684C20.9692 80.9635 25.4853 86.0631 27.9946 87.6625C28.8786 88.2263 29.2076 89.5474 28.6435 90.4314C28.0797 91.3157 26.8587 91.7674 25.608 90.9696C22.7086 89.122 17.5882 83.4083 14.5247 77.7893C8.61214 66.7708 10.6207 48.3996 10.6207 37.5069C10.6207 31.2904 4.55771 29.5293 2.30379 34.9057C0.729266 38.6626 0.365739 55.1965 0.701587 64.3951C0.996061 72.4748 1.57673 77.8975 5.48907 85.0333C8.28914 90.1404 12.1276 95.2532 15.062 99.6999C18.8768 105.48 22.0569 111.098 22.5956 117.509C22.6967 117.532 22.7977 117.556 22.899 117.584L48.0006 124.31C48.0251 124.316 48.0491 124.323 48.0733 124.33C62.0714 85.3443 39.9542 96.0359 24.0101 68.4201ZM46.9574 128.202L21.8558 121.476C19.783 120.92 17.6327 122.162 17.0774 124.235L15.05 131.8L47.6887 140.546L49.7161 132.98C50.2713 130.908 49.0298 128.757 46.9574 128.202V128.202Z" fill="url(#paint0_linear_88_1026)"/>
<defs>
<linearGradient id="paint0_linear_88_1026" x1="11.6907" y1="70.5459" x2="142.171" y2="70.5459" gradientUnits="userSpaceOnUse">
<stop stop-color="#38DCC8"/>
<stop offset="1" stop-color="#38DCC8"/>
</linearGradient>
</defs>
</svg>
