<svg width="140" height="140" viewBox="0 0 140 140" fill="none" xmlns="http://www.w3.org/2000/svg">
<path d="M92.8462 129.117L130.88 109.942C132.704 109.008 133.892 107.078 133.892 104.999C133.892 104.236 133.722 103.451 133.404 102.73C132.173 100.014 128.949 98.7842 126.234 99.9932L89.9401 116.114C88.3704 117.196 86.525 117.769 84.5735 117.769H58.1219C56.9765 117.769 56.0432 116.836 56.0432 115.69C56.0432 114.545 56.9765 113.611 58.1219 113.611H84.5522C85.3583 113.611 86.1219 113.442 86.8219 113.102C86.8432 113.102 86.8432 113.081 86.8644 113.081C87.1825 112.954 87.4371 112.784 87.7341 112.593C87.7977 112.551 87.8401 112.508 87.9038 112.487C88.1371 112.317 88.3492 112.148 88.5401 111.957C88.7947 111.681 89.028 111.405 89.2401 111.087C89.8553 110.154 90.1735 109.072 90.1735 107.948C90.1735 104.808 87.6492 102.284 84.5522 102.284H66.6916C65.6522 102.284 64.6341 102.221 63.5947 102.136C63.2977 102.114 62.9795 102.072 62.6825 102.051C61.7492 101.945 60.8371 101.817 59.925 101.627C59.6068 101.563 59.2886 101.478 58.9704 101.414C58.2492 101.245 57.5492 101.075 56.8492 100.863C56.4674 100.757 56.1068 100.651 55.725 100.524C54.8341 100.227 53.9432 99.9084 53.0735 99.5478C53.0098 99.5266 52.925 99.5054 52.8613 99.4629C52.2674 99.2084 51.6735 98.9326 51.0583 98.6357C51.0371 98.6357 51.0159 98.6145 51.0159 98.6145C50.3159 98.2751 49.6371 97.9145 48.9583 97.5326C45.2038 95.369 40.9825 94.0751 36.6553 93.6084V123.878L55.8098 131.09C67.7522 135.608 81.4341 134.866 92.8462 129.117Z" fill="url(#paint0_linear_88_389)"/>
<path d="M28.573 84.4873H9.99119C7.84877 84.4873 6.10938 86.2267 6.10938 88.3691V126.148C6.10938 128.29 7.84877 130.03 9.99119 130.03H28.573C30.7154 130.03 32.4548 128.29 32.4548 126.148V125.427C32.4548 125.405 32.4548 125.363 32.4548 125.342V91.2964C32.4548 91.2752 32.4548 91.2752 32.4548 91.254C32.4548 91.2328 32.4548 91.2328 32.4548 91.2115V88.3691C32.4548 86.2267 30.7154 84.4873 28.573 84.4873Z" fill="url(#paint1_linear_88_389)"/>
<path d="M87.3939 22.0391C72.609 22.0391 60.5605 34.0663 60.5605 48.8724C60.5605 63.6572 72.5878 75.6845 87.3939 75.6845C102.2 75.6845 114.206 63.6572 114.206 48.8724C114.227 34.0663 102.2 22.0391 87.3939 22.0391ZM104.045 49.4027L99.5696 53.7724C99.3999 53.9421 99.3151 54.1754 99.3575 54.4512L100.397 60.6027C100.715 62.4482 99.9727 64.2724 98.4666 65.3966C97.5969 66.033 96.5787 66.3512 95.5606 66.3512C94.7757 66.3512 94.0121 66.1603 93.2696 65.7785L87.7333 62.8724C87.5212 62.7663 87.2454 62.7663 87.0333 62.8724L81.4969 65.7785C79.8212 66.6482 77.8272 66.4997 76.3212 65.3966C74.7939 64.2936 74.0727 62.4482 74.3909 60.5815L75.4302 54.4512C75.4727 54.1966 75.409 53.9421 75.2181 53.7724L70.7424 49.4239C69.3848 48.0875 68.9181 46.1572 69.5121 44.3542C70.106 42.5724 71.6121 41.2997 73.4575 41.0239L79.6515 40.133C79.8636 40.0906 80.0969 39.9209 80.203 39.7088L82.9818 34.1088C83.809 32.4118 85.506 31.3512 87.3939 31.3512C89.2818 31.3512 90.9575 32.4118 91.806 34.1088L94.5636 39.6663C94.6696 39.8997 94.903 40.0694 95.1363 40.0906L101.309 40.9815C103.176 41.2572 104.682 42.53 105.254 44.3118C105.87 46.1572 105.403 48.0875 104.045 49.4027Z" fill="url(#paint2_linear_88_389)"/>
<path d="M87.4153 5.98145C63.7638 5.98145 44.5244 25.2421 44.5244 48.8724C44.5244 72.5027 63.7638 91.7421 87.4153 91.7421C111.046 91.7421 130.285 72.5027 130.285 48.8724C130.285 25.2421 111.046 5.98145 87.4153 5.98145ZM87.3941 79.842C70.3184 79.842 56.4032 65.9481 56.4032 48.8724C56.4032 31.7966 70.2971 17.8814 87.3941 17.8814C104.47 17.8814 118.385 31.7754 118.385 48.8724C118.385 65.9481 104.491 79.842 87.3941 79.842Z" fill="url(#paint3_linear_88_389)"/>
<path d="M100.716 45.1394L94.5429 44.2485C92.9307 44.0151 91.552 42.9969 90.8307 41.5333L88.0732 35.9757C87.8823 35.5939 87.5641 35.5303 87.3944 35.5303C87.2247 35.5303 86.9065 35.5939 86.7156 35.9545L83.9368 41.5333C83.2368 42.9757 81.858 43.9939 80.2459 44.2272L74.052 45.1182C73.6701 45.1818 73.5217 45.4575 73.458 45.6272C73.3944 45.7969 73.352 46.1363 73.6489 46.4333L78.1035 50.7818C79.2701 51.906 79.8004 53.5394 79.5247 55.1303L78.4853 61.2818C78.4217 61.6848 78.6338 61.9182 78.7823 62.0242C78.9307 62.1303 79.2065 62.2788 79.5883 62.0879L85.1247 59.1818C85.8459 58.8 86.6095 58.6091 87.3944 58.6091C88.1792 58.6091 88.9641 58.8 89.6853 59.1818L95.2004 62.0879C95.561 62.2788 95.858 62.1303 96.0065 62.0242C96.155 61.9182 96.3671 61.6848 96.3035 61.303L95.2641 55.1515C94.9883 53.5606 95.5186 51.9272 96.6853 50.803L101.14 46.4545C101.437 46.1575 101.373 45.8394 101.331 45.6697C101.267 45.4788 101.119 45.203 100.716 45.1394Z" fill="url(#paint4_linear_88_389)"/>
<defs>
<linearGradient id="paint0_linear_88_389" x1="44.3712" y1="113.815" x2="135.041" y2="113.815" gradientUnits="userSpaceOnUse">
<stop stop-color="#38DCC8"/>
<stop offset="1" stop-color="#38DCC8"/>
</linearGradient>
<linearGradient id="paint1_linear_88_389" x1="8.19995" y1="107.259" x2="32.7662" y2="107.259" gradientUnits="userSpaceOnUse">
<stop stop-color="#38DCC8"/>
<stop offset="1" stop-color="#38DCC8"/>
</linearGradient>
<linearGradient id="paint2_linear_88_389" x1="64.8174" y1="48.8618" x2="114.84" y2="48.8618" gradientUnits="userSpaceOnUse">
<stop stop-color="#38DCC8"/>
<stop offset="1" stop-color="#38DCC8"/>
</linearGradient>
<linearGradient id="paint3_linear_88_389" x1="51.3297" y1="48.8617" x2="131.298" y2="48.8617" gradientUnits="userSpaceOnUse">
<stop stop-color="#38DCC8"/>
<stop offset="1" stop-color="#38DCC8"/>
</linearGradient>
<linearGradient id="paint4_linear_88_389" x1="75.6304" y1="48.8551" x2="101.698" y2="48.8551" gradientUnits="userSpaceOnUse">
<stop stop-color="#38DCC8"/>
<stop offset="1" stop-color="#38DCC8"/>
</linearGradient>
</defs>
</svg>
