<svg width="167" height="153" viewBox="0 0 167 153" fill="none" xmlns="http://www.w3.org/2000/svg">
<g filter="url(#filter0_bii_88_631)">
<rect x="0.966797" width="165.608" height="152.359" rx="28.7053" fill="#1F2835" fill-opacity="0.8"/>
</g>
<path d="M83.9668 33.125C60.3243 33.125 41.0918 52.3575 41.0918 76C41.0918 99.6425 60.3243 118.875 83.9668 118.875C107.609 118.875 126.842 99.6425 126.842 76C126.842 52.3575 107.609 33.125 83.9668 33.125ZM83.9668 106.625C67.0924 106.625 53.3418 92.8744 53.3418 76C53.3418 59.1256 67.0924 45.375 83.9668 45.375C100.841 45.375 114.592 59.1256 114.592 76C114.592 92.8744 100.841 106.625 83.9668 106.625Z" fill="#38DCC8"/>
<path d="M83.9668 51.5C70.4612 51.5 59.4668 62.4944 59.4668 76C59.4668 89.5056 70.4612 100.5 83.9668 100.5C97.4724 100.5 108.467 89.5056 108.467 76C108.467 62.4944 97.4724 51.5 83.9668 51.5ZM96.9518 79.8894L93.4299 81.8187C91.8987 82.6456 90.643 83.9012 89.7855 85.4631L87.8562 88.985C87.0599 90.3937 85.5899 91.2819 83.9668 91.2819C82.3437 91.2819 80.8737 90.3937 80.0774 88.985L78.148 85.4631C77.2905 83.9012 76.0349 82.6456 74.5037 81.8187L70.9818 79.8894C69.5424 79.1238 68.6543 77.6231 68.6543 76C68.6543 74.3769 69.5424 72.8762 70.9818 72.1106L74.5037 70.1813C76.0349 69.3544 77.2905 68.0987 78.148 66.5369L80.0774 63.015C80.8737 61.6063 82.3437 60.7181 83.9668 60.7181C85.5899 60.7181 87.0599 61.6063 87.8562 63.015L89.7855 66.5369C90.643 68.0681 91.8987 69.3544 93.4299 70.1813L96.9518 72.1106C98.3912 72.8762 99.2793 74.3769 99.2793 76C99.2793 77.6231 98.3912 79.1238 96.9518 79.8894Z" fill="#38DCC8"/>
<defs>
<filter id="filter0_bii_88_631" x="-81.207" y="-82.1738" width="329.955" height="316.707" filterUnits="userSpaceOnUse" color-interpolation-filters="sRGB">
<feFlood flood-opacity="0" result="BackgroundImageFix"/>
<feGaussianBlur in="BackgroundImageFix" stdDeviation="41.0869"/>
<feComposite in2="SourceAlpha" operator="in" result="effect1_backgroundBlur_88_631"/>
<feBlend mode="normal" in="SourceGraphic" in2="effect1_backgroundBlur_88_631" result="shape"/>
<feColorMatrix in="SourceAlpha" type="matrix" values="0 0 0 0 0 0 0 0 0 0 0 0 0 0 0 0 0 0 127 0" result="hardAlpha"/>
<feOffset dx="-3.32688" dy="3.32688"/>
<feGaussianBlur stdDeviation="1.66344"/>
<feComposite in2="hardAlpha" operator="arithmetic" k2="-1" k3="1"/>
<feColorMatrix type="matrix" values="0 0 0 0 1 0 0 0 0 1 0 0 0 0 1 0 0 0 0.39 0"/>
<feBlend mode="normal" in2="shape" result="effect2_innerShadow_88_631"/>
<feColorMatrix in="SourceAlpha" type="matrix" values="0 0 0 0 0 0 0 0 0 0 0 0 0 0 0 0 0 0 127 0" result="hardAlpha"/>
<feOffset dx="2.21914" dy="-2.21914"/>
<feGaussianBlur stdDeviation="11.0405"/>
<feComposite in2="hardAlpha" operator="arithmetic" k2="-1" k3="1"/>
<feColorMatrix type="matrix" values="0 0 0 0 0.84 0 0 0 0 0.84 0 0 0 0 0.84 0 0 0 0.17 0"/>
<feBlend mode="normal" in2="effect2_innerShadow_88_631" result="effect3_innerShadow_88_631"/>
</filter>
</defs>
</svg>
