<svg width="20" height="21" viewBox="0 0 20 21" fill="none" xmlns="http://www.w3.org/2000/svg">
<g clip-path="url(#clip0_88_456)">
<g clip-path="url(#clip1_88_456)">
<g clip-path="url(#clip2_88_456)">
<mask id="mask0_88_456" style="mask-type:luminance" maskUnits="userSpaceOnUse" x="0" y="0" width="20" height="21">
<path d="M19.5695 0.786133H0.260742V20.0949H19.5695V0.786133Z" fill="white"/>
</mask>
<g mask="url(#mask0_88_456)">
<path d="M9.91514 20.0949C15.2471 20.0949 19.5695 15.7725 19.5695 10.4405C19.5695 5.10855 15.2471 0.786133 9.91514 0.786133C4.58316 0.786133 0.260742 5.10855 0.260742 10.4405C0.260742 15.7725 4.58316 20.0949 9.91514 20.0949Z" fill="#38DCC8"/>
<path fill-rule="evenodd" clip-rule="evenodd" d="M11.0753 11.2749V11.2736C11.0088 11.2784 10.6667 11.299 9.90341 11.299C9.29398 11.299 8.86496 11.2808 8.71411 11.2736V11.2754C6.36809 11.1722 4.61702 10.7638 4.61702 10.275C4.61702 9.78684 6.36809 9.37834 8.71411 9.27335V10.8687C8.86737 10.8796 9.30664 10.9056 9.91367 10.9056C10.642 10.9056 11.007 10.8754 11.0753 10.8694V9.27456C13.4165 9.37894 15.1632 9.78745 15.1632 10.275C15.1632 10.7638 13.4165 11.1711 11.0753 11.2749ZM11.0753 9.10862V7.68097H14.342V5.50391H5.44731V7.68097H8.71411V9.10802C6.05915 9.22991 4.0625 9.75607 4.0625 10.386C4.0625 11.0159 6.05915 11.5415 8.71411 11.664V16.239H11.0753V11.6628C13.726 11.5409 15.7178 11.0154 15.7178 10.386C15.7178 9.75667 13.726 9.23111 11.0753 9.10862Z" fill="white"/>
</g>
</g>
</g>
</g>
<defs>
<clipPath id="clip0_88_456">
<rect width="19.3088" height="19.3088" fill="white" transform="translate(0.260742 0.786133)"/>
</clipPath>
<clipPath id="clip1_88_456">
<rect width="19.3088" height="19.3088" fill="white" transform="translate(0.260742 0.786133)"/>
</clipPath>
<clipPath id="clip2_88_456">
<rect width="19.3088" height="19.3088" fill="white" transform="translate(0.260742 0.786133)"/>
</clipPath>
</defs>
</svg>
