<svg width="1023" height="730" viewBox="0 0 1023 730" fill="none" xmlns="http://www.w3.org/2000/svg">
<g opacity="0.47" filter="url(#filter0_f_88_841)">
<ellipse cx="482.649" cy="317.625" rx="183.841" ry="182.848" fill="url(#paint0_radial_88_841)"/>
</g>
<path d="M374.281 212.511C397.997 188.924 428.876 173.782 462.129 169.435L468.084 214.492C444.807 217.535 423.191 228.135 406.59 244.646L374.281 212.511Z" fill="url(#paint1_linear_88_841)"/>
<path d="M334.862 358.833C327.942 333.148 327.942 306.104 334.862 280.419C341.781 254.734 355.377 231.314 374.281 212.511L406.59 244.646C393.357 257.807 383.84 274.202 378.997 292.181C374.153 310.161 374.153 329.091 378.997 347.071L334.862 358.833Z" fill="url(#paint2_linear_88_841)"/>
<path d="M405.825 450.814C370.843 430.726 345.316 397.64 334.862 358.833L378.997 347.071C386.315 374.236 404.183 397.396 428.671 411.458L405.825 450.814Z" fill="#38DCC8"/>
<path d="M521.398 465.948C502.078 471.096 481.928 472.41 462.098 469.813C442.268 467.217 423.147 460.761 405.825 450.814L428.671 411.458C440.796 418.42 454.181 422.94 468.062 424.757C481.943 426.575 496.048 425.655 509.572 422.051L521.398 465.948Z" fill="url(#paint3_linear_88_841)"/>
<path d="M589.675 426.741C570.77 445.543 547.222 459.065 521.398 465.948L509.572 422.051C527.649 417.234 544.133 407.768 557.366 394.606L589.675 426.741Z" fill="url(#paint4_linear_88_841)"/>
<path d="M629.095 358.833C622.175 384.518 608.58 407.938 589.675 426.741L557.366 394.606C570.599 381.445 580.116 365.05 584.96 347.071L629.095 358.833Z" fill="#475900"/>
<path d="M442.558 173.304C468.383 166.422 495.574 166.422 521.398 173.304C547.222 180.186 570.77 193.708 589.675 212.511C608.58 231.314 622.175 254.734 629.095 280.419C636.014 306.104 636.014 333.148 629.095 358.833L584.96 347.071C589.804 329.091 589.804 310.161 584.96 292.181C580.116 274.202 570.599 257.807 557.366 244.646C544.133 231.484 527.649 222.018 509.572 217.201C491.495 212.383 472.461 212.383 454.384 217.201L442.558 173.304Z" fill="url(#paint5_linear_88_841)"/>
<path opacity="0.32" d="M413.242 204.789C410.615 209.314 412.13 214.926 416.685 217.542C421.241 220.158 426.884 218.657 429.512 214.131C432.139 209.606 430.623 203.995 426.068 201.379C421.7 198.439 415.869 200.263 413.242 204.789Z" stroke="url(#paint6_linear_88_841)" stroke-width="0.670953" stroke-miterlimit="10"/>
<path d="M418.751 207.916C417.812 209.532 418.353 211.536 419.98 212.47C421.607 213.405 423.623 212.869 424.561 211.252C425.499 209.636 424.958 207.632 423.331 206.698C421.771 205.648 419.689 206.299 418.751 207.916Z" fill="white"/>
<path d="M373.955 124.768L421.593 210.853" stroke="url(#paint7_linear_88_841)" stroke-width="1.34191" stroke-miterlimit="10"/>
<path d="M305.518 462.998L378.94 397.25" stroke="url(#paint8_linear_88_841)" stroke-width="1.34191" stroke-miterlimit="10"/>
<path opacity="0.32" d="M348.831 284.869C346.204 289.395 347.719 295.006 352.274 297.622C356.83 300.238 362.473 298.737 365.1 294.211C367.727 289.686 366.212 284.075 361.657 281.459C357.289 278.52 351.458 280.343 348.831 284.869Z" stroke="url(#paint9_linear_88_841)" stroke-width="0.670953" stroke-miterlimit="10"/>
<path d="M354.339 287.996C353.401 289.612 353.942 291.616 355.569 292.55C357.196 293.485 359.212 292.949 360.15 291.333C361.088 289.716 360.547 287.712 358.92 286.778C357.36 285.728 355.278 286.38 354.339 287.996Z" fill="white"/>
<path d="M288.072 290.934H357.18" stroke="url(#paint10_linear_88_841)" stroke-width="1.34191" stroke-miterlimit="10"/>
<path opacity="0.32" d="M369.073 398.156C368.086 393.023 371.37 388.218 376.537 387.235C381.703 386.253 386.538 389.513 387.525 394.646C388.512 399.779 385.228 404.584 380.061 405.566C374.965 406.916 370.059 403.288 369.073 398.156Z" stroke="url(#paint11_linear_88_841)" stroke-width="0.670953" stroke-miterlimit="10"/>
<path d="M375.309 396.998C374.956 395.164 376.129 393.448 377.974 393.097C379.82 392.746 381.546 393.911 381.899 395.744C382.251 397.577 381.078 399.293 379.233 399.644C377.413 400.126 375.661 398.831 375.309 396.998Z" fill="white"/>
<g filter="url(#filter1_d_88_841)">
<rect x="192.797" y="62.7031" width="221.415" height="62.7288" rx="31.3644" fill="#1F2835" fill-opacity="0.84" shape-rendering="crispEdges"/>
<rect x="193.468" y="63.3741" width="220.073" height="61.3869" rx="30.6934" stroke="url(#paint12_linear_88_841)" stroke-width="1.34191" shape-rendering="crispEdges"/>
</g>
<path d="M275.665 90.697C275.665 91.7742 275.417 92.7295 274.922 93.5629C274.434 94.3885 273.738 95.0372 272.834 95.509C271.93 95.9729 270.853 96.2048 269.602 96.2048H265.475V102.055H261.995V85.4368H269.461C271.45 85.4368 272.98 85.8968 274.049 86.8167C275.126 87.7288 275.665 89.0222 275.665 90.697ZM272.162 90.7559C272.162 89.0104 271.132 88.1377 269.072 88.1377H265.475V93.5276H269.166C270.125 93.5276 270.864 93.2917 271.383 92.8199C271.902 92.3403 272.162 91.6523 272.162 90.7559ZM281.491 95.792V102.055H278.177V92.2892C278.177 91.5894 278.165 91.0075 278.141 90.5436C278.126 90.0719 278.106 89.6552 278.082 89.2935H281.243C281.259 89.3642 281.275 89.5215 281.29 89.7652C281.306 90.009 281.322 90.2842 281.338 90.5908C281.353 90.8896 281.365 91.1727 281.373 91.44C281.389 91.7073 281.397 91.9 281.397 92.0179H281.444C281.758 91.1373 282.045 90.5043 282.305 90.1191C282.556 89.7495 282.855 89.4782 283.201 89.3053C283.547 89.1323 283.979 89.0458 284.498 89.0458C284.923 89.0458 285.265 89.1048 285.525 89.2227V91.9943C284.998 91.8764 284.526 91.8174 284.109 91.8174C283.284 91.8174 282.639 92.1516 282.175 92.8199C281.719 93.4882 281.491 94.4789 281.491 95.792ZM290.325 96.311C290.325 97.5533 290.553 98.4929 291.009 99.1298C291.473 99.7588 292.129 100.073 292.978 100.073C293.56 100.073 294.036 99.9475 294.405 99.6959C294.783 99.4364 295.046 99.0551 295.196 98.5518L298.321 98.8231C297.417 101.135 295.581 102.291 292.813 102.291C290.895 102.291 289.421 101.724 288.39 100.592C287.36 99.4521 286.845 97.7931 286.845 95.6151C286.845 93.5079 287.368 91.8882 288.414 90.7559C289.46 89.6237 290.942 89.0576 292.86 89.0576C294.692 89.0576 296.092 89.667 297.059 90.8857C298.026 92.0965 298.51 93.8735 298.51 96.2166V96.311H290.325ZM295.302 94.2352C295.239 93.2052 294.991 92.4346 294.559 91.9236C294.126 91.4046 293.545 91.1451 292.813 91.1451C292.035 91.1451 291.433 91.4164 291.009 91.9589C290.592 92.5015 290.372 93.2602 290.348 94.2352H295.302ZM311.79 98.3278C311.79 99.5622 311.283 100.533 310.269 101.241C309.262 101.941 307.866 102.291 306.082 102.291C304.328 102.291 302.984 102.015 302.048 101.465C301.12 100.907 300.503 100.042 300.196 98.8703L303.11 98.4339C303.275 99.0393 303.558 99.4678 303.959 99.7195C304.368 99.9711 305.075 100.097 306.082 100.097C307.009 100.097 307.686 99.9789 308.11 99.743C308.535 99.5072 308.747 99.1376 308.747 98.6344C308.747 98.2255 308.574 97.9032 308.228 97.6673C307.89 97.4235 307.312 97.2191 306.494 97.054C305.873 96.9282 305.315 96.8063 304.82 96.6884C304.332 96.5704 303.912 96.4564 303.558 96.3463C303.212 96.2284 302.929 96.1183 302.709 96.0161C302.056 95.6937 301.557 95.2809 301.211 94.7777C300.873 94.2745 300.704 93.6534 300.704 92.9143C300.704 91.6955 301.171 90.7481 302.107 90.0719C303.051 89.3878 304.383 89.0458 306.105 89.0458C307.623 89.0458 308.841 89.3407 309.761 89.9304C310.689 90.5201 311.267 91.3732 311.495 92.4897L308.558 92.7963C308.464 92.2774 308.232 91.8921 307.863 91.6405C307.493 91.381 306.907 91.2513 306.105 91.2513C305.319 91.2513 304.729 91.3535 304.336 91.5579C303.943 91.7545 303.746 92.0887 303.746 92.5604C303.746 92.93 303.896 93.2248 304.195 93.445C304.501 93.6573 305.012 93.8342 305.728 93.9757C306.726 94.1802 307.611 94.3925 308.381 94.6126C309.16 94.8249 309.785 95.0804 310.257 95.3792C310.721 95.678 311.09 96.0633 311.365 96.535C311.648 96.999 311.79 97.5965 311.79 98.3278ZM317.428 102.291C316.193 102.291 315.23 101.956 314.538 101.288C313.846 100.612 313.5 99.6644 313.5 98.4457C313.5 97.1248 313.929 96.1223 314.786 95.4382C315.651 94.7541 316.901 94.3964 318.536 94.3649L321.284 94.3178V93.6691C321.284 92.8356 321.139 92.2184 320.848 91.8174C320.557 91.4085 320.081 91.2041 319.421 91.2041C318.807 91.2041 318.355 91.3456 318.064 91.6287C317.781 91.9039 317.604 92.3639 317.534 93.0086L314.078 92.8435C314.51 90.3196 316.339 89.0576 319.562 89.0576C321.174 89.0576 322.416 89.4547 323.289 90.2488C324.162 91.0429 324.598 92.1712 324.598 93.6337V98.2806C324.598 98.9961 324.677 99.4914 324.834 99.7666C324.999 100.034 325.271 100.168 325.648 100.168C325.9 100.168 326.143 100.144 326.379 100.097V101.89C325.97 101.992 325.621 102.066 325.33 102.114C325.039 102.169 324.681 102.196 324.256 102.196C323.423 102.196 322.806 101.992 322.405 101.583C322.012 101.174 321.776 100.573 321.697 99.7784H321.626C321.162 100.612 320.581 101.241 319.881 101.665C319.181 102.082 318.363 102.291 317.428 102.291ZM321.284 96.1458L319.586 96.1694C318.807 96.2087 318.261 96.2913 317.946 96.4171C317.624 96.5586 317.376 96.7709 317.203 97.054C317.038 97.337 316.956 97.7145 316.956 98.1862C316.956 98.7917 317.093 99.2438 317.369 99.5425C317.652 99.8335 318.025 99.9789 318.489 99.9789C319.008 99.9789 319.484 99.8374 319.916 99.5543C320.341 99.2713 320.675 98.8821 320.919 98.3867C321.162 97.8835 321.284 97.3528 321.284 96.7945V96.1458ZM331.238 84.5522V102.055H327.924V84.5522H331.238ZM337.383 96.311C337.383 97.5533 337.611 98.4929 338.067 99.1298C338.531 99.7588 339.188 100.073 340.037 100.073C340.619 100.073 341.094 99.9475 341.464 99.6959C341.841 99.4364 342.105 99.0551 342.254 98.5518L345.38 98.8231C344.475 101.135 342.639 102.291 339.872 102.291C337.953 102.291 336.479 101.724 335.449 100.592C334.419 99.4521 333.904 97.7931 333.904 95.6151C333.904 93.5079 334.427 91.8882 335.473 90.7559C336.518 89.6237 338 89.0576 339.919 89.0576C341.751 89.0576 343.15 89.667 344.118 90.8857C345.085 92.0965 345.568 93.8735 345.568 96.2166V96.311H337.383ZM342.36 94.2352C342.297 93.2052 342.05 92.4346 341.617 91.9236C341.185 91.4046 340.603 91.1451 339.872 91.1451C339.093 91.1451 338.492 91.4164 338.067 91.9589C337.651 92.5015 337.43 93.2602 337.407 94.2352H342.36Z" fill="white"/>
<path opacity="0.32" d="M597.554 234.15C600.181 238.676 598.666 244.287 594.11 246.903C589.555 249.519 583.911 248.018 581.284 243.493C578.657 238.967 580.173 233.356 584.728 230.74C589.096 227.801 594.927 229.625 597.554 234.15Z" stroke="url(#paint13_linear_88_841)" stroke-width="0.670953" stroke-miterlimit="10"/>
<path d="M592.045 237.279C592.984 238.895 592.442 240.899 590.815 241.834C589.188 242.768 587.173 242.232 586.235 240.616C585.296 238.999 585.838 236.995 587.465 236.061C589.025 235.011 591.107 235.663 592.045 237.279Z" fill="white"/>
<path d="M636.842 154.129L589.204 240.214" stroke="url(#paint14_linear_88_841)" stroke-width="1.34191" stroke-miterlimit="10"/>
<g filter="url(#filter2_d_88_841)">
<rect width="221.415" height="62.7288" rx="31.3644" transform="matrix(-1 0 0 1 785.92 92.0684)" fill="#1F2835" fill-opacity="0.84" shape-rendering="crispEdges"/>
<rect x="-0.670953" y="0.670953" width="220.073" height="61.3869" rx="30.6934" transform="matrix(-1 0 0 1 784.578 92.0684)" stroke="url(#paint15_linear_88_841)" stroke-width="1.34191" shape-rendering="crispEdges"/>
</g>
<path d="M661.081 114.8L654.972 131.418H651.446L645.301 114.8H648.933L652.354 125.474C652.464 125.82 652.59 126.256 652.731 126.783C652.881 127.302 653.046 127.911 653.227 128.611C653.486 127.628 653.671 126.917 653.781 126.476C653.899 126.036 653.997 125.702 654.076 125.474L657.484 114.8H661.081ZM664.561 131.654C663.326 131.654 662.363 131.32 661.671 130.651C660.979 129.975 660.633 129.028 660.633 127.809C660.633 126.488 661.062 125.486 661.919 124.801C662.784 124.117 664.034 123.76 665.669 123.728L668.417 123.681V123.032C668.417 122.199 668.272 121.582 667.981 121.181C667.69 120.772 667.214 120.567 666.554 120.567C665.941 120.567 665.488 120.709 665.198 120.992C664.914 121.267 664.738 121.727 664.667 122.372L661.211 122.207C661.644 119.683 663.472 118.421 666.695 118.421C668.307 118.421 669.55 118.818 670.422 119.612C671.295 120.406 671.731 121.535 671.731 122.997V127.644C671.731 128.359 671.81 128.855 671.967 129.13C672.132 129.397 672.404 129.531 672.781 129.531C673.033 129.531 673.277 129.507 673.512 129.46V131.253C673.104 131.355 672.754 131.43 672.463 131.477C672.172 131.532 671.814 131.559 671.389 131.559C670.556 131.559 669.939 131.355 669.538 130.946C669.145 130.537 668.909 129.936 668.83 129.142H668.759C668.295 129.975 667.714 130.604 667.014 131.029C666.314 131.445 665.496 131.654 664.561 131.654ZM668.417 125.509L666.719 125.533C665.941 125.572 665.394 125.655 665.08 125.78C664.757 125.922 664.51 126.134 664.337 126.417C664.171 126.7 664.089 127.078 664.089 127.55C664.089 128.155 664.226 128.607 664.502 128.906C664.785 129.197 665.158 129.342 665.622 129.342C666.141 129.342 666.617 129.201 667.049 128.918C667.474 128.635 667.808 128.245 668.052 127.75C668.295 127.247 668.417 126.716 668.417 126.158V125.509ZM683.172 128.882C682.731 129.849 682.169 130.553 681.485 130.993C680.809 131.434 680.003 131.654 679.067 131.654C677.715 131.654 676.677 131.241 675.954 130.415C675.23 129.582 674.869 128.363 674.869 126.759V118.657H678.183V125.816C678.183 126.932 678.372 127.774 678.749 128.34C679.126 128.898 679.692 129.177 680.447 129.177C681.249 129.177 681.894 128.835 682.382 128.151C682.877 127.459 683.125 126.575 683.125 125.497V118.657H686.439V128.564C686.439 129.106 686.447 129.617 686.462 130.097C686.478 130.569 686.502 131.009 686.533 131.418H683.372C683.325 130.852 683.29 130.356 683.266 129.932C683.243 129.507 683.231 129.157 683.231 128.882H683.172ZM693.138 113.916V131.418H689.824V113.916H693.138ZM702.608 131.229C701.806 131.497 700.875 131.63 699.813 131.63C698.838 131.63 698.087 131.367 697.561 130.84C697.034 130.305 696.77 129.499 696.77 128.422V120.898H695.155V118.657H696.935L697.973 115.661H700.049V118.657H702.467V120.898H700.049V127.526C700.049 128.147 700.167 128.607 700.403 128.906C700.639 129.197 701.004 129.342 701.5 129.342C701.736 129.342 702.105 129.287 702.608 129.177V131.229Z" fill="white"/>
<g filter="url(#filter3_d_88_841)">
<rect x="68" y="256.23" width="221.415" height="62.7288" rx="31.3644" fill="#1F2835" fill-opacity="0.84" shape-rendering="crispEdges"/>
<rect x="68.671" y="256.901" width="220.073" height="61.3869" rx="30.6934" stroke="url(#paint16_linear_88_841)" stroke-width="1.34191" shape-rendering="crispEdges"/>
</g>
<path d="M154.069 257.969V263.189H130.266V257.969H138.983V233.967L130.541 239.237V233.717L139.357 227.998H146.001V257.969H154.069ZM181.867 245.581C181.867 251.525 180.843 256.03 178.795 259.093C176.764 262.157 173.708 263.689 169.629 263.689C165.599 263.689 162.577 262.182 160.562 259.168C158.548 256.138 157.54 251.609 157.54 245.581C157.54 239.404 158.498 234.841 160.413 231.894C162.344 228.947 165.483 227.473 169.829 227.473C173.991 227.473 177.039 228.98 178.97 231.994C180.902 235.008 181.867 239.537 181.867 245.581ZM174.824 245.581C174.824 242.417 174.682 239.92 174.399 238.088C174.116 236.24 173.608 234.924 172.876 234.142C172.143 233.359 171.111 232.968 169.779 232.968C168.363 232.968 167.273 233.368 166.507 234.167C165.758 234.949 165.241 236.265 164.958 238.113C164.692 239.945 164.559 242.434 164.559 245.581C164.559 248.728 164.7 251.226 164.983 253.074C165.283 254.906 165.799 256.213 166.532 256.995C167.281 257.778 168.33 258.169 169.679 258.169C171.677 258.169 173.034 257.203 173.75 255.272C174.466 253.34 174.824 250.11 174.824 245.581ZM194.181 227.598C200.042 227.598 202.973 231.328 202.973 238.787C202.973 242.417 202.215 245.198 200.7 247.13C199.201 249.044 196.986 250.002 194.056 250.002C191.159 250.002 188.969 249.053 187.487 247.155C186.005 245.24 185.264 242.451 185.264 238.787C185.264 235.008 185.98 232.202 187.412 230.37C188.844 228.522 191.1 227.598 194.181 227.598ZM220.831 227.998L197.777 263.189H192.632L215.611 227.998H220.831ZM197.553 238.787C197.553 236.157 197.295 234.283 196.778 233.168C196.279 232.035 195.413 231.469 194.181 231.469C192.849 231.469 191.925 232.035 191.408 233.168C190.892 234.283 190.634 236.157 190.634 238.787C190.634 241.402 190.901 243.275 191.433 244.407C191.983 245.539 192.882 246.106 194.131 246.106C195.363 246.106 196.237 245.539 196.753 244.407C197.286 243.275 197.553 241.402 197.553 238.787ZM228.124 252.4C228.124 256.03 227.375 258.802 225.876 260.717C224.377 262.632 222.179 263.589 219.282 263.589C216.352 263.589 214.145 262.64 212.663 260.742C211.181 258.844 210.44 256.063 210.44 252.4C210.44 248.67 211.156 245.872 212.588 244.008C214.02 242.126 216.285 241.185 219.382 241.185C222.379 241.185 224.586 242.134 226.001 244.032C227.416 245.914 228.124 248.703 228.124 252.4ZM222.754 252.4C222.754 249.735 222.496 247.846 221.98 246.73C221.48 245.598 220.614 245.032 219.382 245.032C218.05 245.032 217.126 245.614 216.61 246.78C216.11 247.929 215.86 249.802 215.86 252.4C215.86 255.08 216.127 256.962 216.66 258.044C217.209 259.127 218.1 259.668 219.332 259.668C220.548 259.668 221.422 259.102 221.955 257.969C222.487 256.837 222.754 254.981 222.754 252.4Z" fill="#38DCC8"/>
<path d="M145.022 290.794C145.022 292.421 144.417 293.667 143.206 294.532C142.003 295.389 140.234 295.818 137.899 295.818C133.692 295.818 131.243 294.296 130.551 291.254L133.912 290.699C134.14 291.58 134.584 292.221 135.245 292.622C135.905 293.015 136.821 293.211 137.993 293.211C139.212 293.211 140.124 293.027 140.729 292.657C141.335 292.288 141.637 291.733 141.637 290.994C141.637 290.522 141.5 290.133 141.224 289.827C140.949 289.52 140.556 289.264 140.045 289.06C139.793 288.958 139.424 288.848 138.936 288.73C138.449 288.604 137.843 288.466 137.12 288.317C136.287 288.12 135.634 287.955 135.162 287.822C134.691 287.68 134.313 287.546 134.03 287.421C133.747 287.287 133.472 287.141 133.204 286.984C132.615 286.63 132.155 286.159 131.825 285.569C131.494 284.979 131.329 284.244 131.329 283.363C131.329 281.862 131.891 280.714 133.016 279.919C134.148 279.117 135.791 278.716 137.946 278.716C140.006 278.716 141.551 279.039 142.581 279.684C143.619 280.328 144.287 281.394 144.586 282.88L141.213 283.34C141.04 282.624 140.686 282.086 140.151 281.724C139.624 281.362 138.866 281.181 137.875 281.181C136.821 281.181 136.031 281.347 135.504 281.677C134.978 282.007 134.714 282.502 134.714 283.163C134.714 283.595 134.824 283.949 135.044 284.224C135.272 284.5 135.607 284.735 136.047 284.932C136.464 285.121 137.356 285.36 138.724 285.651C139.518 285.824 140.202 285.989 140.776 286.147C141.35 286.296 141.81 286.442 142.156 286.583C142.502 286.733 142.809 286.89 143.076 287.055C143.351 287.22 143.587 287.397 143.784 287.586C144.185 287.971 144.491 288.431 144.704 288.966C144.916 289.492 145.022 290.102 145.022 290.794ZM153.714 295.393C152.912 295.661 151.981 295.794 150.919 295.794C149.944 295.794 149.193 295.531 148.667 295.004C148.14 294.469 147.876 293.664 147.876 292.586V285.062H146.261V282.821H148.041L149.079 279.825H151.155V282.821H153.573V285.062H151.155V291.69C151.155 292.311 151.273 292.771 151.509 293.07C151.745 293.361 152.11 293.506 152.606 293.506C152.842 293.506 153.211 293.451 153.714 293.341V295.393ZM158.644 295.818C157.41 295.818 156.447 295.484 155.755 294.815C155.063 294.139 154.717 293.192 154.717 291.973C154.717 290.652 155.145 289.65 156.002 288.966C156.867 288.281 158.118 287.924 159.753 287.892L162.501 287.845V287.196C162.501 286.363 162.356 285.746 162.065 285.345C161.774 284.936 161.298 284.731 160.638 284.731C160.024 284.731 159.572 284.873 159.281 285.156C158.998 285.431 158.821 285.891 158.75 286.536L155.295 286.371C155.727 283.847 157.555 282.585 160.779 282.585C162.391 282.585 163.633 282.982 164.506 283.776C165.379 284.57 165.815 285.699 165.815 287.161V291.808C165.815 292.523 165.894 293.019 166.051 293.294C166.216 293.561 166.487 293.695 166.865 293.695C167.116 293.695 167.36 293.671 167.596 293.624V295.417C167.187 295.519 166.837 295.594 166.546 295.641C166.255 295.696 165.898 295.724 165.473 295.724C164.64 295.724 164.022 295.519 163.621 295.11C163.228 294.701 162.992 294.1 162.914 293.306H162.843C162.379 294.139 161.797 294.768 161.098 295.193C160.398 295.61 159.58 295.818 158.644 295.818ZM162.501 289.673L160.803 289.697C160.024 289.736 159.478 289.819 159.163 289.944C158.841 290.086 158.593 290.298 158.42 290.581C158.255 290.864 158.173 291.242 158.173 291.714C158.173 292.319 158.31 292.771 158.585 293.07C158.868 293.361 159.242 293.506 159.706 293.506C160.225 293.506 160.7 293.365 161.133 293.082C161.557 292.799 161.892 292.409 162.135 291.914C162.379 291.411 162.501 290.88 162.501 290.322V289.673ZM174.46 295.818C172.526 295.818 171.032 295.244 169.978 294.096C168.925 292.94 168.398 291.332 168.398 289.272C168.398 287.165 168.929 285.526 169.99 284.354C171.052 283.175 172.557 282.585 174.507 282.585C176.009 282.585 177.251 282.962 178.234 283.717C179.217 284.472 179.834 285.514 180.086 286.843L176.748 287.008C176.654 286.355 176.418 285.836 176.041 285.451C175.663 285.058 175.129 284.861 174.437 284.861C173.58 284.861 172.939 285.219 172.514 285.934C172.09 286.642 171.877 287.711 171.877 289.142C171.877 290.613 172.094 291.717 172.526 292.457C172.966 293.188 173.619 293.553 174.484 293.553C175.113 293.553 175.64 293.357 176.064 292.964C176.489 292.563 176.752 291.969 176.854 291.183L180.18 291.336C180.062 292.233 179.744 293.019 179.225 293.695C178.714 294.363 178.05 294.886 177.232 295.264C176.414 295.633 175.49 295.818 174.46 295.818ZM185.9 290.794V295.582H182.586V278.08H185.9V288.105L190.453 282.821H194.015L189.533 287.798L194.357 295.582H190.736L187.328 289.803L185.9 290.794ZM199.346 278.08V280.521H196.032V278.08H199.346ZM199.346 282.821V295.582H196.032V282.821H199.346ZM206.068 288.741V295.582H202.754V285.675C202.754 284.991 202.742 284.433 202.719 284C202.703 283.56 202.683 283.167 202.66 282.821H205.821C205.836 282.915 205.856 283.139 205.88 283.493C205.903 283.839 205.923 284.197 205.939 284.566C205.962 284.928 205.974 285.191 205.974 285.357H206.021C206.469 284.382 207.032 283.674 207.708 283.234C208.384 282.793 209.19 282.573 210.126 282.573C211.478 282.573 212.516 282.99 213.239 283.823C213.963 284.657 214.324 285.875 214.324 287.479V295.582H211.022V288.423C211.022 287.299 210.833 286.457 210.456 285.899C210.078 285.341 209.508 285.062 208.746 285.062C207.944 285.062 207.295 285.408 206.8 286.1C206.312 286.784 206.068 287.664 206.068 288.741ZM222.863 300.701C221.306 300.701 220.052 300.402 219.101 299.804C218.157 299.215 217.576 298.369 217.355 297.269L220.67 296.879C220.787 297.39 221.039 297.791 221.424 298.082C221.817 298.373 222.329 298.519 222.958 298.519C223.877 298.519 224.55 298.236 224.974 297.67C225.399 297.103 225.611 296.262 225.611 295.146L225.635 293.211H225.611C225.25 293.998 224.727 294.587 224.043 294.981C223.359 295.366 222.513 295.558 221.507 295.558C220.021 295.558 218.869 295 218.051 293.884C217.233 292.767 216.825 291.171 216.825 289.095C216.825 287.012 217.245 285.404 218.087 284.271C218.928 283.139 220.151 282.573 221.755 282.573C222.682 282.573 223.465 282.766 224.102 283.151C224.746 283.528 225.25 284.102 225.611 284.873H225.67C225.67 284.684 225.678 284.448 225.694 284.165C225.71 283.882 225.729 283.611 225.753 283.352C225.784 283.092 225.812 282.915 225.835 282.821H228.973C228.925 283.67 228.902 284.653 228.902 285.769V295.193C228.902 297.009 228.387 298.381 227.357 299.309C226.327 300.237 224.829 300.701 222.863 300.701ZM225.635 289.025C225.635 287.711 225.399 286.689 224.927 285.958C224.463 285.219 223.799 284.849 222.934 284.849C222.053 284.849 221.389 285.203 220.941 285.911C220.5 286.619 220.28 287.68 220.28 289.095C220.28 290.479 220.497 291.521 220.929 292.221C221.369 292.913 222.03 293.259 222.91 293.259C223.791 293.259 224.463 292.893 224.927 292.162C225.399 291.423 225.635 290.377 225.635 289.025Z" fill="white"/>
<path opacity="0.32" d="M605.606 382.297C608.233 386.822 606.718 392.433 602.162 395.049C597.607 397.665 591.963 396.165 589.336 391.639C586.709 387.114 588.224 381.502 592.78 378.886C597.148 375.947 602.979 377.771 605.606 382.297Z" stroke="url(#paint17_linear_88_841)" stroke-width="0.670953" stroke-miterlimit="10"/>
<path d="M600.097 385.426C601.035 387.042 600.494 389.046 598.867 389.98C597.24 390.914 595.225 390.378 594.286 388.762C593.348 387.146 593.889 385.142 595.516 384.208C597.076 383.158 599.159 383.809 600.097 385.426Z" fill="white"/>
<path d="M695.341 388.361H597.255" stroke="url(#paint18_linear_88_841)" stroke-width="1.34191" stroke-miterlimit="10"/>
<g filter="url(#filter4_d_88_841)">
<rect width="263.014" height="62.7288" rx="31.3644" transform="matrix(-1 0 0 1 955 353.66)" fill="#1F2835" fill-opacity="0.84" shape-rendering="crispEdges"/>
<rect x="-0.670953" y="0.670953" width="261.672" height="61.3869" rx="30.6934" transform="matrix(-1 0 0 1 953.658 353.66)" stroke="url(#paint19_linear_88_841)" stroke-width="1.34191" shape-rendering="crispEdges"/>
</g>
<path d="M719.051 387.43L717.577 391.676H714.098L720.16 375.058H724.264L730.303 391.676H726.859L725.384 387.43H719.051ZM722.212 377.617C722.133 377.932 722.023 378.309 721.882 378.749C721.74 379.19 721.638 379.5 721.575 379.681L719.829 384.812H724.606L722.813 379.575C722.703 379.253 722.601 378.926 722.507 378.596C722.412 378.266 722.314 377.94 722.212 377.617ZM735.952 374.173V376.615H732.638V374.173H735.952ZM735.952 378.915V391.676H732.638V378.915H735.952ZM742.675 385.413V391.676H739.36V381.91C739.36 381.21 739.349 380.629 739.325 380.165C739.309 379.693 739.29 379.276 739.266 378.915H742.427C742.443 378.985 742.458 379.143 742.474 379.386C742.49 379.63 742.506 379.905 742.521 380.212C742.537 380.511 742.549 380.794 742.557 381.061C742.572 381.328 742.58 381.521 742.58 381.639H742.627C742.942 380.758 743.229 380.125 743.488 379.74C743.74 379.371 744.039 379.099 744.385 378.926C744.731 378.753 745.163 378.667 745.682 378.667C746.107 378.667 746.449 378.726 746.708 378.844V381.615C746.181 381.497 745.71 381.439 745.293 381.439C744.467 381.439 743.823 381.773 743.359 382.441C742.903 383.109 742.675 384.1 742.675 385.413ZM757.04 391.676C757.024 391.597 757.001 391.432 756.969 391.18C756.938 390.929 756.91 390.654 756.886 390.355C756.871 390.056 756.863 389.804 756.863 389.6H756.816C756.454 390.371 755.935 390.948 755.259 391.334C754.583 391.719 753.741 391.912 752.735 391.912C751.249 391.912 750.101 391.334 749.291 390.178C748.481 389.014 748.076 387.391 748.076 385.307C748.076 383.192 748.501 381.56 749.35 380.412C750.207 379.257 751.418 378.679 752.983 378.679C753.887 378.679 754.665 378.867 755.318 379.245C755.978 379.622 756.485 380.184 756.839 380.931H756.863L756.839 378.832V374.173H760.153V388.892C760.153 389.286 760.161 389.714 760.177 390.178C760.193 390.642 760.216 391.141 760.248 391.676H757.04ZM751.532 385.307C751.532 386.754 751.748 387.839 752.181 388.562C752.621 389.286 753.274 389.647 754.138 389.647C755.011 389.647 755.687 389.266 756.167 388.503C756.647 387.733 756.886 386.64 756.886 385.224C756.886 383.848 756.655 382.791 756.191 382.052C755.735 381.305 755.058 380.931 754.162 380.931C753.274 380.931 752.613 381.293 752.181 382.016C751.748 382.732 751.532 383.829 751.532 385.307ZM766.853 385.413V391.676H763.538V381.91C763.538 381.21 763.527 380.629 763.503 380.165C763.487 379.693 763.468 379.276 763.444 378.915H766.605C766.621 378.985 766.636 379.143 766.652 379.386C766.668 379.63 766.683 379.905 766.699 380.212C766.715 380.511 766.727 380.794 766.735 381.061C766.75 381.328 766.758 381.521 766.758 381.639H766.805C767.12 380.758 767.407 380.125 767.666 379.74C767.918 379.371 768.217 379.099 768.563 378.926C768.909 378.753 769.341 378.667 769.86 378.667C770.285 378.667 770.627 378.726 770.886 378.844V381.615C770.359 381.497 769.888 381.439 769.471 381.439C768.645 381.439 768 381.773 767.537 382.441C767.081 383.109 766.853 384.1 766.853 385.413ZM785.074 385.283C785.074 387.351 784.5 388.975 783.352 390.154C782.204 391.326 780.616 391.912 778.588 391.912C776.598 391.912 775.038 391.322 773.905 390.143C772.773 388.963 772.207 387.343 772.207 385.283C772.207 383.231 772.773 381.619 773.905 380.448C775.038 379.268 776.622 378.679 778.658 378.679C780.742 378.679 782.33 379.249 783.423 380.389C784.524 381.521 785.074 383.153 785.074 385.283ZM781.607 385.283C781.607 383.766 781.359 382.665 780.864 381.981C780.369 381.297 779.649 380.955 778.706 380.955C777.699 380.955 776.944 381.317 776.441 382.04C775.938 382.756 775.686 383.837 775.686 385.283C775.686 386.707 775.93 387.792 776.418 388.539C776.913 389.278 777.624 389.647 778.552 389.647C779.574 389.647 780.337 389.286 780.84 388.562C781.351 387.831 781.607 386.738 781.607 385.283ZM799.793 385.236C799.793 387.367 799.365 389.014 798.508 390.178C797.659 391.334 796.456 391.912 794.899 391.912C793.051 391.912 791.762 391.157 791.03 389.647H790.96C791.007 389.883 791.03 390.599 791.03 391.794V396.688H787.716V381.851C787.716 381.246 787.708 380.699 787.693 380.212C787.677 379.724 787.653 379.292 787.622 378.915H790.842C790.873 379.009 790.897 379.17 790.912 379.398C790.936 379.618 790.952 379.87 790.96 380.153C790.975 380.436 790.983 380.715 790.983 380.99H791.03C791.4 380.204 791.927 379.618 792.611 379.233C793.295 378.84 794.128 378.643 795.111 378.643C796.597 378.643 797.749 379.217 798.567 380.365C799.385 381.505 799.793 383.129 799.793 385.236ZM796.338 385.236C796.338 383.805 796.118 382.732 795.677 382.016C795.245 381.301 794.588 380.943 793.708 380.943C792.827 380.943 792.151 381.328 791.679 382.099C791.215 382.87 790.983 383.947 790.983 385.331C790.983 386.707 791.215 387.772 791.679 388.527C792.151 389.274 792.819 389.647 793.684 389.647C794.573 389.647 795.237 389.282 795.677 388.55C796.118 387.811 796.338 386.707 796.338 385.236ZM812.154 391.912C810.919 391.912 809.956 391.577 809.264 390.909C808.572 390.233 808.226 389.286 808.226 388.067C808.226 386.746 808.655 385.743 809.512 385.059C810.377 384.375 811.627 384.017 813.262 383.986L816.01 383.939V383.29C816.01 382.457 815.865 381.84 815.574 381.439C815.283 381.03 814.807 380.825 814.147 380.825C813.534 380.825 813.081 380.967 812.791 381.25C812.507 381.525 812.331 381.985 812.26 382.63L808.804 382.465C809.237 379.941 811.065 378.679 814.288 378.679C815.9 378.679 817.143 379.076 818.015 379.87C818.888 380.664 819.324 381.792 819.324 383.255V387.902C819.324 388.617 819.403 389.113 819.56 389.388C819.725 389.655 819.997 389.789 820.374 389.789C820.626 389.789 820.869 389.765 821.105 389.718V391.511C820.696 391.613 820.347 391.688 820.056 391.735C819.765 391.79 819.407 391.817 818.982 391.817C818.149 391.817 817.532 391.613 817.131 391.204C816.738 390.795 816.502 390.194 816.423 389.4H816.352C815.888 390.233 815.307 390.862 814.607 391.287C813.907 391.703 813.089 391.912 812.154 391.912ZM816.01 385.767L814.312 385.791C813.534 385.83 812.987 385.912 812.673 386.038C812.35 386.18 812.103 386.392 811.93 386.675C811.764 386.958 811.682 387.336 811.682 387.807C811.682 388.413 811.819 388.865 812.095 389.164C812.378 389.455 812.751 389.6 813.215 389.6C813.734 389.6 814.21 389.458 814.642 389.175C815.067 388.892 815.401 388.503 815.645 388.008C815.888 387.505 816.01 386.974 816.01 386.416V385.767ZM825.965 384.835V391.676H822.65V381.769C822.65 381.085 822.639 380.526 822.615 380.094C822.599 379.654 822.58 379.261 822.556 378.915H825.717C825.733 379.009 825.752 379.233 825.776 379.587C825.799 379.933 825.819 380.291 825.835 380.66C825.858 381.022 825.87 381.285 825.87 381.45H825.917C826.366 380.475 826.928 379.768 827.604 379.327C828.28 378.887 829.086 378.667 830.022 378.667C831.374 378.667 832.412 379.084 833.135 379.917C833.859 380.751 834.22 381.969 834.22 383.573V391.676H830.918V384.517C830.918 383.392 830.729 382.551 830.352 381.993C829.975 381.435 829.404 381.155 828.642 381.155C827.84 381.155 827.191 381.501 826.696 382.193C826.208 382.877 825.965 383.758 825.965 384.835ZM845.684 391.676C845.669 391.597 845.645 391.432 845.613 391.18C845.582 390.929 845.555 390.654 845.531 390.355C845.515 390.056 845.507 389.804 845.507 389.6H845.46C845.098 390.371 844.58 390.948 843.903 391.334C843.227 391.719 842.386 391.912 841.379 391.912C839.893 391.912 838.745 391.334 837.936 390.178C837.126 389.014 836.721 387.391 836.721 385.307C836.721 383.192 837.145 381.56 837.995 380.412C838.852 379.257 840.062 378.679 841.627 378.679C842.531 378.679 843.31 378.867 843.962 379.245C844.623 379.622 845.13 380.184 845.484 380.931H845.507L845.484 378.832V374.173H848.798V388.892C848.798 389.286 848.806 389.714 848.821 390.178C848.837 390.642 848.861 391.141 848.892 391.676H845.684ZM840.176 385.307C840.176 386.754 840.393 387.839 840.825 388.562C841.265 389.286 841.918 389.647 842.783 389.647C843.656 389.647 844.332 389.266 844.811 388.503C845.291 387.733 845.531 386.64 845.531 385.224C845.531 383.848 845.299 382.791 844.835 382.052C844.379 381.305 843.703 380.931 842.807 380.931C841.918 380.931 841.258 381.293 840.825 382.016C840.393 382.732 840.176 383.829 840.176 385.307ZM873.565 386.935C873.565 388.444 872.999 389.612 871.867 390.437C870.735 391.263 869.162 391.676 867.15 391.676H858.835V375.058H866.442C868.47 375.058 870.004 375.412 871.042 376.119C872.087 376.819 872.61 377.857 872.61 379.233C872.61 380.177 872.347 380.975 871.82 381.627C871.301 382.272 870.507 382.708 869.438 382.936C870.782 383.094 871.804 383.518 872.504 384.21C873.212 384.894 873.565 385.802 873.565 386.935ZM869.107 379.705C869.107 378.958 868.868 378.427 868.388 378.113C867.916 377.798 867.212 377.641 866.277 377.641H862.314V381.757H866.3C867.283 381.757 867.995 381.588 868.435 381.25C868.883 380.904 869.107 380.389 869.107 379.705ZM870.074 386.663C870.074 385.106 868.958 384.328 866.725 384.328H862.314V389.093H866.855C867.971 389.093 868.785 388.892 869.296 388.491C869.815 388.083 870.074 387.473 870.074 386.663ZM888.485 385.283C888.485 387.351 887.911 388.975 886.763 390.154C885.615 391.326 884.027 391.912 881.998 391.912C880.009 391.912 878.448 391.322 877.316 390.143C876.184 388.963 875.618 387.343 875.618 385.283C875.618 383.231 876.184 381.619 877.316 380.448C878.448 379.268 880.033 378.679 882.069 378.679C884.153 378.679 885.741 379.249 886.834 380.389C887.935 381.521 888.485 383.153 888.485 385.283ZM885.018 385.283C885.018 383.766 884.77 382.665 884.275 381.981C883.779 381.297 883.06 380.955 882.116 380.955C881.11 380.955 880.355 381.317 879.852 382.04C879.349 382.756 879.097 383.837 879.097 385.283C879.097 386.707 879.341 387.792 879.828 388.539C880.324 389.278 881.035 389.647 881.963 389.647C882.985 389.647 883.748 389.286 884.251 388.562C884.762 387.831 885.018 386.738 885.018 385.283ZM894.441 384.835V391.676H891.127V381.769C891.127 381.085 891.115 380.526 891.092 380.094C891.076 379.654 891.056 379.261 891.033 378.915H894.193C894.209 379.009 894.229 379.233 894.252 379.587C894.276 379.933 894.296 380.291 894.311 380.66C894.335 381.022 894.347 381.285 894.347 381.45H894.394C894.842 380.475 895.404 379.768 896.08 379.327C896.757 378.887 897.563 378.667 898.498 378.667C899.851 378.667 900.889 379.084 901.612 379.917C902.335 380.751 902.697 381.969 902.697 383.573V391.676H899.395V384.517C899.395 383.392 899.206 382.551 898.828 381.993C898.451 381.435 897.881 381.155 897.118 381.155C896.316 381.155 895.668 381.501 895.172 382.193C894.685 382.877 894.441 383.758 894.441 384.835ZM914.007 389.14C913.567 390.107 913.005 390.811 912.321 391.251C911.645 391.692 910.839 391.912 909.903 391.912C908.551 391.912 907.513 391.499 906.789 390.673C906.066 389.84 905.704 388.621 905.704 387.017V378.915H909.019V386.074C909.019 387.19 909.207 388.031 909.585 388.598C909.962 389.156 910.528 389.435 911.283 389.435C912.085 389.435 912.73 389.093 913.217 388.409C913.713 387.717 913.96 386.832 913.96 385.755V378.915H917.274V388.822C917.274 389.364 917.282 389.875 917.298 390.355C917.314 390.827 917.337 391.267 917.369 391.676H914.208C914.161 391.11 914.125 390.614 914.102 390.19C914.078 389.765 914.066 389.415 914.066 389.14H914.007ZM931.416 387.949C931.416 389.183 930.908 390.154 929.894 390.862C928.888 391.562 927.492 391.912 925.707 391.912C923.954 391.912 922.609 391.636 921.674 391.086C920.746 390.528 920.129 389.663 919.822 388.491L922.735 388.055C922.9 388.66 923.183 389.089 923.584 389.341C923.993 389.592 924.701 389.718 925.707 389.718C926.635 389.718 927.311 389.6 927.736 389.364C928.16 389.128 928.373 388.759 928.373 388.255C928.373 387.847 928.2 387.524 927.854 387.288C927.516 387.045 926.938 386.84 926.12 386.675C925.499 386.549 924.941 386.427 924.445 386.309C923.958 386.192 923.537 386.078 923.183 385.967C922.837 385.849 922.554 385.739 922.334 385.637C921.681 385.315 921.182 384.902 920.836 384.399C920.498 383.896 920.329 383.274 920.329 382.535C920.329 381.317 920.797 380.369 921.733 379.693C922.676 379.009 924.009 378.667 925.731 378.667C927.248 378.667 928.467 378.962 929.387 379.551C930.315 380.141 930.893 380.994 931.121 382.111L928.184 382.417C928.09 381.898 927.858 381.513 927.488 381.262C927.119 381.002 926.533 380.872 925.731 380.872C924.945 380.872 924.355 380.975 923.962 381.179C923.569 381.376 923.372 381.71 923.372 382.182C923.372 382.551 923.521 382.846 923.82 383.066C924.127 383.278 924.638 383.455 925.353 383.597C926.352 383.801 927.237 384.014 928.007 384.234C928.785 384.446 929.411 384.702 929.882 385C930.346 385.299 930.716 385.684 930.991 386.156C931.274 386.62 931.416 387.218 931.416 387.949Z" fill="white"/>
<g filter="url(#filter5_d_88_841)">
<rect x="101.548" y="441.748" width="221.415" height="62.7288" rx="31.3644" fill="#1F2835" fill-opacity="0.84" shape-rendering="crispEdges"/>
<rect x="102.219" y="442.419" width="220.073" height="61.3869" rx="30.6934" stroke="url(#paint20_linear_88_841)" stroke-width="1.34191" shape-rendering="crispEdges"/>
</g>
<path d="M173.401 478.409V481.098H161.005V464.48H164.484V478.409H173.401ZM179.156 463.595V466.037H175.842V463.595H179.156ZM179.156 468.336V481.098H175.842V468.336H179.156ZM181.869 474.729C181.869 472.622 182.297 470.99 183.154 469.834C184.019 468.671 185.234 468.089 186.799 468.089C187.726 468.089 188.509 468.281 189.146 468.667C189.79 469.044 190.294 469.618 190.655 470.389C190.655 470.145 190.663 469.881 190.679 469.598C190.703 469.307 190.73 469.044 190.762 468.808C190.793 468.572 190.817 468.415 190.832 468.336H194.017C193.993 468.761 193.973 469.217 193.958 469.705C193.95 470.192 193.946 470.715 193.946 471.273V486.11H190.655V480.803L190.714 478.975H190.691C190.329 479.761 189.798 480.351 189.099 480.744C188.407 481.137 187.55 481.334 186.527 481.334C185.041 481.334 183.893 480.756 183.084 479.6C182.274 478.436 181.869 476.812 181.869 474.729ZM190.679 474.658C190.679 473.298 190.451 472.244 189.995 471.497C189.539 470.742 188.867 470.365 187.978 470.365C187.097 470.365 186.433 470.731 185.985 471.462C185.545 472.185 185.324 473.274 185.324 474.729C185.324 476.176 185.541 477.261 185.973 477.984C186.413 478.707 187.074 479.069 187.955 479.069C188.819 479.069 189.488 478.688 189.96 477.925C190.439 477.154 190.679 476.066 190.679 474.658ZM205.445 478.562C205.005 479.529 204.443 480.233 203.759 480.673C203.082 481.113 202.276 481.334 201.341 481.334C199.988 481.334 198.951 480.921 198.227 480.095C197.504 479.262 197.142 478.043 197.142 476.439V468.336H200.456V475.495C200.456 476.612 200.645 477.453 201.022 478.019C201.4 478.578 201.966 478.857 202.721 478.857C203.523 478.857 204.167 478.515 204.655 477.831C205.15 477.139 205.398 476.254 205.398 475.177V468.336H208.712V478.243C208.712 478.786 208.72 479.297 208.736 479.777C208.751 480.248 208.775 480.689 208.806 481.098H205.646C205.598 480.532 205.563 480.036 205.54 479.612C205.516 479.187 205.504 478.837 205.504 478.562H205.445ZM215.411 463.595V466.037H212.097V463.595H215.411ZM215.411 468.336V481.098H212.097V468.336H215.411ZM227.087 481.098C227.072 481.019 227.048 480.854 227.017 480.602C226.985 480.351 226.958 480.076 226.934 479.777C226.918 479.478 226.91 479.226 226.91 479.022H226.863C226.502 479.792 225.983 480.37 225.306 480.756C224.63 481.141 223.789 481.334 222.782 481.334C221.296 481.334 220.148 480.756 219.339 479.6C218.529 478.436 218.124 476.812 218.124 474.729C218.124 472.614 218.548 470.982 219.398 469.834C220.255 468.678 221.465 468.101 223.03 468.101C223.934 468.101 224.713 468.289 225.365 468.667C226.026 469.044 226.533 469.606 226.887 470.353H226.91L226.887 468.254V463.595H230.201V478.314C230.201 478.707 230.209 479.136 230.225 479.6C230.24 480.064 230.264 480.563 230.295 481.098H227.087ZM221.579 474.729C221.579 476.176 221.796 477.261 222.228 477.984C222.668 478.707 223.321 479.069 224.186 479.069C225.059 479.069 225.735 478.688 226.215 477.925C226.694 477.154 226.934 476.062 226.934 474.646C226.934 473.27 226.702 472.213 226.238 471.474C225.782 470.727 225.106 470.353 224.21 470.353C223.321 470.353 222.661 470.715 222.228 471.438C221.796 472.154 221.579 473.251 221.579 474.729ZM236.9 463.595V466.037H233.586V463.595H236.9ZM236.9 468.336V481.098H233.586V468.336H236.9ZM246.371 480.909C245.569 481.176 244.637 481.31 243.575 481.31C242.6 481.31 241.85 481.047 241.323 480.52C240.796 479.985 240.533 479.179 240.533 478.102V470.577H238.917V468.336H240.698L241.736 465.341H243.811V468.336H246.229V470.577H243.811V477.206C243.811 477.827 243.929 478.287 244.165 478.586C244.401 478.876 244.767 479.022 245.262 479.022C245.498 479.022 245.867 478.967 246.371 478.857V480.909ZM250.003 486.11C249.193 486.11 248.498 486.059 247.916 485.957V483.598C248.356 483.661 248.737 483.692 249.06 483.692C249.83 483.692 250.404 483.484 250.782 483.067C251.167 482.651 251.54 481.951 251.902 480.968L246.854 468.336H250.357L252.362 474.316C252.519 474.749 252.696 475.291 252.893 475.944C253.089 476.596 253.31 477.367 253.553 478.255C253.734 477.532 253.907 476.864 254.072 476.25C254.237 475.637 254.418 475.008 254.615 474.363L256.502 468.336H259.969L254.921 481.77C254.717 482.312 254.501 482.792 254.273 483.209C254.045 483.626 253.813 483.995 253.577 484.317C253.097 484.97 252.574 485.43 252.008 485.697C251.442 485.973 250.774 486.11 250.003 486.11Z" fill="white"/>
<path d="M447.521 597.564L468.559 454.429" stroke="url(#paint21_linear_88_841)" stroke-width="1.34191" stroke-miterlimit="10"/>
<path opacity="0.32" d="M460.502 456.5C457.875 451.975 459.391 446.363 463.946 443.747C468.502 441.132 474.145 442.632 476.772 447.158C479.399 451.683 477.884 457.295 473.329 459.91C468.961 462.85 463.13 461.026 460.502 456.5Z" stroke="url(#paint22_linear_88_841)" stroke-width="0.670953" stroke-miterlimit="10"/>
<path d="M466.011 453.373C465.073 451.757 465.614 449.753 467.241 448.819C468.868 447.884 470.884 448.42 471.822 450.037C472.76 451.653 472.219 453.657 470.592 454.591C469.032 455.641 466.95 454.99 466.011 453.373Z" fill="white"/>
<g filter="url(#filter6_d_88_841)">
<rect x="305.518" y="577.881" width="221.415" height="62.7288" rx="31.3644" fill="#1F2835" fill-opacity="0.84" shape-rendering="crispEdges"/>
<rect x="306.189" y="578.552" width="220.073" height="61.3869" rx="30.6934" stroke="url(#paint23_linear_88_841)" stroke-width="1.34191" shape-rendering="crispEdges"/>
</g>
<path d="M394.13 603.304V617.232H390.651V603.304H385.284V600.615H399.508V603.304H394.13ZM402.409 611.489C402.409 612.731 402.637 613.671 403.093 614.307C403.557 614.937 404.214 615.251 405.063 615.251C405.645 615.251 406.121 615.125 406.49 614.874C406.867 614.614 407.131 614.233 407.28 613.73L410.406 614.001C409.501 616.312 407.666 617.468 404.898 617.468C402.979 617.468 401.505 616.902 400.475 615.77C399.445 614.63 398.93 612.971 398.93 610.793C398.93 608.686 399.453 607.066 400.499 605.934C401.544 604.801 403.027 604.235 404.945 604.235C406.777 604.235 408.177 604.845 409.144 606.063C410.111 607.274 410.594 609.051 410.594 611.394V611.489H402.409ZM407.386 609.413C407.324 608.383 407.076 607.612 406.643 607.101C406.211 606.582 405.629 606.323 404.898 606.323C404.119 606.323 403.518 606.594 403.093 607.137C402.677 607.679 402.456 608.438 402.433 609.413H407.386ZM416.067 617.468C414.832 617.468 413.869 617.134 413.177 616.466C412.485 615.79 412.139 614.842 412.139 613.623C412.139 612.302 412.568 611.3 413.425 610.616C414.29 609.932 415.54 609.574 417.176 609.543L419.924 609.495V608.847C419.924 608.013 419.778 607.396 419.487 606.995C419.196 606.586 418.721 606.382 418.06 606.382C417.447 606.382 416.995 606.523 416.704 606.806C416.421 607.082 416.244 607.542 416.173 608.186L412.717 608.021C413.15 605.497 414.978 604.235 418.202 604.235C419.813 604.235 421.056 604.632 421.929 605.427C422.801 606.221 423.238 607.349 423.238 608.811V613.458C423.238 614.174 423.316 614.669 423.474 614.944C423.639 615.212 423.91 615.345 424.287 615.345C424.539 615.345 424.783 615.322 425.019 615.275V617.067C424.61 617.17 424.26 617.244 423.969 617.291C423.678 617.346 423.32 617.374 422.896 617.374C422.062 617.374 421.445 617.17 421.044 616.761C420.651 616.352 420.415 615.75 420.336 614.956H420.266C419.802 615.79 419.22 616.419 418.52 616.843C417.82 617.26 417.003 617.468 416.067 617.468ZM419.924 611.324L418.225 611.347C417.447 611.386 416.9 611.469 416.586 611.595C416.263 611.736 416.016 611.949 415.843 612.232C415.678 612.515 415.595 612.892 415.595 613.364C415.595 613.969 415.733 614.421 416.008 614.72C416.291 615.011 416.664 615.157 417.128 615.157C417.647 615.157 418.123 615.015 418.555 614.732C418.98 614.449 419.314 614.06 419.558 613.564C419.802 613.061 419.924 612.531 419.924 611.972V611.324ZM429.878 610.392V617.232H426.564V607.325C426.564 606.641 426.552 606.083 426.528 605.651C426.513 605.21 426.493 604.817 426.469 604.471H429.63C429.646 604.566 429.665 604.79 429.689 605.143C429.713 605.489 429.732 605.847 429.748 606.217C429.772 606.578 429.783 606.842 429.783 607.007H429.831C430.239 606.032 430.747 605.324 431.352 604.884C431.965 604.444 432.697 604.224 433.546 604.224C434.521 604.224 435.303 604.455 435.893 604.919C436.49 605.383 436.891 606.079 437.096 607.007H437.167C437.599 606.016 438.118 605.305 438.723 604.872C439.329 604.44 440.099 604.224 441.035 604.224C442.277 604.224 443.225 604.648 443.877 605.497C444.53 606.339 444.856 607.549 444.856 609.13V617.232H441.566V610.073C441.566 608.949 441.405 608.108 441.082 607.549C440.76 606.991 440.276 606.712 439.631 606.712C438.987 606.712 438.448 607.027 438.016 607.656C437.583 608.277 437.367 609.138 437.367 610.239V617.232H434.076V610.073C434.076 608.949 433.915 608.108 433.593 607.549C433.271 606.991 432.787 606.712 432.142 606.712C431.474 606.712 430.927 607.054 430.503 607.738C430.086 608.422 429.878 609.307 429.878 610.392Z" fill="white"/>
<path d="M616.84 518.49L548.403 432.486" stroke="url(#paint24_linear_88_841)" stroke-width="1.34191" stroke-miterlimit="10"/>
<path opacity="0.32" d="M555.956 436.481C558.583 431.955 557.067 426.344 552.512 423.728C547.956 421.112 542.313 422.612 539.686 427.138C537.059 431.664 538.574 437.275 543.129 439.891C547.497 442.83 553.328 441.006 555.956 436.481Z" stroke="url(#paint25_linear_88_841)" stroke-width="0.670953" stroke-miterlimit="10"/>
<path d="M550.446 433.354C551.384 431.737 550.843 429.733 549.216 428.799C547.589 427.865 545.573 428.401 544.635 430.017C543.697 431.633 544.238 433.637 545.865 434.572C547.425 435.621 549.508 434.97 550.446 433.354Z" fill="white"/>
<g filter="url(#filter7_d_88_841)">
<rect width="268.381" height="62.7288" rx="31.3644" transform="matrix(-1 0 0 1 870.46 504.477)" fill="#1F2835" fill-opacity="0.84" shape-rendering="crispEdges"/>
<rect x="-0.670953" y="0.670953" width="267.039" height="61.3869" rx="30.6934" transform="matrix(-1 0 0 1 869.118 504.477)" stroke="url(#paint26_linear_88_841)" stroke-width="1.34191" shape-rendering="crispEdges"/>
</g>
<path d="M637.347 541.326C639.454 541.326 640.913 540.272 641.722 538.165L644.753 539.309C644.101 540.913 643.142 542.108 641.876 542.894C640.618 543.673 639.108 544.062 637.347 544.062C635.57 544.062 634.056 543.724 632.806 543.048C631.556 542.364 630.601 541.377 629.94 540.087C629.288 538.798 628.961 537.249 628.961 535.441C628.961 533.616 629.276 532.075 629.905 530.817C630.534 529.559 631.462 528.604 632.688 527.951C633.915 527.291 635.417 526.961 637.193 526.961C639.143 526.961 640.732 527.354 641.958 528.14C643.185 528.918 644.046 530.066 644.541 531.584L641.475 532.421C641.215 531.588 640.704 530.927 639.942 530.44C639.187 529.945 638.294 529.697 637.264 529.697C635.692 529.697 634.497 530.184 633.679 531.159C632.869 532.134 632.464 533.561 632.464 535.441C632.464 536.714 632.649 537.788 633.018 538.66C633.396 539.533 633.946 540.198 634.67 540.654C635.401 541.102 636.293 541.326 637.347 541.326ZM660.593 541.137V543.826H647.042V527.208H660.109V529.897H650.521V534.072H659.39V536.762H650.521V541.137H660.593ZM669.604 537.21L665.429 543.826H661.749L667.504 535.087L662.232 527.208H665.912L669.604 533.082L673.295 527.208H676.951L671.904 535.087L677.435 543.826H673.779L669.604 537.21ZM685.431 539.285C685.431 538.224 685.75 537.28 686.387 536.455C687.024 535.621 688.034 534.882 689.418 534.238C689.127 533.648 688.907 533.078 688.757 532.527C688.616 531.977 688.545 531.45 688.545 530.947C688.545 529.72 688.93 528.777 689.701 528.116C690.471 527.448 691.568 527.114 692.991 527.114C694.312 527.114 695.354 527.428 696.117 528.057C696.887 528.686 697.273 529.54 697.273 530.617C697.273 531.222 697.119 531.769 696.813 532.256C696.506 532.744 696.074 533.196 695.515 533.612C695.232 533.817 694.851 534.053 694.371 534.32C693.9 534.58 693.326 534.867 692.649 535.181C693.436 536.573 694.395 537.894 695.527 539.144C696.345 537.894 696.966 536.467 697.391 534.863L699.856 535.688C699.329 537.497 698.57 539.148 697.579 540.642C698.248 541.216 698.947 541.503 699.679 541.503C700.198 541.503 700.658 541.44 701.059 541.314V543.708C700.634 543.881 700.119 543.968 699.513 543.968C698.837 543.968 698.157 543.846 697.473 543.602C696.797 543.358 696.18 543.005 695.621 542.541C694.293 543.555 692.803 544.062 691.151 544.062C689.335 544.062 687.928 543.645 686.929 542.812C685.931 541.971 685.431 540.795 685.431 539.285ZM694.631 530.64C694.631 530.192 694.481 529.827 694.183 529.544C693.884 529.26 693.479 529.119 692.968 529.119C692.362 529.119 691.898 529.288 691.576 529.626C691.262 529.964 691.104 530.412 691.104 530.971C691.104 531.647 691.317 532.406 691.741 533.247C692.575 532.893 693.168 532.594 693.522 532.351C693.876 532.107 694.147 531.847 694.336 531.572C694.532 531.297 694.631 530.986 694.631 530.64ZM693.664 540.925C693.011 540.201 692.417 539.47 691.883 538.731C691.348 537.984 690.872 537.233 690.456 536.478C689.103 537.115 688.427 538.035 688.427 539.238C688.427 540.017 688.683 540.642 689.194 541.114C689.705 541.585 690.401 541.821 691.281 541.821C691.792 541.821 692.252 541.727 692.661 541.538C693.078 541.349 693.412 541.145 693.664 540.925ZM724.977 535.393C724.977 537.17 724.631 538.688 723.939 539.946C723.255 541.204 722.304 542.167 721.085 542.835C719.874 543.496 718.474 543.826 716.886 543.826H710.164V527.208H716.179C718.978 527.208 721.144 527.916 722.677 529.331C724.21 530.739 724.977 532.759 724.977 535.393ZM721.474 535.393C721.474 533.609 721.01 532.248 720.082 531.313C719.155 530.369 717.83 529.897 716.108 529.897H713.643V541.137H716.591C717.59 541.137 718.451 540.905 719.174 540.441C719.905 539.97 720.472 539.305 720.873 538.448C721.274 537.591 721.474 536.573 721.474 535.393ZM741.17 541.137V543.826H727.619V527.208H740.687V529.897H731.098V534.072H739.967V536.762H731.098V541.137H741.17ZM750.181 537.21L746.006 543.826H742.326L748.082 535.087L742.81 527.208H746.489L750.181 533.082L753.872 527.208H757.529L752.481 535.087L758.012 543.826H754.356L750.181 537.21ZM778.959 541.137V543.826H766.563V527.208H770.042V541.137H778.959ZM784.714 526.324V528.765H781.4V526.324H784.714ZM784.714 531.065V543.826H781.4V531.065H784.714ZM798.879 540.099C798.879 541.334 798.372 542.305 797.357 543.012C796.351 543.712 794.955 544.062 793.17 544.062C791.417 544.062 790.073 543.787 789.137 543.236C788.209 542.678 787.592 541.813 787.285 540.642L790.198 540.205C790.363 540.811 790.646 541.239 791.047 541.491C791.456 541.743 792.164 541.868 793.17 541.868C794.098 541.868 794.774 541.75 795.199 541.515C795.624 541.279 795.836 540.909 795.836 540.406C795.836 539.997 795.663 539.675 795.317 539.439C794.979 539.195 794.401 538.991 793.583 538.825C792.962 538.7 792.404 538.578 791.908 538.46C791.421 538.342 791 538.228 790.646 538.118C790.301 538 790.017 537.89 789.797 537.788C789.145 537.465 788.645 537.052 788.299 536.549C787.961 536.046 787.792 535.425 787.792 534.686C787.792 533.467 788.26 532.52 789.196 531.843C790.139 531.159 791.472 530.817 793.194 530.817C794.712 530.817 795.93 531.112 796.85 531.702C797.778 532.292 798.356 533.145 798.584 534.261L795.647 534.568C795.553 534.049 795.321 533.664 794.951 533.412C794.582 533.153 793.996 533.023 793.194 533.023C792.408 533.023 791.818 533.125 791.425 533.329C791.032 533.526 790.835 533.86 790.835 534.332C790.835 534.701 790.985 534.996 791.283 535.216C791.59 535.429 792.101 535.606 792.817 535.747C793.815 535.952 794.7 536.164 795.47 536.384C796.249 536.596 796.874 536.852 797.346 537.151C797.809 537.449 798.179 537.835 798.454 538.307C798.737 538.77 798.879 539.368 798.879 540.099ZM807.63 543.637C806.828 543.905 805.896 544.038 804.835 544.038C803.86 544.038 803.109 543.775 802.582 543.248C802.055 542.714 801.792 541.908 801.792 540.83V533.306H800.176V531.065H801.957L802.995 528.069H805.071V531.065H807.488V533.306H805.071V539.934C805.071 540.555 805.189 541.015 805.424 541.314C805.66 541.605 806.026 541.75 806.521 541.75C806.757 541.75 807.127 541.695 807.63 541.585V543.637ZM812.926 526.324V528.765H809.611V526.324H812.926ZM812.926 531.065V543.826H809.611V531.065H812.926ZM819.648 536.986V543.826H816.334V533.919C816.334 533.235 816.322 532.677 816.299 532.244C816.283 531.804 816.263 531.411 816.24 531.065H819.4C819.416 531.159 819.436 531.383 819.459 531.737C819.483 532.083 819.503 532.441 819.518 532.81C819.542 533.172 819.554 533.436 819.554 533.601H819.601C820.049 532.626 820.611 531.918 821.288 531.478C821.964 531.037 822.77 530.817 823.705 530.817C825.058 530.817 826.096 531.234 826.819 532.067C827.542 532.901 827.904 534.12 827.904 535.724V543.826H824.602V536.667C824.602 535.543 824.413 534.701 824.036 534.143C823.658 533.585 823.088 533.306 822.325 533.306C821.523 533.306 820.875 533.652 820.379 534.344C819.892 535.028 819.648 535.908 819.648 536.986ZM836.443 548.945C834.886 548.945 833.632 548.646 832.681 548.048C831.737 547.459 831.155 546.614 830.935 545.513L834.249 545.124C834.367 545.635 834.619 546.036 835.004 546.327C835.397 546.617 835.908 546.763 836.537 546.763C837.457 546.763 838.13 546.48 838.554 545.914C838.979 545.348 839.191 544.506 839.191 543.39L839.215 541.456H839.191C838.829 542.242 838.306 542.832 837.622 543.225C836.938 543.61 836.093 543.803 835.087 543.803C833.601 543.803 832.449 543.244 831.631 542.128C830.813 541.011 830.404 539.415 830.404 537.339C830.404 535.256 830.825 533.648 831.666 532.516C832.508 531.383 833.73 530.817 835.334 530.817C836.262 530.817 837.044 531.01 837.681 531.395C838.326 531.773 838.829 532.347 839.191 533.117H839.25C839.25 532.928 839.258 532.693 839.274 532.409C839.289 532.126 839.309 531.855 839.333 531.596C839.364 531.336 839.392 531.159 839.415 531.065H842.552C842.505 531.914 842.482 532.897 842.482 534.013V543.437C842.482 545.253 841.967 546.625 840.937 547.553C839.907 548.481 838.409 548.945 836.443 548.945ZM839.215 537.269C839.215 535.956 838.979 534.933 838.507 534.202C838.043 533.463 837.379 533.094 836.514 533.094C835.633 533.094 834.969 533.447 834.521 534.155C834.08 534.863 833.86 535.924 833.86 537.339C833.86 538.723 834.076 539.765 834.509 540.465C834.949 541.157 835.61 541.503 836.49 541.503C837.371 541.503 838.043 541.137 838.507 540.406C838.979 539.667 839.215 538.621 839.215 537.269Z" fill="white"/>
<path d="M278.441 61.2342C278.441 64.5311 277.358 67.0787 275.194 68.877C273.029 70.6753 269.949 71.5745 265.953 71.5745C262.173 71.5745 259.167 70.7086 256.936 68.9769C254.705 67.2285 253.398 64.7142 253.015 61.434L260.158 60.8096C260.608 64.1897 262.531 65.8798 265.928 65.8798C267.609 65.8798 268.916 65.4635 269.849 64.631C270.781 63.7984 271.248 62.5246 271.248 60.8096C271.248 59.2444 270.681 58.0455 269.549 57.213C268.417 56.3804 266.735 55.9641 264.504 55.9641H262.056V50.2945H264.354C266.369 50.2945 267.884 49.8865 268.9 49.0706C269.915 48.2381 270.423 47.0559 270.423 45.524C270.423 44.0753 270.015 42.9431 269.199 42.1272C268.4 41.2946 267.226 40.8783 265.678 40.8783C264.229 40.8783 263.055 41.278 262.156 42.0772C261.274 42.8765 260.766 44.0087 260.633 45.474L253.614 44.9745C253.98 41.944 255.238 39.5712 257.386 37.8562C259.534 36.1411 262.339 35.2836 265.803 35.2836C269.483 35.2836 272.355 36.1162 274.42 37.7813C276.501 39.4297 277.542 41.7192 277.542 44.6498C277.542 46.8477 276.892 48.6544 275.593 50.0697C274.311 51.485 272.455 52.4258 270.024 52.892V52.9919C272.721 53.3083 274.794 54.1991 276.243 55.6644C277.708 57.1131 278.441 58.9697 278.441 61.2342ZM306.664 53.3916C306.664 59.336 305.64 63.8401 303.592 66.9039C301.561 69.9676 298.505 71.4995 294.426 71.4995C290.396 71.4995 287.374 69.9926 285.359 66.9788C283.345 63.9483 282.337 59.4192 282.337 53.3916C282.337 47.214 283.295 42.6517 285.209 39.7044C287.141 36.7572 290.28 35.2836 294.626 35.2836C298.788 35.2836 301.835 36.7905 303.767 39.8044C305.698 42.8182 306.664 47.3473 306.664 53.3916ZM299.621 53.3916C299.621 50.2279 299.479 47.7302 299.196 45.8986C298.913 44.0504 298.405 42.7349 297.673 41.9523C296.94 41.1697 295.908 40.7784 294.576 40.7784C293.16 40.7784 292.07 41.1781 291.304 41.9773C290.554 42.7599 290.038 44.0753 289.755 45.9236C289.489 47.7552 289.356 50.2445 289.356 53.3916C289.356 56.5386 289.497 59.0363 289.78 60.8845C290.08 62.7161 290.596 64.0232 291.329 64.8058C292.078 65.5884 293.127 65.9797 294.476 65.9797C296.474 65.9797 297.831 65.014 298.547 63.0824C299.263 61.1509 299.621 57.9206 299.621 53.3916ZM318.978 35.4085C324.839 35.4085 327.769 39.1383 327.769 46.598C327.769 50.2279 327.012 53.0086 325.497 54.9401C323.998 56.855 321.783 57.8124 318.853 57.8124C315.955 57.8124 313.766 56.8633 312.284 54.9651C310.802 53.0502 310.061 50.2612 310.061 46.598C310.061 42.8182 310.777 40.0125 312.209 38.1809C313.641 36.3326 315.897 35.4085 318.978 35.4085ZM345.628 35.8081L322.574 71H317.429L340.407 35.8081H345.628ZM322.349 46.598C322.349 43.9671 322.091 42.0939 321.575 40.9782C321.076 39.846 320.21 39.2798 318.978 39.2798C317.646 39.2798 316.721 39.846 316.205 40.9782C315.689 42.0939 315.431 43.9671 315.431 46.598C315.431 49.2122 315.697 51.0854 316.23 52.2177C316.78 53.3499 317.679 53.9161 318.928 53.9161C320.16 53.9161 321.034 53.3499 321.55 52.2177C322.083 51.0854 322.349 49.2122 322.349 46.598ZM352.921 60.2102C352.921 63.8401 352.171 66.6125 350.673 68.5273C349.174 70.4422 346.976 71.3996 344.079 71.3996C341.148 71.3996 338.942 70.4505 337.46 68.5523C335.978 66.6541 335.237 63.8734 335.237 60.2102C335.237 56.4803 335.953 53.683 337.385 51.818C338.817 49.9365 341.082 48.9957 344.179 48.9957C347.176 48.9957 349.382 49.9448 350.798 51.843C352.213 53.7246 352.921 56.5136 352.921 60.2102ZM347.551 60.2102C347.551 57.546 347.293 55.6561 346.776 54.5405C346.277 53.4082 345.411 52.8421 344.179 52.8421C342.847 52.8421 341.923 53.4249 341.407 54.5904C340.907 55.7394 340.657 57.6126 340.657 60.2102C340.657 62.891 340.924 64.7725 341.457 65.8548C342.006 66.9372 342.897 67.4783 344.129 67.4783C345.345 67.4783 346.219 66.9122 346.752 65.7799C347.284 64.6476 347.551 62.7911 347.551 60.2102Z" fill="#38DCC8"/>
<path d="M650.573 95.1432V100.363H626.771V95.1432H635.488V71.1408L627.046 76.4108V70.891L635.862 65.1714H642.506V95.1432H650.573ZM678.372 82.7548C678.372 88.6993 677.348 93.2034 675.3 96.2671C673.269 99.3309 670.213 100.863 666.134 100.863C662.104 100.863 659.082 99.3559 657.067 96.3421C655.053 93.3116 654.045 88.7825 654.045 82.7548C654.045 76.5773 655.003 72.015 656.917 69.0677C658.849 66.1205 661.988 64.6469 666.334 64.6469C670.496 64.6469 673.543 66.1538 675.475 69.1676C677.406 72.1815 678.372 76.7105 678.372 82.7548ZM671.329 82.7548C671.329 79.5912 671.187 77.0935 670.904 75.2619C670.621 73.4136 670.113 72.0982 669.381 71.3156C668.648 70.533 667.616 70.1417 666.284 70.1417C664.868 70.1417 663.778 70.5413 663.012 71.3406C662.262 72.1232 661.746 73.4386 661.463 75.2869C661.197 77.1185 661.064 79.6078 661.064 82.7548C661.064 85.9019 661.205 88.3995 661.488 90.2478C661.788 92.0794 662.304 93.3865 663.037 94.1691C663.786 94.9517 664.835 95.343 666.184 95.343C668.182 95.343 669.539 94.3772 670.255 92.4457C670.971 90.5142 671.329 87.2839 671.329 82.7548ZM690.686 64.7718C696.547 64.7718 699.477 68.5016 699.477 75.9612C699.477 79.5912 698.72 82.3719 697.205 84.3034C695.706 86.2183 693.491 87.1757 690.561 87.1757C687.664 87.1757 685.474 86.2266 683.992 84.3284C682.51 82.4135 681.769 79.6245 681.769 75.9612C681.769 72.1815 682.485 69.3758 683.917 67.5442C685.349 65.6959 687.605 64.7718 690.686 64.7718ZM717.336 65.1714L694.282 100.363H689.137L712.115 65.1714H717.336ZM694.057 75.9612C694.057 73.3304 693.799 71.4571 693.283 70.3415C692.784 69.2093 691.918 68.6431 690.686 68.6431C689.354 68.6431 688.429 69.2093 687.913 70.3415C687.397 71.4571 687.139 73.3304 687.139 75.9612C687.139 78.5754 687.405 80.4487 687.938 81.581C688.488 82.7132 689.387 83.2794 690.636 83.2794C691.868 83.2794 692.742 82.7132 693.258 81.581C693.791 80.4487 694.057 78.5754 694.057 75.9612ZM724.629 89.5734C724.629 93.2034 723.879 95.9757 722.381 97.8906C720.882 99.8055 718.684 100.763 715.787 100.763C712.856 100.763 710.65 99.8138 709.168 97.9156C707.686 96.0174 706.945 93.2367 706.945 89.5734C706.945 85.8436 707.661 83.0462 709.093 81.1813C710.525 79.2998 712.79 78.359 715.887 78.359C718.884 78.359 721.09 79.3081 722.506 81.2063C723.921 83.0879 724.629 85.8769 724.629 89.5734ZM719.259 89.5734C719.259 86.9093 719.001 85.0194 718.485 83.9038C717.985 82.7715 717.119 82.2054 715.887 82.2054C714.555 82.2054 713.631 82.7882 713.115 83.9537C712.615 85.1026 712.365 86.9759 712.365 89.5734C712.365 92.2542 712.632 94.1358 713.165 95.2181C713.714 96.3004 714.605 96.8416 715.837 96.8416C717.053 96.8416 717.927 96.2755 718.46 95.1432C718.992 94.0109 719.259 92.1543 719.259 89.5734Z" fill="#38DCC8"/>
<path d="M794.157 356.735V361.955H770.355V356.735H779.072V332.733L770.63 338.003V332.483L779.446 326.763H786.09V356.735H794.157ZM821.956 344.347C821.956 350.291 820.932 354.795 818.884 357.859C816.853 360.923 813.797 362.455 809.718 362.455C805.688 362.455 802.666 360.948 800.651 357.934C798.637 354.903 797.629 350.374 797.629 344.347C797.629 338.169 798.587 333.607 800.501 330.66C802.433 327.712 805.572 326.239 809.918 326.239C814.08 326.239 817.127 327.746 819.059 330.759C820.99 333.773 821.956 338.302 821.956 344.347ZM814.913 344.347C814.913 341.183 814.771 338.685 814.488 336.854C814.205 335.005 813.697 333.69 812.965 332.907C812.232 332.125 811.2 331.734 809.868 331.734C808.452 331.734 807.362 332.133 806.596 332.932C805.846 333.715 805.33 335.03 805.047 336.879C804.781 338.71 804.648 341.2 804.648 344.347C804.648 347.494 804.789 349.991 805.072 351.84C805.372 353.671 805.888 354.978 806.621 355.761C807.37 356.544 808.419 356.935 809.768 356.935C811.766 356.935 813.123 355.969 813.839 354.038C814.555 352.106 814.913 348.876 814.913 344.347ZM834.27 326.364C840.131 326.364 843.061 330.093 843.061 337.553C843.061 341.183 842.304 343.964 840.789 345.895C839.29 347.81 837.075 348.767 834.145 348.767C831.247 348.767 829.058 347.818 827.576 345.92C826.094 344.005 825.353 341.216 825.353 337.553C825.353 333.773 826.069 330.968 827.501 329.136C828.933 327.288 831.189 326.364 834.27 326.364ZM860.92 326.763L837.866 361.955H832.721L855.699 326.763H860.92ZM837.641 337.553C837.641 334.922 837.383 333.049 836.867 331.933C836.368 330.801 835.502 330.235 834.27 330.235C832.938 330.235 832.013 330.801 831.497 331.933C830.981 333.049 830.723 334.922 830.723 337.553C830.723 340.167 830.989 342.04 831.522 343.173C832.072 344.305 832.971 344.871 834.22 344.871C835.452 344.871 836.326 344.305 836.842 343.173C837.375 342.04 837.641 340.167 837.641 337.553ZM868.213 351.165C868.213 354.795 867.463 357.568 865.965 359.482C864.466 361.397 862.268 362.355 859.371 362.355C856.44 362.355 854.234 361.406 852.752 359.507C851.27 357.609 850.529 354.828 850.529 351.165C850.529 347.435 851.245 344.638 852.677 342.773C854.109 340.892 856.374 339.951 859.471 339.951C862.468 339.951 864.674 340.9 866.09 342.798C867.505 344.68 868.213 347.469 868.213 351.165ZM862.843 351.165C862.843 348.501 862.585 346.611 862.068 345.496C861.569 344.363 860.703 343.797 859.471 343.797C858.139 343.797 857.215 344.38 856.699 345.546C856.199 346.694 855.949 348.568 855.949 351.165C855.949 353.846 856.216 355.728 856.748 356.81C857.298 357.892 858.189 358.433 859.421 358.433C860.637 358.433 861.511 357.867 862.044 356.735C862.576 355.603 862.843 353.746 862.843 351.165Z" fill="#38DCC8"/>
<path d="M194.673 444.273V450.043H170.047V445.173C170.663 443.824 171.445 442.508 172.394 441.226C173.344 439.927 174.476 438.629 175.791 437.33C177.123 436.015 178.639 434.666 180.337 433.284C181.569 432.285 182.618 431.377 183.484 430.561C184.35 429.729 185.024 428.988 185.507 428.338C186.007 427.689 186.381 427.048 186.631 426.415C186.881 425.766 187.006 425.133 187.006 424.517C187.006 422.985 186.614 421.836 185.832 421.07C185.066 420.304 183.917 419.921 182.385 419.921C180.886 419.921 179.738 420.329 178.938 421.145C178.156 421.944 177.648 423.152 177.415 424.767L170.346 424.367C170.746 421.104 171.962 418.614 173.993 416.899C176.041 415.184 178.822 414.327 182.335 414.327C186.132 414.327 189.045 415.192 191.077 416.924C193.108 418.656 194.124 421.087 194.124 424.217C194.124 425.982 193.758 427.564 193.025 428.963C192.292 430.361 191.36 431.652 190.228 432.834C189.295 433.85 188.238 434.816 187.056 435.731C185.89 436.647 184.758 437.538 183.659 438.404C182.493 439.336 181.428 440.277 180.462 441.226C179.513 442.175 178.805 443.191 178.339 444.273H194.673ZM223.771 438.329C223.771 442.059 222.606 445.031 220.274 447.246C217.96 449.444 214.78 450.542 210.733 450.542C207.203 450.542 204.373 449.752 202.241 448.17C200.127 446.571 198.82 444.265 198.32 441.251L205.338 440.677C205.705 442.175 206.354 443.266 207.287 443.949C208.219 444.631 209.393 444.973 210.808 444.973C212.557 444.973 213.947 444.415 214.979 443.299C216.028 442.184 216.553 440.577 216.553 438.479C216.553 436.631 216.062 435.157 215.079 434.058C214.097 432.942 212.723 432.385 210.958 432.385C209.992 432.385 209.11 432.576 208.311 432.959C207.511 433.325 206.804 433.891 206.188 434.657H199.344L200.568 414.851H221.723V420.071H206.937L206.362 428.963C208.061 427.464 210.184 426.715 212.732 426.715C214.963 426.715 216.903 427.189 218.551 428.139C220.216 429.071 221.498 430.403 222.397 432.135C223.313 433.867 223.771 435.931 223.771 438.329ZM235.41 414.451C241.271 414.451 244.202 418.181 244.202 425.641C244.202 429.271 243.444 432.052 241.929 433.983C240.43 435.898 238.216 436.855 235.285 436.855C232.388 436.855 230.198 435.906 228.716 434.008C227.235 432.093 226.494 429.304 226.494 425.641C226.494 421.861 227.21 419.055 228.642 417.224C230.074 415.376 232.33 414.451 235.41 414.451ZM262.06 414.851L239.007 450.043H233.862L256.84 414.851H262.06ZM238.782 425.641C238.782 423.01 238.524 421.137 238.008 420.021C237.508 418.889 236.642 418.323 235.41 418.323C234.078 418.323 233.154 418.889 232.638 420.021C232.122 421.137 231.864 423.01 231.864 425.641C231.864 428.255 232.13 430.128 232.663 431.261C233.212 432.393 234.111 432.959 235.36 432.959C236.592 432.959 237.467 432.393 237.983 431.261C238.516 430.128 238.782 428.255 238.782 425.641ZM269.353 439.253C269.353 442.883 268.604 445.655 267.105 447.57C265.607 449.485 263.409 450.443 260.512 450.443C257.581 450.443 255.375 449.493 253.893 447.595C252.411 445.697 251.67 442.916 251.67 439.253C251.67 435.523 252.386 432.726 253.818 430.861C255.25 428.979 257.514 428.039 260.611 428.039C263.609 428.039 265.815 428.988 267.23 430.886C268.646 432.768 269.353 435.557 269.353 439.253ZM263.983 439.253C263.983 436.589 263.725 434.699 263.209 433.583C262.709 432.451 261.844 431.885 260.611 431.885C259.279 431.885 258.355 432.468 257.839 433.633C257.34 434.782 257.09 436.656 257.09 439.253C257.09 441.934 257.356 443.815 257.889 444.898C258.439 445.98 259.329 446.521 260.562 446.521C261.777 446.521 262.651 445.955 263.184 444.823C263.717 443.691 263.983 441.834 263.983 439.253Z" fill="#38DCC8"/>
<path d="M412.923 578.468C412.923 582.197 411.758 585.17 409.426 587.384C407.112 589.582 403.932 590.681 399.885 590.681C396.355 590.681 393.525 589.89 391.393 588.308C389.279 586.71 387.972 584.404 387.472 581.39L394.491 580.815C394.857 582.314 395.506 583.405 396.439 584.087C397.371 584.77 398.545 585.111 399.96 585.111C401.709 585.111 403.099 584.554 404.131 583.438C405.18 582.322 405.705 580.716 405.705 578.618C405.705 576.769 405.214 575.296 404.231 574.197C403.249 573.081 401.875 572.523 400.11 572.523C399.144 572.523 398.262 572.715 397.463 573.098C396.663 573.464 395.956 574.03 395.34 574.796H388.496L389.72 554.99H410.875V560.21H396.089L395.515 569.101C397.213 567.603 399.336 566.854 401.884 566.854C404.115 566.854 406.055 567.328 407.703 568.277C409.368 569.21 410.65 570.542 411.549 572.273C412.465 574.005 412.923 576.07 412.923 578.468ZM424.562 554.59C430.423 554.59 433.354 558.32 433.354 565.78C433.354 569.41 432.596 572.19 431.081 574.122C429.583 576.037 427.368 576.994 424.437 576.994C421.54 576.994 419.35 576.045 417.869 574.147C416.387 572.232 415.646 569.443 415.646 565.78C415.646 562 416.362 559.194 417.794 557.363C419.226 555.514 421.482 554.59 424.562 554.59ZM451.212 554.99L428.159 590.182H423.014L445.992 554.99H451.212ZM427.934 565.78C427.934 563.149 427.676 561.276 427.16 560.16C426.66 559.028 425.794 558.461 424.562 558.461C423.23 558.461 422.306 559.028 421.79 560.16C421.274 561.276 421.016 563.149 421.016 565.78C421.016 568.394 421.282 570.267 421.815 571.399C422.364 572.532 423.263 573.098 424.512 573.098C425.744 573.098 426.619 572.532 427.135 571.399C427.668 570.267 427.934 568.394 427.934 565.78ZM458.505 579.392C458.505 583.022 457.756 585.794 456.257 587.709C454.759 589.624 452.561 590.581 449.664 590.581C446.733 590.581 444.527 589.632 443.045 587.734C441.563 585.836 440.822 583.055 440.822 579.392C440.822 575.662 441.538 572.865 442.97 571C444.402 569.118 446.666 568.177 449.764 568.177C452.761 568.177 454.967 569.126 456.382 571.025C457.798 572.906 458.505 575.695 458.505 579.392ZM453.135 579.392C453.135 576.728 452.877 574.838 452.361 573.722C451.862 572.59 450.996 572.024 449.764 572.024C448.431 572.024 447.507 572.607 446.991 573.772C446.492 574.921 446.242 576.794 446.242 579.392C446.242 582.073 446.508 583.954 447.041 585.036C447.591 586.119 448.481 586.66 449.714 586.66C450.929 586.66 451.803 586.094 452.336 584.962C452.869 583.829 453.135 581.973 453.135 579.392Z" fill="#38DCC8"/>
<path d="M712.575 508.883V514.104H688.773V508.883H697.489V484.881L689.047 490.151V484.631L697.864 478.912H704.508V508.883H712.575ZM740.374 496.495C740.374 502.439 739.35 506.944 737.302 510.007C735.27 513.071 732.215 514.603 728.135 514.603C724.106 514.603 721.084 513.096 719.069 510.082C717.054 507.052 716.047 502.523 716.047 496.495C716.047 490.318 717.004 485.755 718.919 482.808C720.851 479.861 723.989 478.387 728.335 478.387C732.498 478.387 735.545 479.894 737.477 482.908C739.408 485.922 740.374 490.451 740.374 496.495ZM733.331 496.495C733.331 493.331 733.189 490.834 732.906 489.002C732.623 487.154 732.115 485.838 731.382 485.056C730.65 484.273 729.617 483.882 728.285 483.882C726.87 483.882 725.779 484.282 725.013 485.081C724.264 485.863 723.748 487.179 723.465 489.027C723.198 490.859 723.065 493.348 723.065 496.495C723.065 499.642 723.207 502.14 723.49 503.988C723.79 505.82 724.306 507.127 725.038 507.909C725.788 508.692 726.837 509.083 728.185 509.083C730.184 509.083 731.541 508.117 732.257 506.186C732.973 504.254 733.331 501.024 733.331 496.495ZM752.687 478.512C758.549 478.512 761.479 482.242 761.479 489.701C761.479 493.331 760.721 496.112 759.206 498.044C757.708 499.958 755.493 500.916 752.562 500.916C749.665 500.916 747.476 499.967 745.994 498.069C744.512 496.154 743.771 493.365 743.771 489.701C743.771 485.922 744.487 483.116 745.919 481.284C747.351 479.436 749.607 478.512 752.687 478.512ZM779.337 478.912L756.284 514.104H751.139L774.117 478.912H779.337ZM756.059 489.701C756.059 487.071 755.801 485.197 755.285 484.082C754.785 482.949 753.92 482.383 752.687 482.383C751.355 482.383 750.431 482.949 749.915 484.082C749.399 485.197 749.141 487.071 749.141 489.701C749.141 492.316 749.407 494.189 749.94 495.321C750.489 496.453 751.389 497.02 752.637 497.02C753.87 497.02 754.744 496.453 755.26 495.321C755.793 494.189 756.059 492.316 756.059 489.701ZM786.63 503.314C786.63 506.944 785.881 509.716 784.383 511.631C782.884 513.546 780.686 514.503 777.789 514.503C774.858 514.503 772.652 513.554 771.17 511.656C769.688 509.758 768.947 506.977 768.947 503.314C768.947 499.584 769.663 496.786 771.095 494.922C772.527 493.04 774.792 492.099 777.889 492.099C780.886 492.099 783.092 493.048 784.507 494.947C785.923 496.828 786.63 499.617 786.63 503.314ZM781.26 503.314C781.26 500.65 781.002 498.76 780.486 497.644C779.987 496.512 779.121 495.946 777.889 495.946C776.557 495.946 775.632 496.528 775.116 497.694C774.617 498.843 774.367 500.716 774.367 503.314C774.367 505.994 774.633 507.876 775.166 508.958C775.716 510.041 776.607 510.582 777.839 510.582C779.054 510.582 779.928 510.016 780.461 508.883C780.994 507.751 781.26 505.895 781.26 503.314Z" fill="#38DCC8"/>
<defs>
<filter id="filter0_f_88_841" x="164.617" y="0.586731" width="636.064" height="634.077" filterUnits="userSpaceOnUse" color-interpolation-filters="sRGB">
<feFlood flood-opacity="0" result="BackgroundImageFix"/>
<feBlend mode="normal" in="SourceGraphic" in2="BackgroundImageFix" result="shape"/>
<feGaussianBlur stdDeviation="67.0953" result="effect1_foregroundBlur_88_841"/>
</filter>
<filter id="filter1_d_88_841" x="125.702" y="17.0783" width="355.605" height="196.919" filterUnits="userSpaceOnUse" color-interpolation-filters="sRGB">
<feFlood flood-opacity="0" result="BackgroundImageFix"/>
<feColorMatrix in="SourceAlpha" type="matrix" values="0 0 0 0 0 0 0 0 0 0 0 0 0 0 0 0 0 0 127 0" result="hardAlpha"/>
<feOffset dy="21.4705"/>
<feGaussianBlur stdDeviation="33.5477"/>
<feComposite in2="hardAlpha" operator="out"/>
<feColorMatrix type="matrix" values="0 0 0 0 0.792157 0 0 0 0 0.972549 0 0 0 0 0.0745098 0 0 0 0.1 0"/>
<feBlend mode="normal" in2="BackgroundImageFix" result="effect1_dropShadow_88_841"/>
<feBlend mode="normal" in="SourceGraphic" in2="effect1_dropShadow_88_841" result="shape"/>
</filter>
<filter id="filter2_d_88_841" x="497.411" y="46.4436" width="355.605" height="196.919" filterUnits="userSpaceOnUse" color-interpolation-filters="sRGB">
<feFlood flood-opacity="0" result="BackgroundImageFix"/>
<feColorMatrix in="SourceAlpha" type="matrix" values="0 0 0 0 0 0 0 0 0 0 0 0 0 0 0 0 0 0 127 0" result="hardAlpha"/>
<feOffset dy="21.4705"/>
<feGaussianBlur stdDeviation="33.5477"/>
<feComposite in2="hardAlpha" operator="out"/>
<feColorMatrix type="matrix" values="0 0 0 0 0.792157 0 0 0 0 0.972549 0 0 0 0 0.0745098 0 0 0 0.1 0"/>
<feBlend mode="normal" in2="BackgroundImageFix" result="effect1_dropShadow_88_841"/>
<feBlend mode="normal" in="SourceGraphic" in2="effect1_dropShadow_88_841" result="shape"/>
</filter>
<filter id="filter3_d_88_841" x="0.904694" y="210.606" width="355.605" height="196.919" filterUnits="userSpaceOnUse" color-interpolation-filters="sRGB">
<feFlood flood-opacity="0" result="BackgroundImageFix"/>
<feColorMatrix in="SourceAlpha" type="matrix" values="0 0 0 0 0 0 0 0 0 0 0 0 0 0 0 0 0 0 127 0" result="hardAlpha"/>
<feOffset dy="21.4705"/>
<feGaussianBlur stdDeviation="33.5477"/>
<feComposite in2="hardAlpha" operator="out"/>
<feColorMatrix type="matrix" values="0 0 0 0 0.792157 0 0 0 0 0.972549 0 0 0 0 0.0745098 0 0 0 0.1 0"/>
<feBlend mode="normal" in2="BackgroundImageFix" result="effect1_dropShadow_88_841"/>
<feBlend mode="normal" in="SourceGraphic" in2="effect1_dropShadow_88_841" result="shape"/>
</filter>
<filter id="filter4_d_88_841" x="624.891" y="308.035" width="397.204" height="196.919" filterUnits="userSpaceOnUse" color-interpolation-filters="sRGB">
<feFlood flood-opacity="0" result="BackgroundImageFix"/>
<feColorMatrix in="SourceAlpha" type="matrix" values="0 0 0 0 0 0 0 0 0 0 0 0 0 0 0 0 0 0 127 0" result="hardAlpha"/>
<feOffset dy="21.4705"/>
<feGaussianBlur stdDeviation="33.5477"/>
<feComposite in2="hardAlpha" operator="out"/>
<feColorMatrix type="matrix" values="0 0 0 0 0.792157 0 0 0 0 0.972549 0 0 0 0 0.0745098 0 0 0 0.1 0"/>
<feBlend mode="normal" in2="BackgroundImageFix" result="effect1_dropShadow_88_841"/>
<feBlend mode="normal" in="SourceGraphic" in2="effect1_dropShadow_88_841" result="shape"/>
</filter>
<filter id="filter5_d_88_841" x="34.4525" y="396.123" width="355.605" height="196.919" filterUnits="userSpaceOnUse" color-interpolation-filters="sRGB">
<feFlood flood-opacity="0" result="BackgroundImageFix"/>
<feColorMatrix in="SourceAlpha" type="matrix" values="0 0 0 0 0 0 0 0 0 0 0 0 0 0 0 0 0 0 127 0" result="hardAlpha"/>
<feOffset dy="21.4705"/>
<feGaussianBlur stdDeviation="33.5477"/>
<feComposite in2="hardAlpha" operator="out"/>
<feColorMatrix type="matrix" values="0 0 0 0 0.792157 0 0 0 0 0.972549 0 0 0 0 0.0745098 0 0 0 0.1 0"/>
<feBlend mode="normal" in2="BackgroundImageFix" result="effect1_dropShadow_88_841"/>
<feBlend mode="normal" in="SourceGraphic" in2="effect1_dropShadow_88_841" result="shape"/>
</filter>
<filter id="filter6_d_88_841" x="238.422" y="532.256" width="355.605" height="196.919" filterUnits="userSpaceOnUse" color-interpolation-filters="sRGB">
<feFlood flood-opacity="0" result="BackgroundImageFix"/>
<feColorMatrix in="SourceAlpha" type="matrix" values="0 0 0 0 0 0 0 0 0 0 0 0 0 0 0 0 0 0 127 0" result="hardAlpha"/>
<feOffset dy="21.4705"/>
<feGaussianBlur stdDeviation="33.5477"/>
<feComposite in2="hardAlpha" operator="out"/>
<feColorMatrix type="matrix" values="0 0 0 0 0.792157 0 0 0 0 0.972549 0 0 0 0 0.0745098 0 0 0 0.1 0"/>
<feBlend mode="normal" in2="BackgroundImageFix" result="effect1_dropShadow_88_841"/>
<feBlend mode="normal" in="SourceGraphic" in2="effect1_dropShadow_88_841" result="shape"/>
</filter>
<filter id="filter7_d_88_841" x="534.984" y="458.852" width="402.571" height="196.919" filterUnits="userSpaceOnUse" color-interpolation-filters="sRGB">
<feFlood flood-opacity="0" result="BackgroundImageFix"/>
<feColorMatrix in="SourceAlpha" type="matrix" values="0 0 0 0 0 0 0 0 0 0 0 0 0 0 0 0 0 0 127 0" result="hardAlpha"/>
<feOffset dy="21.4705"/>
<feGaussianBlur stdDeviation="33.5477"/>
<feComposite in2="hardAlpha" operator="out"/>
<feColorMatrix type="matrix" values="0 0 0 0 0.792157 0 0 0 0 0.972549 0 0 0 0 0.0745098 0 0 0 0.1 0"/>
<feBlend mode="normal" in2="BackgroundImageFix" result="effect1_dropShadow_88_841"/>
<feBlend mode="normal" in="SourceGraphic" in2="effect1_dropShadow_88_841" result="shape"/>
</filter>
<radialGradient id="paint0_radial_88_841" cx="0" cy="0" r="1" gradientUnits="userSpaceOnUse" gradientTransform="translate(738.953 500.473) rotate(-149.173) scale(261.75 900.996)">
<stop offset="0.120359" stop-color="#05616C"/>
<stop offset="0.715435" stop-color="#38DCC8" stop-opacity="0.38"/>
<stop offset="0.903765" stop-color="#38DCC8" stop-opacity="0.46"/>
</radialGradient>
<linearGradient id="paint1_linear_88_841" x1="386.032" y1="449.088" x2="617.86" y2="407.456" gradientUnits="userSpaceOnUse">
<stop offset="0.411628" stop-color="#08606B"/>
<stop offset="1" stop-color="#38DCC8"/>
</linearGradient>
<linearGradient id="paint2_linear_88_841" x1="386.032" y1="449.088" x2="515.093" y2="448.93" gradientUnits="userSpaceOnUse">
<stop offset="0.411628" stop-color="#088C9C"/>
<stop offset="1" stop-color="#38DCC8"/>
</linearGradient>
<linearGradient id="paint3_linear_88_841" x1="381.335" y1="641.945" x2="600.777" y2="584.931" gradientUnits="userSpaceOnUse">
<stop offset="0.314129" stop-color="#38DCC8" stop-opacity="0.4"/>
<stop offset="1" stop-color="#068C7C"/>
</linearGradient>
<linearGradient id="paint4_linear_88_841" x1="843.622" y1="748.718" x2="971.313" y2="448.14" gradientUnits="userSpaceOnUse">
<stop offset="0.314129" stop-color="#38DCC8"/>
<stop offset="1" stop-color="#38DCC8"/>
</linearGradient>
<linearGradient id="paint5_linear_88_841" x1="353.844" y1="319.626" x2="637.884" y2="319.626" gradientUnits="userSpaceOnUse">
<stop stop-color="#38DCC8"/>
<stop offset="1" stop-color="#38DCC8"/>
</linearGradient>
<linearGradient id="paint6_linear_88_841" x1="557.71" y1="240.283" x2="385.609" y2="187.466" gradientUnits="userSpaceOnUse">
<stop stop-color="white"/>
<stop offset="0.803412" stop-color="white"/>
</linearGradient>
<linearGradient id="paint7_linear_88_841" x1="353.592" y1="85.3857" x2="397.267" y2="229.01" gradientUnits="userSpaceOnUse">
<stop offset="0.303689" stop-color="#069583"/>
<stop offset="0.89827" stop-color="white"/>
</linearGradient>
<linearGradient id="paint8_linear_88_841" x1="273.279" y1="493.543" x2="345.493" y2="378.224" gradientUnits="userSpaceOnUse">
<stop offset="0.303689" stop-color="white"/>
<stop offset="0.89827" stop-color="white"/>
</linearGradient>
<linearGradient id="paint9_linear_88_841" x1="493.299" y1="320.363" x2="321.198" y2="267.547" gradientUnits="userSpaceOnUse">
<stop stop-color="white"/>
<stop offset="0.803412" stop-color="white"/>
</linearGradient>
<linearGradient id="paint10_linear_88_841" x1="289.179" y1="196.927" x2="306.664" y2="298.39" gradientUnits="userSpaceOnUse">
<stop offset="0.303689" stop-color="white"/>
<stop offset="0.89827" stop-color="white"/>
</linearGradient>
<linearGradient id="paint11_linear_88_841" x1="517.248" y1="411.824" x2="337.277" y2="404.872" gradientUnits="userSpaceOnUse">
<stop stop-color="white"/>
<stop offset="0.803412" stop-color="white"/>
</linearGradient>
<linearGradient id="paint12_linear_88_841" x1="274.021" y1="36.6143" x2="283.45" y2="133.603" gradientUnits="userSpaceOnUse">
<stop offset="0.303689" stop-color="#38DCC8" stop-opacity="0"/>
<stop offset="0.422945" stop-color="#38DCC8" stop-opacity="0.4"/>
<stop offset="0.499089" stop-color="#02695D"/>
<stop offset="0.649516" stop-color="#38DCC8"/>
<stop offset="0.953267" stop-color="#38DCC8" stop-opacity="0"/>
</linearGradient>
<linearGradient id="paint13_linear_88_841" x1="453.086" y1="269.644" x2="625.187" y2="216.828" gradientUnits="userSpaceOnUse">
<stop stop-color="white"/>
<stop offset="0.803412" stop-color="white"/>
</linearGradient>
<linearGradient id="paint14_linear_88_841" x1="657.205" y1="114.747" x2="613.53" y2="258.372" gradientUnits="userSpaceOnUse">
<stop offset="0.303689" stop-color="#069583"/>
<stop offset="0.89827" stop-color="white"/>
</linearGradient>
<linearGradient id="paint15_linear_88_841" x1="81.2238" y1="-26.0888" x2="90.6527" y2="70.8994" gradientUnits="userSpaceOnUse">
<stop offset="0.303689" stop-color="#38DCC8" stop-opacity="0"/>
<stop offset="0.422945" stop-color="#38DCC8" stop-opacity="0.4"/>
<stop offset="0.499089" stop-color="#02695D"/>
<stop offset="0.649516" stop-color="#38DCC8"/>
<stop offset="0.953267" stop-color="#38DCC8" stop-opacity="0"/>
</linearGradient>
<linearGradient id="paint16_linear_88_841" x1="149.224" y1="230.142" x2="158.653" y2="327.13" gradientUnits="userSpaceOnUse">
<stop offset="0.303689" stop-color="#38DCC8" stop-opacity="0"/>
<stop offset="0.422945" stop-color="#38DCC8" stop-opacity="0.4"/>
<stop offset="0.499089" stop-color="#02695D"/>
<stop offset="0.649516" stop-color="#38DCC8"/>
<stop offset="0.953267" stop-color="#38DCC8" stop-opacity="0"/>
</linearGradient>
<linearGradient id="paint17_linear_88_841" x1="461.137" y1="417.79" x2="633.239" y2="364.974" gradientUnits="userSpaceOnUse">
<stop stop-color="white"/>
<stop offset="0.803412" stop-color="white"/>
</linearGradient>
<linearGradient id="paint18_linear_88_841" x1="665.257" y1="294.354" x2="647.771" y2="395.818" gradientUnits="userSpaceOnUse">
<stop offset="0.303689" stop-color="white"/>
<stop offset="0.89827" stop-color="white"/>
</linearGradient>
<linearGradient id="paint19_linear_88_841" x1="96.484" y1="-26.0888" x2="104.443" y2="71.1647" gradientUnits="userSpaceOnUse">
<stop offset="0.303689" stop-color="#38DCC8" stop-opacity="0"/>
<stop offset="0.422945" stop-color="#38DCC8" stop-opacity="0.4"/>
<stop offset="0.499089" stop-color="#02695D"/>
<stop offset="0.649516" stop-color="#38DCC8"/>
<stop offset="0.953267" stop-color="#38DCC8" stop-opacity="0"/>
</linearGradient>
<linearGradient id="paint20_linear_88_841" x1="182.772" y1="415.659" x2="192.201" y2="512.647" gradientUnits="userSpaceOnUse">
<stop offset="0.303689" stop-color="#38DCC8" stop-opacity="0"/>
<stop offset="0.422945" stop-color="#38DCC8" stop-opacity="0.4"/>
<stop offset="0.499089" stop-color="#02695D"/>
<stop offset="0.649516" stop-color="#38DCC8"/>
<stop offset="0.953267" stop-color="#38DCC8" stop-opacity="0"/>
</linearGradient>
<linearGradient id="paint21_linear_88_841" x1="441.903" y1="641.495" x2="425.558" y2="506.616" gradientUnits="userSpaceOnUse">
<stop offset="0.303689" stop-color="white"/>
<stop offset="0.89827" stop-color="white"/>
</linearGradient>
<linearGradient id="paint22_linear_88_841" x1="604.971" y1="421.006" x2="432.87" y2="473.823" gradientUnits="userSpaceOnUse">
<stop stop-color="white"/>
<stop offset="0.803412" stop-color="white"/>
</linearGradient>
<linearGradient id="paint23_linear_88_841" x1="386.741" y1="551.792" x2="396.17" y2="648.78" gradientUnits="userSpaceOnUse">
<stop offset="0.303689" stop-color="#38DCC8" stop-opacity="0"/>
<stop offset="0.422945" stop-color="#38DCC8" stop-opacity="0.4"/>
<stop offset="0.499089" stop-color="#02695D"/>
<stop offset="0.649516" stop-color="#38DCC8"/>
<stop offset="0.953267" stop-color="#38DCC8" stop-opacity="0"/>
</linearGradient>
<linearGradient id="paint24_linear_88_841" x1="636.941" y1="544.565" x2="584.384" y2="419.168" gradientUnits="userSpaceOnUse">
<stop offset="0.303689" stop-color="white"/>
<stop offset="0.89827" stop-color="white"/>
</linearGradient>
<linearGradient id="paint25_linear_88_841" x1="411.487" y1="400.987" x2="583.588" y2="453.803" gradientUnits="userSpaceOnUse">
<stop stop-color="white"/>
<stop offset="0.803412" stop-color="white"/>
</linearGradient>
<linearGradient id="paint26_linear_88_841" x1="98.4531" y1="-26.0888" x2="106.255" y2="71.1903" gradientUnits="userSpaceOnUse">
<stop offset="0.303689" stop-color="#38DCC8" stop-opacity="0"/>
<stop offset="0.422945" stop-color="#38DCC8" stop-opacity="0.4"/>
<stop offset="0.499089" stop-color="#02695D"/>
<stop offset="0.649516" stop-color="#38DCC8"/>
<stop offset="0.953267" stop-color="#38DCC8" stop-opacity="0"/>
</linearGradient>
</defs>
</svg>
