<svg width="140" height="140" viewBox="0 0 140 140" fill="none" xmlns="http://www.w3.org/2000/svg">
<path fill-rule="evenodd" clip-rule="evenodd" d="M127.121 37.3388C127.062 39.7538 125.061 41.6671 122.646 41.6146C120.231 41.5563 118.318 39.5555 118.371 37.1405L118.61 26.6055L108.081 26.3663C105.666 26.308 103.752 24.3071 103.805 21.8921C103.863 19.4771 105.864 17.5638 108.279 17.6163L123.189 17.9605C125.604 18.013 127.517 20.0138 127.459 22.4288L127.121 37.3388Z" fill="url(#paint0_linear_88_381)"/>
<path fill-rule="evenodd" clip-rule="evenodd" d="M33.9912 54.5179V125.34C33.9912 129.412 30.6953 132.708 26.6237 132.708H14.6595C10.5878 132.708 7.29199 129.412 7.29199 125.34V54.5179C7.29199 50.4521 10.5878 47.1504 14.6595 47.1504H26.6237C30.6953 47.1504 33.9912 50.4521 33.9912 54.5179Z" fill="url(#paint1_linear_88_381)"/>
<path fill-rule="evenodd" clip-rule="evenodd" d="M99.8027 90.4163V125.34C99.8027 127.295 99.0269 129.167 97.6444 130.55C96.2619 131.932 94.3894 132.708 92.4352 132.708H80.471C78.5169 132.708 76.6444 131.932 75.2619 130.55C73.8794 129.167 73.1035 127.295 73.1035 125.34V90.4163C73.1035 88.4622 73.8794 86.5897 75.2619 85.2072C76.6444 83.8247 78.5169 83.0488 80.471 83.0488H92.4352C94.3894 83.0488 96.2619 83.8247 97.6444 85.2072C99.0269 86.5897 99.8027 88.4622 99.8027 90.4163Z" fill="url(#paint2_linear_88_381)"/>
<path fill-rule="evenodd" clip-rule="evenodd" d="M66.8974 72.4671V125.34C66.8974 129.412 63.6016 132.708 59.5299 132.708H47.5657C43.4941 132.708 40.1982 129.412 40.1982 125.34V72.4671C40.1982 70.5129 40.9741 68.6404 42.3566 67.2579C43.7391 65.8754 45.6116 65.0996 47.5657 65.0996H59.5299C63.6016 65.0996 66.8974 68.4013 66.8974 72.4671Z" fill="url(#paint3_linear_88_381)"/>
<path fill-rule="evenodd" clip-rule="evenodd" d="M132.709 72.4671V125.34C132.709 129.412 129.413 132.708 125.341 132.708H113.377C109.306 132.708 106.01 129.412 106.01 125.34V72.4671C106.01 70.5129 106.786 68.6404 108.168 67.2579C109.551 65.8754 111.423 65.0996 113.377 65.0996H125.341C129.413 65.0996 132.709 68.4013 132.709 72.4671Z" fill="url(#paint4_linear_88_381)"/>
<path fill-rule="evenodd" clip-rule="evenodd" d="M14.2916 15.1663C12.3549 13.7196 11.9641 10.9721 13.4166 9.04127C14.8633 7.11043 17.6049 6.7196 19.5416 8.16627L54.2674 34.2121H70.7583C72.1058 34.2121 73.3716 34.8304 74.1999 35.8863L87.5408 52.8671L118.457 20.6029C120.126 18.8588 122.897 18.8004 124.641 20.4746C126.385 22.1429 126.443 24.9138 124.775 26.6579L90.3699 62.5563C89.4949 63.4721 88.2641 63.9621 86.9983 63.8979C85.7324 63.8396 84.5541 63.2271 83.7724 62.2296L68.6349 42.9621H52.8091C51.8641 42.9621 50.9424 42.6588 50.1841 42.0871L14.2916 15.1663Z" fill="url(#paint5_linear_88_381)"/>
<defs>
<linearGradient id="paint0_linear_88_381" x1="105.681" y1="29.6155" x2="127.74" y2="29.6155" gradientUnits="userSpaceOnUse">
<stop stop-color="#38DCC8"/>
<stop offset="1" stop-color="#38DCC8"/>
</linearGradient>
<linearGradient id="paint1_linear_88_381" x1="9.41063" y1="89.9291" x2="34.3067" y2="89.9291" gradientUnits="userSpaceOnUse">
<stop stop-color="#38DCC8"/>
<stop offset="1" stop-color="#38DCC8"/>
</linearGradient>
<linearGradient id="paint2_linear_88_381" x1="75.2222" y1="107.878" x2="100.118" y2="107.878" gradientUnits="userSpaceOnUse">
<stop stop-color="#38DCC8"/>
<stop offset="1" stop-color="#38DCC8"/>
</linearGradient>
<linearGradient id="paint3_linear_88_381" x1="42.3169" y1="98.9038" x2="67.2129" y2="98.9038" gradientUnits="userSpaceOnUse">
<stop stop-color="#38DCC8"/>
<stop offset="1" stop-color="#38DCC8"/>
</linearGradient>
<linearGradient id="paint4_linear_88_381" x1="108.128" y1="98.9038" x2="133.024" y2="98.9038" gradientUnits="userSpaceOnUse">
<stop stop-color="#38DCC8"/>
<stop offset="1" stop-color="#38DCC8"/>
</linearGradient>
<linearGradient id="paint5_linear_88_381" x1="21.5415" y1="35.5983" x2="127.329" y2="35.5983" gradientUnits="userSpaceOnUse">
<stop stop-color="#38DCC8"/>
<stop offset="1" stop-color="#38DCC8"/>
</linearGradient>
</defs>
</svg>
