<svg width="140" height="140" viewBox="0 0 140 140" fill="none" xmlns="http://www.w3.org/2000/svg">
<path d="M105 5.83301H40.833C33.0975 5.83301 25.6789 8.90592 20.2091 14.3757C14.7393 19.8455 11.6663 27.2642 11.6663 34.9997V36.633C9.90307 37.651 8.4369 39.1127 7.41355 40.8729C6.39019 42.633 5.8453 44.6304 5.83301 46.6663V52.4997C5.8453 54.5357 6.39019 56.533 7.41355 58.2932C8.4369 60.0533 9.90307 61.515 11.6663 62.533V77.4663C9.90307 78.4843 8.4369 79.946 7.41355 81.7062C6.39019 83.4664 5.8453 85.4637 5.83301 87.4997V93.333C5.8453 95.369 6.39019 97.3663 7.41355 99.1265C8.4369 100.887 9.90307 102.348 11.6663 103.366V105C11.6663 108.83 12.4208 112.623 13.8865 116.161C15.3523 119.7 17.5007 122.915 20.2091 125.624C25.6789 131.093 33.0975 134.166 40.833 134.166H105C108.83 134.166 112.623 133.412 116.161 131.946C119.7 130.48 122.915 128.332 125.624 125.624C128.332 122.915 130.48 119.7 131.946 116.161C133.412 112.623 134.166 108.83 134.166 105V34.9997C134.166 31.1695 133.412 27.3767 131.946 23.8381C130.48 20.2994 128.332 17.0841 125.624 14.3757C122.915 11.6674 119.7 9.51895 116.161 8.05319C112.623 6.58743 108.83 5.83301 105 5.83301ZM107.916 75.833H101.5C100.357 81.4382 97.5903 86.5835 93.5452 90.6286C89.5002 94.6736 84.3549 97.4399 78.7497 98.583V105C78.7497 106.547 78.1351 108.031 77.0411 109.124C75.9472 110.218 74.4634 110.833 72.9164 110.833C71.3693 110.833 69.8855 110.218 68.7916 109.124C67.6976 108.031 67.083 106.547 67.083 105V98.583C61.4778 97.4399 56.3325 94.6736 52.2875 90.6286C48.2424 86.5835 45.4762 81.4382 44.333 75.833H37.9163C36.3692 75.833 34.8855 75.2184 33.7916 74.1245C32.6976 73.0305 32.083 71.5468 32.083 69.9997C32.083 68.4526 32.6976 66.9689 33.7916 65.8749C34.8855 64.7809 36.3692 64.1663 37.9163 64.1663H44.333C45.4762 58.5611 48.2424 53.4159 52.2875 49.3708C56.3325 45.3257 61.4778 42.5595 67.083 41.4163V34.9997C67.083 33.4526 67.6976 31.9689 68.7916 30.8749C69.8855 29.7809 71.3693 29.1663 72.9164 29.1663C74.4634 29.1663 75.9472 29.7809 77.0411 30.8749C78.1351 31.9689 78.7497 33.4526 78.7497 34.9997V41.4163C84.3549 42.5595 89.5002 45.3257 93.5452 49.3708C97.5903 53.4159 100.357 58.5611 101.5 64.1663H107.916C109.463 64.1663 110.947 64.7809 112.041 65.8749C113.135 66.9689 113.75 68.4526 113.75 69.9997C113.75 71.5468 113.135 73.0305 112.041 74.1245C110.947 75.2184 109.463 75.833 107.916 75.833ZM72.9164 52.4997C69.4552 52.4997 66.0717 53.526 63.1939 55.449C60.316 57.3719 58.073 60.105 56.7485 63.3027C55.4239 66.5004 55.0774 70.0191 55.7526 73.4138C56.4278 76.8084 58.0946 79.9266 60.542 82.3741C62.9894 84.8215 66.1076 86.4882 69.5023 87.1634C72.8969 87.8387 76.4156 87.4921 79.6133 86.1676C82.811 84.843 85.5441 82.6 87.4671 79.7222C89.39 76.8443 90.4164 73.4609 90.4164 69.9997C90.4164 65.3584 88.5726 60.9072 85.2907 57.6253C82.0088 54.3434 77.5576 52.4997 72.9164 52.4997ZM72.9164 78.7497C71.1858 78.7497 69.494 78.2365 68.0551 77.275C66.6162 76.3136 65.4947 74.947 64.8324 73.3482C64.1701 71.7493 63.9969 69.99 64.3345 68.2926C64.6721 66.5953 65.5055 65.0362 66.7292 63.8125C67.9529 62.5888 69.512 61.7554 71.2093 61.4178C72.9066 61.0802 74.666 61.2535 76.2648 61.9157C77.8637 62.578 79.2302 63.6995 80.1917 65.1384C81.1532 66.5774 81.6664 68.2691 81.6664 69.9997C81.6664 72.3203 80.7445 74.5459 79.1035 76.1869C77.4626 77.8278 75.237 78.7497 72.9164 78.7497Z" fill="url(#paint0_linear_88_689)"/>
<defs>
<linearGradient id="paint0_linear_88_689" x1="16.0166" y1="69.9997" x2="135.683" y2="69.9997" gradientUnits="userSpaceOnUse">
<stop stop-color="#38DCC8"/>
<stop offset="1" stop-color="#38DCC8"/>
</linearGradient>
</defs>
</svg>
