<svg width="54" height="54" viewBox="0 0 54 54" fill="none" xmlns="http://www.w3.org/2000/svg">
<circle cx="26.6874" cy="27.2021" r="26.3896" fill="#38DCC8"/>
<g clip-path="url(#clip0_88_603)">
<path d="M16.6381 38.1933V39.1432C16.6381 40.1424 17.4481 40.9525 18.4474 40.9525H22.8952C23.8944 40.9525 24.7045 40.1424 24.7045 39.1432V38.2385H29.2278V39.1432C29.2278 40.1424 30.0379 40.9525 31.0372 40.9525H35.485C36.4842 40.9525 37.2943 40.1424 37.2943 39.1432V38.2005C38.3802 38.017 39.1761 37.0781 39.1792 35.9768V16.0742C39.1777 14.8257 38.166 13.814 36.9175 13.8125H17.0917C15.8433 13.814 14.8316 14.8257 14.8301 16.0742V17.8835C14.8301 18.1333 15.0326 18.3358 15.2824 18.3358C15.5322 18.3358 15.7347 18.1333 15.7347 17.8835V16.0742C15.7347 15.3247 16.3423 14.7172 17.0917 14.7172H36.9175C37.667 14.7172 38.2745 15.3247 38.2745 16.0742V35.9768C38.2745 36.7263 37.667 37.3338 36.9175 37.3338H17.0917C16.3423 37.3338 15.7347 36.7263 15.7347 35.9768V20.1452C15.7347 19.8953 15.5322 19.6928 15.2824 19.6928C15.0326 19.6928 14.8301 19.8953 14.8301 20.1452V35.9768C14.8313 37.0508 15.5863 37.9763 16.6381 38.1933ZM36.3896 38.2385V39.1432C36.3896 39.6428 35.9846 40.0478 35.485 40.0478H31.0372C30.5375 40.0478 30.1325 39.6428 30.1325 39.1432V38.2385H36.3896ZM23.7998 38.2385V39.1432C23.7998 39.6428 23.3948 40.0478 22.8952 40.0478H18.4474C17.9478 40.0478 17.5427 39.6428 17.5427 39.1432V38.2385H23.7998Z" fill="black"/>
<path d="M18.3723 29.1915C18.1224 29.1915 17.9199 29.394 17.9199 29.6438V33.7148C17.9199 34.4643 18.5275 35.0718 19.2769 35.0718H34.6563C35.4057 35.0718 36.0133 34.4643 36.0133 33.7148V33.2625C36.7627 33.2625 37.3703 32.655 37.3703 31.9055V29.1915C37.3703 28.4421 36.7627 27.8345 36.0133 27.8345V24.2158C36.7627 24.2158 37.3703 23.6083 37.3703 22.8588V20.1448C37.3703 19.3954 36.7627 18.7878 36.0133 18.7878V18.3355C36.0133 17.5861 35.4057 16.9785 34.6563 16.9785H19.2769C18.5275 16.9785 17.9199 17.5861 17.9199 18.3355V27.3822C17.9199 27.632 18.1224 27.8345 18.3723 27.8345C18.6221 27.8345 18.8246 27.632 18.8246 27.3822V18.3355C18.8246 18.0857 19.0271 17.8832 19.2769 17.8832H34.6563C34.9061 17.8832 35.1086 18.0857 35.1086 18.3355V18.7878C34.3591 18.7878 33.7516 19.3954 33.7516 20.1448V22.8588C33.7516 23.6083 34.3591 24.2158 35.1086 24.2158V27.8345C34.3591 27.8345 33.7516 28.4421 33.7516 29.1915V31.9055C33.7516 32.655 34.3591 33.2625 35.1086 33.2625V33.7148C35.1086 33.9647 34.9061 34.1672 34.6563 34.1672H19.2769C19.0271 34.1672 18.8246 33.9647 18.8246 33.7148V29.6438C18.8246 29.394 18.6221 29.1915 18.3723 29.1915ZM34.6563 22.8588V20.1448C34.6563 19.895 34.8588 19.6925 35.1086 19.6925H36.0133C36.2631 19.6925 36.4656 19.895 36.4656 20.1448V22.8588C36.4656 23.1087 36.2631 23.3112 36.0133 23.3112H35.1086C34.8588 23.3112 34.6563 23.1087 34.6563 22.8588ZM34.6563 31.9055V29.1915C34.6563 28.9417 34.8588 28.7392 35.1086 28.7392H36.0133C36.2631 28.7392 36.4656 28.9417 36.4656 29.1915V31.9055C36.4656 32.1553 36.2631 32.3579 36.0133 32.3579H35.1086C34.8588 32.3579 34.6563 32.1553 34.6563 31.9055Z" fill="black"/>
<path d="M21.9516 28.1023C22.9426 30.4948 25.4855 31.8541 28.0254 31.3489C30.5652 30.8437 32.3945 28.6148 32.3945 26.0252C32.3945 23.4356 30.5652 21.2067 28.0254 20.7015C25.4855 20.1963 22.9426 21.5556 21.9516 23.9481C21.3963 25.2772 21.3963 26.7733 21.9516 28.1023ZM24.8257 22.0411L24.9904 22.4382C25.0499 22.5909 25.1874 22.6995 25.3498 22.722C25.5121 22.7445 25.674 22.6773 25.7728 22.5466C25.8716 22.4158 25.8919 22.2418 25.8258 22.0917L25.6616 21.6946C26.5121 21.4359 27.4203 21.4359 28.2707 21.6946L28.1065 22.0917C28.0405 22.2418 28.0608 22.4158 28.1596 22.5466C28.2584 22.6773 28.4202 22.7445 28.5826 22.722C28.7449 22.6995 28.8824 22.5909 28.942 22.4382L29.1066 22.0406C29.8908 22.4592 30.5328 23.1014 30.9512 23.8857L30.5541 24.0503C30.4014 24.1099 30.2928 24.2474 30.2703 24.4097C30.2478 24.5721 30.3149 24.7339 30.4457 24.8327C30.5765 24.9315 30.7505 24.9518 30.9006 24.8858L31.2977 24.7216C31.5564 25.572 31.5564 26.4802 31.2977 27.3307L30.9006 27.1665C30.7505 27.1004 30.5765 27.1207 30.4457 27.2195C30.3149 27.3183 30.2478 27.4802 30.2703 27.6425C30.2928 27.8049 30.4014 27.9424 30.5541 28.0019L30.9517 28.1666C30.5331 28.9507 29.8909 29.5928 29.1066 30.0112L28.942 29.614C28.8824 29.4613 28.7449 29.3527 28.5826 29.3303C28.4202 29.3078 28.2584 29.3749 28.1596 29.5057C28.0608 29.6365 28.0405 29.8105 28.1065 29.9605L28.2707 30.3577C27.4203 30.6164 26.5121 30.6164 25.6616 30.3577L25.8258 29.9605C25.8919 29.8105 25.8716 29.6365 25.7728 29.5057C25.674 29.3749 25.5121 29.3078 25.3498 29.3303C25.1874 29.3527 25.0499 29.4613 24.9904 29.614L24.8257 30.0116C24.0416 29.593 23.3995 28.9508 22.9811 28.1666L23.3783 28.0019C23.531 27.9424 23.6395 27.8049 23.662 27.6425C23.6845 27.4802 23.6174 27.3183 23.4866 27.2195C23.3558 27.1207 23.1818 27.1004 23.0318 27.1665L22.6346 27.3307C22.3759 26.4802 22.3759 25.572 22.6346 24.7216L23.0318 24.8858C23.1818 24.9518 23.3558 24.9315 23.4866 24.8327C23.6174 24.7339 23.6845 24.5721 23.662 24.4097C23.6395 24.2474 23.531 24.1099 23.3783 24.0503L22.9807 23.8857C23.3991 23.1012 24.0413 22.4588 24.8257 22.0402V22.0411Z" fill="black"/>
<path d="M26.9694 28.7395C28.1646 28.7377 29.2179 27.9541 29.5633 26.8099C29.9087 25.6656 29.465 24.4301 28.4704 23.7672C27.4759 23.1043 26.1647 23.1701 25.2415 23.9292C24.3182 24.6883 24.0003 25.962 24.4585 27.0659C24.8805 28.0798 25.8711 28.7401 26.9694 28.7395ZM26.2732 24.3519C27.1965 23.971 28.2538 24.4103 28.6353 25.3333C29.0169 26.2563 28.5784 27.3139 27.6556 27.6961C26.7329 28.0783 25.675 27.6405 25.2921 26.7181C25.1066 26.2743 25.1059 25.775 25.2901 25.3308C25.4743 24.8865 25.8282 24.5342 26.2732 24.3519Z" fill="black"/>
<path d="M22.4425 18.7881H20.1808C19.931 18.7881 19.7285 18.9906 19.7285 19.2404V21.5021C19.7285 21.7519 19.931 21.9544 20.1808 21.9544C20.4307 21.9544 20.6332 21.7519 20.6332 21.5021V19.6928H22.4425C22.6923 19.6928 22.8948 19.4902 22.8948 19.2404C22.8948 18.9906 22.6923 18.7881 22.4425 18.7881Z" fill="black"/>
</g>
<defs>
<clipPath id="clip0_88_603">
<rect width="27.14" height="27.14" fill="white" transform="translate(13.3965 13.8125)"/>
</clipPath>
</defs>
</svg>
